<?xml version="1.0" encoding="UTF-8"?>
<svg id="_レイヤー_1" data-name="レイヤー 1" xmlns="http://www.w3.org/2000/svg" viewBox="0 0 140 42">
  <defs>
    <style>
      .cls-1 {
        fill: #000;
        stroke-width: 0px;
      }
    </style>
  </defs>
  <path class="cls-1" d="M18.66,19.56h1.26c1.48,0,3.1-.13,4.36-.13.99,0,.95.54.95,2.25s.04,2.21-.95,2.21c-1.17,0-2.79-.13-4.36-.13h-1.49c-.45.04-.94.13-.94.67,0,.27.09.5.22.76,1.84,3.42,4.32,6.62,7.15,9.27.27.27.63.58.63.99,0,.81-2.07,2.83-2.88,2.83-.58,0-1.66-1.21-2.07-1.67-1.58-1.75-2.88-3.74-4-5.8-.09-.18-.22-.32-.45-.32-.27,0-.41.18-.54.41-1.8,4.09-4.46,6.97-8.05,9.58-.4.27-1.04.72-1.48.72-.81,0-2.66-2.34-2.66-3.1,0-.5.72-.9,1.44-1.4,4.14-2.83,7.06-6.75,7.83-11.79.04-.81-.31-1.08-1.12-1.17h-2.02c-1.53,0-3.15.13-4.37.13-.99,0-.95-.63-.95-2.21s-.04-2.25.95-2.25c1.3,0,2.88.13,4.37.13h2.34c.81,0,1.26-.36,1.26-1.17v-4.54c0-.94-.32-1.26-1.26-1.26-.86,0-1.12.18-1.58.9-.45.94-2.56,4.9-3.55,4.9-.41,0-3.01-1.3-3.01-2.11,0-.32.54-1.04.72-1.31,2.79-4.05,4.95-8.73,6.07-13.54.04-.27.14-.63.54-.63.32,0,1.89.4,2.29.5.36.09.67.18.99.27,1.08.27,1.53.36,1.53.81,0,.36-.45.58-.72.72-.67.22-.72.4-1.12,1.53-.18.58-.45,1.4-.9,2.61,0,.13-.04.27-.04.36,0,.58.41.72.9.76h4.86c1.44,0,2.92-.09,4.23-.09,1.08,0,1.04.5,1.04,2.25s.04,2.16-1.04,2.16c-1.26,0-2.79-.13-4.23-.09-.9,0-1.21.36-1.3,1.21,0,1.53,0,3.06-.04,4.59.09.81.4,1.17,1.21,1.17ZM32.38,36.12c-.81,0-1.17.36-1.21,1.21.04.5.04.99.04,1.53,0,1.21-.54,1.17-2.34,1.17s-2.43.04-2.43-1.12c0-1.8.13-3.55.13-5.35V12.95c0-1.35-.09-2.75-.09-4.14,0-1.85.95-2.29,2.66-2.29,1.04,0,2.07.04,3.1.04h4.86c1.03,0,2.07-.04,3.1-.04,1.67,0,2.66.4,2.66,2.29,0,1.39-.04,2.74-.04,4.14v20.16c0,1.75.09,3.51.09,5.31,0,1.21-.58,1.17-2.34,1.17s-2.29.04-2.29-1.17c0-.36.04-.72.04-1.08-.04-.85-.41-1.21-1.21-1.21h-4.73ZM37.15,31.8c.76-.09,1.21-.5,1.21-1.26V12.27c0-.77-.45-1.17-1.21-1.26h-4.77c-.81.09-1.26.49-1.26,1.26v18.27c0,.77.45,1.17,1.26,1.26h4.77Z"/>
  <path class="cls-1" d="M82.19,8.58c0,.32-.5.58-.99.95-2.52,1.75-4.41,3.83-6.52,6.03-.18.18-.45.5-.45.77,0,.36.36.58.76.58.18,0,.41-.04.58-.09.59-.14,1.26-.18,1.85-.18,1.8,0,3.91.54,5.53,1.35,3.51,1.8,5.36,4.81,5.36,8.73,0,7.96-7.07,12.1-14.31,12.1-3.74,0-9.04-1.53-9.04-6.12,0-3.1,2.75-5.44,5.76-5.44,2.34,0,4.72,1.26,5.98,3.19.68,1.04.81,1.71.81,2.88.04.32.18.58.54.58,1.17,0,5.44-2.38,5.44-6.93s-3.69-6.16-7.6-6.16-7.2,1.57-10.08,4.41c-1.76,1.71-3.38,3.55-5,5.4-.13.18-.27.31-.5.31-.95,0-3.24-2.52-3.24-3.24,0-.54.68-1.03,1.08-1.35,4.63-4,9.85-9.58,14-14.13.36-.36,1.17-1.17,1.17-1.62,0-.41-.41-.54-.77-.54-.22,0-.81.13-1.08.18-1.08.27-7.42,1.58-8.14,1.58-.99,0-1.12-3.38-1.12-4.14,0-1.04.04-1.12,1.4-1.12h1.08c2.88,0,8.77-.63,11.38-1.67.5-.18,1.21-.5,1.71-.5,1.8,0,4.41,3.42,4.41,4.18ZM70.81,30.9c-.99,0-1.93.72-1.93,1.8,0,1.62,2.16,2.38,3.51,2.38.85,0,1.21-.81,1.21-1.53,0-1.4-1.21-2.66-2.79-2.66Z"/>
</svg>