<?xml version="1.0" encoding="UTF-8"?>
<svg id="_レイヤー_1" data-name="レイヤー 1" xmlns="http://www.w3.org/2000/svg" version="1.1" viewBox="0 0 30 30">
  <defs>
    <style>
      .cls-1 {
        fill: #fff;
        stroke-width: 0px;
      }
    </style>
  </defs>
  <path class="cls-1" d="M9.2,7v7.1h-2.7v6h2.7v2.9h9.3l4-4V7h-13.3ZM7.2,19.5v-4.7h9.1v4.7H7.2ZM18.5,22.1v-3.1h3.1l-3.1,3.1ZM21.8,18.3h-4v4h-8v-2.2h7.1v-6h-7.1v-6.4h12v10.7Z"/>
  <path class="cls-1" d="M8.8,16.4h-.8v.6h.8v.4h-.8v.6h.9v.4h-1.3v-2.4h1.3v.4Z"/>
  <path class="cls-1" d="M9.6,16l.3.8.3-.8h.5l-.5,1.2.6,1.2h-.5l-.3-.8-.3.8h-.5l.6-1.2-.5-1.2h.5Z"/>
  <path class="cls-1" d="M12,16.5c0,0-.1-.1-.2-.1,0,0-.1,0-.1,0,0,0,0,.1,0,.2,0,0,0,.2,0,.3v.9c0,0,0,.2,0,.3,0,0,0,0,0,.1,0,0,0,0,.1,0h.1s0,0,0-.1c0,0,0-.1,0-.2,0-.1,0-.2,0-.3h.5c0,.1,0,.2,0,.4,0,.1,0,.2-.1.3,0,0-.1.2-.2.2-.1,0-.2,0-.4,0-.1,0-.3,0-.4,0-.1,0-.2-.1-.2-.2,0-.1,0-.3-.1-.4,0-.2,0-.3,0-.5,0-.2,0-.3,0-.5,0-.1,0-.3.1-.4,0-.1.1-.2.2-.3.1,0,.3-.1.4-.1.1,0,.3,0,.4,0,.2.1.3.3.3.5v.3h-.5c0-.1,0-.2,0-.4Z"/>
  <path class="cls-1" d="M14.3,16.4h-.8v.6h.8v.4h-.8v.6h.9v.4h-1.3v-2.4h1.3v.4Z"/>
  <path class="cls-1" d="M14.7,16h.5v2h.8v.4h-1.3v-2.4Z"/>
  <path class="cls-1" d="M14.4,11.8h-.7l1-1.9-.9-1.8h.7l.5,1.2.6-1.2h.7l-.9,1.8,1,1.9h-.8l-.6-1.3-.6,1.3Z"/>
  <path class="cls-1" d="M16.7,8.1h.6v3h1.5v.7h-2.1v-3.7Z"/>
  <path class="cls-1" d="M19.6,10.6c0,.1,0,.3.1.4.1.2.3.3.5.2.1,0,.3,0,.4,0,.2,0,.3-.2.3-.4,0-.1,0-.2-.1-.3-.1,0-.3-.1-.4-.2h-.3c-.2-.1-.5-.2-.7-.4-.2-.2-.3-.5-.3-.8,0-.3,0-.6.3-.8.2-.2.5-.3.9-.3.3,0,.6.1.8.3.2.2.4.6.4.9h-.6c0-.2,0-.4-.2-.5-.1,0-.2,0-.4,0-.1,0-.3,0-.4.1-.1,0-.2.2-.1.3,0,.1,0,.2.1.3.1,0,.3.1.4.2h.5c.2.2.4.3.5.4.2.2.3.5.3.8,0,.3-.1.6-.3.9-.2.2-.6.4-.9.3-.3,0-.7-.1-.9-.3-.2-.2-.3-.6-.3-.9h.6Z"/>
</svg>