<?xml version="1.0" encoding="UTF-8"?>
<svg id="_レイヤー_2" data-name="レイヤー_2" xmlns="http://www.w3.org/2000/svg" viewBox="0 0 60 60">
  <defs>
    <style>
      .cls-1 {
        fill: #dd3d79;
      }

      .cls-2 {
        fill: #e5107d;
      }
    </style>
  </defs>
  <g>
    <path class="cls-2" d="M13.62,18.27c.12-1.48.12-2.52,0-3.11l.57-.04c.22.02.24.1.04.23.06.44.03,1.39-.08,2.84,0,.09.01.16.04.2.07.07.14.11.23.1,1.18-.08,2.2-.08,3.06.02l-.03.64c-.89-.11-1.9-.16-3.02-.13-.33,0-.55-.05-.66-.17-.12-.14-.17-.33-.15-.57Z"/>
    <path class="cls-2" d="M26.25,14.14c.15-.24.18-.53.1-.85-.09-.36-.27-.61-.53-.77-.26-.16-.62-.18-1.07-.06-.53.13-.92.34-1.16.63-.23.26-.49.7-.8,1.31l-.5-.26c.87-1.46,1.51-2.65,1.91-3.57-.52.2-1.04.39-1.56.57l-.31-.51c.79-.2,1.48-.42,2.08-.65l.19-.15.33.2c.22.12.2.23-.04.35-.35.67-.69,1.33-1.04,1.99.32-.17.59-.28.82-.33.61-.15,1.1-.12,1.47.09.36.22.6.55.72,1,.12.47.08.86-.11,1.19-.29.49-.73.8-1.33.95-.57.14-1.01.12-1.33-.08-.26-.16-.43-.38-.5-.67-.05-.19-.02-.38.09-.56.12-.2.29-.33.5-.38.29-.07.56-.04.8.11.28.17.53.49.73.95.25-.1.44-.26.57-.48ZM24.71,14.04c-.14-.08-.27-.11-.38-.08-.13.03-.22.09-.27.17-.06.1-.08.2-.05.3.04.15.14.27.3.36.2.12.43.15.69.08.06-.02.14-.03.22-.05-.15-.41-.32-.67-.5-.77Z"/>
    <path class="cls-2" d="M35.03,15.43l-.44-.42c.62-.35,1.09-.85,1.42-1.5-.51-.35-1.05-.64-1.61-.86-.67.83-1.09,1.3-1.27,1.41-.24.15-.49.19-.75.12-.19-.05-.34-.15-.44-.31-.11-.18-.13-.42-.06-.71.08-.34.33-.63.73-.87.44-.27.96-.33,1.56-.18.32-.45.61-.88.88-1.28-.48,0-.96,0-1.44-.02l-.1-.54c.55.07,1.08.1,1.59.11l.32-.05.33.42c.14.14.11.21-.08.21-.3.32-.65.75-1.04,1.29.5.19,1.02.46,1.55.79.13-.38.25-.86.38-1.43l.44.21c.17.08.17.14,0,.21-.13.53-.26.97-.37,1.3.28.19.6.44.95.75l-.36.43c-.29-.28-.56-.52-.8-.71-.34.69-.81,1.23-1.41,1.63ZM32.91,12.64c-.32.2-.51.41-.57.63-.02.1-.01.19.04.27.04.06.1.1.2.13.15.04.3-.02.45-.17.13-.12.42-.45.86-.97-.37-.09-.7-.05-.98.12Z"/>
    <path class="cls-2" d="M43.71,17.49c-.31-.28-.74-.33-1.3-.16-.34.1-.73.26-1.18.49l-.23-.61c1.22-.34,2.84-.92,4.86-1.74l.21.59c0,.16-.05.2-.19.1-.61.15-1.39.4-2.35.74.29.1.51.23.67.37.15.13.23.28.24.45,0,.16-.09.39-.3.67l-.52.81c-.12.18-.09.35.08.51.16.14.35.21.56.2.45-.02,1.05-.32,1.81-.89l.23.57c-.8.56-1.41.85-1.83.88-.47.02-.86-.1-1.17-.38-.38-.35-.42-.75-.12-1.21l.59-.92c.11-.17.09-.32-.06-.46Z"/>
  </g>
  <g>
    <path class="cls-1" d="M11.06,22.5,11.71,22.51"/>
    <path class="cls-1" d="M20.81,34.18c0-2.94.96-3.88.96-6.34,0-.85-.35-3.59-1.12-4.8-.56-.86-1.16-1.57-1.83-2.33,1.54.5,4.45,1.51,6.39,3.14.86-1.08,2.73-3.05,5.83-3.05,4.4,0,7.12,3.67,7.12,7.12.03.29-.03.38-.06.59,1.11-.15,1.43-.15,2.11-.15,1.87,0,4.33.61,5.31,1-2.31.53-4.2,1.28-5.45,2.32-.61.51-1.65,1.59-2.09,3.16-.48,1.73-1.67,3.75-2.78,4.7-1.82,1.55-3.5,2.02-5.42,2.02-.94,0-.73,0-1.2-.06-.04.39,0,.75,0,.75,1.47.32,3.31,1.96,3.31,4.56s-2.16,4.81-4.9,4.81c-2.4,0-4.81-1.91-4.81-4.81,0-1.62,1.03-3.5,2.46-4.19,0,0-.13-1.01.03-2.08-1.5-.78-3.87-2.8-3.87-6.35ZM27.26,39.98c.21.09,1.17.39,2.46.41,4.2.07,6.06-3.42,6.82-6.2.25-.93,1.39-3.09,3.64-4.25-4.99,0-8.5,1.45-11.4,4.44-1.91,1.97-2.7,5.12-2.7,7.1,0,.64.04,1.33.1,1.95-1.79.37-2.65,2.04-2.65,3.3,0,2.08,1.76,3.52,3.49,3.52,1.86,0,3.43-1.66,3.43-3.49s-1.5-3.4-3.28-3.4c-.16-.9-.03-2.46.09-3.37ZM24.95,38.66c.27-1.44,1.45-4.37,2.93-5.72-.07-2.74-.56-3.91-1.67-5.57-.99-1.49-2.18-2.47-3.72-3.34.23.74.7,2.35.7,4.25,0,2.23-.97,3.31-.97,5.72s1.4,3.79,2.73,4.66ZM29.39,31.63c1.09-.89,3.73-2.34,6.98-2.88.52-4.37-3.13-6.24-4.82-6.24-.73,0-1.23.36-1.23.69,0,.76,1.84,1.05,2.19,1.04-.76.22-1.34.24-1.73.24-.56,0-2.16-.15-2.16-1.04,0-.35.08-.31.13-.47-1.25.55-2.19,1.76-2.35,2.02,1.64,1.85,2.52,3.79,2.98,6.64ZM29.51,25.34c-.5,0-.91.41-.91.91s.41.91.91.91.91-.41.91-.91-.41-.91-.91-.91ZM33.97,24.31c-.5,0-.91.41-.91.91s.41.91.91.91.91-.41.91-.91-.41-.91-.91-.91ZM30.76,27.22l-.44.11c.18.32.99,1.14,1.88,1.14.95,0,1.69-1.07,1.67-1.92l-.46.05c-.16.69-.71,1.33-1.28,1.33-.8,0-1.16-.53-1.37-.71Z"/>
  </g>
  <path class="cls-2" d="M49.51,22.74l-2.58-1.69,3.08-.16.76-3,1.12,2.95,3.11-.17-2.44,1.94,1.12,2.95-2.56-1.74-2.41,1.92.81-2.98ZM48.77,21.5l1.42.97-.43,1.63,1.36-1.02,1.37.95-.62-1.63,1.26-1.06-1.65.05-.62-1.63-.39,1.62-1.7.1Z"/>
  <path class="cls-2" d="M9.95,23.27l-.51,3.04-1.39-2.75-3.05.51,2.25-2.21-1.41-2.78,2.76,1.46,2.25-2.21-.56,3.04,2.73,1.43-3.05.46ZM9.12,24.44l.32-1.69,1.67-.27-1.48-.83.32-1.64-1.24,1.22-1.48-.73.71,1.49-1.24,1.22,1.64-.29.78,1.52Z"/>
  <g>
    <path class="cls-2" d="M14,9.54c.54-1.51.96-2.45.7-2.99-.18-.38-.54-.52-1.01-.28-.33.17-.51.48-.62.81-.17-.04-.35-.07-.53-.1.18-.51.45-.91,1-1.19.79-.39,1.48-.19,1.76.44.28.64-.1,1.57-.51,2.74.18-.12.42-.25.61-.34.33-.16.66-.31.99-.45.07.16.14.32.21.48-.83.36-1.64.76-2.44,1.2-.06-.1-.11-.21-.17-.31Z"/>
    <path class="cls-2" d="M16.66,6.54c-.49-1.19-.2-2.05.68-2.36.89-.32,1.65.18,2.02,1.4.37,1.23.09,2.05-.69,2.33-.77.28-1.52-.18-2.01-1.37ZM18.73,5.78c-.34-1.04-.78-1.3-1.23-1.15-.45.16-.62.64-.23,1.66.4,1.02.83,1.3,1.23,1.15.4-.14.56-.63.22-1.67Z"/>
    <path class="cls-2" d="M20.59,6.85c.84-1.35,1.45-2.16,1.32-2.75-.09-.41-.4-.62-.91-.5-.35.08-.59.35-.76.65-.16-.08-.32-.15-.48-.22.28-.45.62-.78,1.22-.92.83-.2,1.47.15,1.59.83.13.69-.44,1.51-1.08,2.55.2-.07.46-.15.66-.19.35-.08.7-.15,1.05-.22.03.17.06.34.1.51-.87.16-1.74.37-2.6.61-.03-.11-.06-.23-.1-.34Z"/>
    <path class="cls-2" d="M24.24,5.91c.3-.05.6-.09.91-.13-.11-.87-.21-1.74-.32-2.6-.27.03-.54.07-.81.11-.02-.13-.04-.26-.06-.38.42-.13.71-.26.95-.43.18-.02.36-.04.54-.06.11,1.1.23,2.2.34,3.29.27-.03.54-.05.82-.07.01.17.03.34.04.5-.78.06-1.56.15-2.33.27-.03-.17-.05-.33-.08-.5Z"/>
    <path class="cls-2" d="M32.68,5.51c-.67-.08-1.33-.13-2-.17-.02.39-.04.78-.06,1.18-.18,0-.35-.02-.53-.02.01-.39.03-.78.04-1.18-.87-.03-1.74-.03-2.6.01,0-.16-.02-.32-.02-.48.31-.01.62-.02.94-.03,0-.47-.02-.94-.02-1.41.59-.01,1.19,0,1.78.02,0-.25.02-.49.03-.74-.47-.02-.95-.02-1.42-.02-.27.4-.56.75-.86,1.03-.11-.08-.36-.23-.5-.3.54-.45,1.02-1.13,1.31-1.84.2.04.4.09.6.13-.08.16-.17.34-.25.5,1.21,0,2.43.07,3.63.2-.02.16-.03.32-.05.48-.62-.07-1.24-.12-1.87-.15-.01.24-.03.49-.04.73.56.03,1.13.07,1.69.13-.02.15-.03.31-.05.46-.55-.06-1.11-.1-1.66-.13-.02.31-.03.63-.05.94.68.04,1.36.09,2.03.17-.02.16-.04.32-.06.48ZM30.15,4.84c.01-.31.02-.63.03-.94-.4-.01-.8-.02-1.2-.02,0,.31,0,.63,0,.94.39,0,.78,0,1.17.02Z"/>
    <path class="cls-2" d="M35.99,3.58c-.72-.15-1.45-.28-2.18-.38.02-.13.04-.26.06-.39.74.11,1.47.23,2.2.39-.03.13-.05.26-.08.39ZM35.16,6.8c-.38-.08-.76-.15-1.15-.21-.01.07-.02.15-.04.22-.14-.02-.28-.05-.43-.07.09-.59.18-1.18.27-1.77.55.08,1.11.18,1.66.29-.1.51-.21,1.02-.31,1.54ZM35.68,4.24c-.56-.12-1.13-.22-1.7-.3.02-.13.04-.25.06-.38.57.09,1.15.19,1.72.31-.03.13-.05.25-.08.38ZM33.93,4.26c.56.08,1.12.18,1.68.3-.03.13-.05.25-.08.38-.55-.11-1.11-.21-1.66-.3.02-.13.04-.26.06-.38ZM35.95,2.85c-.57-.12-1.15-.22-1.73-.31.02-.13.04-.26.06-.38.58.09,1.17.19,1.75.31l-.08.38ZM34.21,5.44c-.04.25-.08.5-.13.76.24.04.48.08.72.13.05-.25.1-.5.14-.75-.25-.05-.49-.09-.74-.13ZM35.22,6.59c.29-.21.5-.62.65-1.03.14.06.27.13.4.2-.16.44-.39.9-.73,1.14-.11-.1-.22-.2-.33-.3ZM36.56,3.28c.2.11.4.23.61.37.08-.13.16-.26.22-.4-.33-.08-.66-.16-.98-.23.03-.14.06-.28.09-.42,1.01.22,2.01.48,3,.79,0,0-.04.13-.06.19-.43,1.16-.62,1.59-.82,1.7-.13.08-.25.09-.41.06-.14-.02-.39-.1-.65-.18.03-.14.03-.33-.02-.48.24.08.45.14.54.17.09.03.14.03.2,0,.1-.07.26-.38.55-1.22-.3-.09-.61-.18-.92-.26-.09.2-.2.39-.33.56.22.17.41.34.55.47-.12.1-.25.2-.37.3-.12-.13-.28-.28-.46-.43-.3.3-.7.53-1.25.65-.03-.12-.14-.31-.24-.42.49-.09.84-.28,1.1-.54-.22-.16-.45-.3-.67-.42.11-.09.23-.18.34-.27ZM37.18,7.1c.13.04.17-.02.33-.52.07.1.25.23.37.3-.24.62-.41.75-.76.65-.18-.05-.35-.1-.53-.14-.44-.11-.51-.27-.41-.7.09-.4.19-.8.28-1.2.16.04.32.08.49.12-.1.4-.2.79-.3,1.19-.03.13-.02.16.12.19.13.03.27.07.4.11ZM37.07,4.9c.33.26.7.66.84.93-.14.07-.28.15-.42.22-.14-.27-.49-.67-.81-.95.13-.07.25-.14.38-.2ZM38.27,6.06c.19.47.27,1.04.23,1.41-.17,0-.33.02-.5.03.04-.36-.04-.95-.21-1.42.16-.01.32-.02.47-.03Z"/>
    <path class="cls-2" d="M41.85,8.65c.22.13.45.26.71.39.22.1,1.09.55,1.38.7-.13.06-.33.23-.42.34-.4-.22-.8-.42-1.2-.62-1-.48-1.67-.94-1.86-1.92-.34.35-.72.61-1.14.76-.05-.11-.2-.35-.29-.47.73-.21,1.27-.8,1.72-1.62.17.08.35.17.52.26-.12.21-.26.41-.39.59.01.54.2.92.52,1.23.27-.63.55-1.27.82-1.9-.43-.19-.87-.37-1.31-.54.06-.15.11-.3.17-.44,1.09.42,2.16.89,3.21,1.43-.07.14-.14.28-.22.42-.43-.22-.87-.43-1.31-.63-.11.24-.22.48-.32.71.52.24,1.04.49,1.55.75-.07.14-.14.27-.21.41-.5-.26-1.01-.51-1.53-.74-.13.29-.26.58-.4.87ZM40.75,5.51c-.17-.07-.35-.13-.53-.19.14-.39.27-.77.41-1.16.73.26,1.46.55,2.18.86.08-.17.15-.35.23-.52.2.09.39.17.59.26-.08.17-.16.35-.24.52.72.33,1.44.68,2.14,1.06-.19.36-.39.72-.58,1.08-.17-.09-.35-.19-.53-.28.12-.22.23-.45.35-.67-1.23-.64-2.48-1.19-3.76-1.67-.09.24-.18.47-.27.71Z"/>
  </g>
  <g>
    <path class="cls-2" d="M11.89,54.48c-.42-.16-.84-.32-1.26-.49-.11.26-.21.52-.32.78-.07.16-.14.22-.29.21-.15-.01-.36-.09-.66-.22.01-.08,0-.23,0-.33.23.11.47.21.54.24.07.02.09.02.11-.03.11-.26.22-.52.32-.78-.42-.17-.83-.35-1.24-.54.04-.09.08-.17.12-.26.41.19.82.36,1.24.54.06-.15.13-.3.19-.45.05.02.11.05.16.07.23-.02.47-.07.68-.13-.54-.21-1.07-.44-1.6-.67.04-.09.08-.17.11-.26.62.28,1.25.54,1.88.78.02,0,.05,0,.07,0,.05.08.1.16.15.23-.35.15-.84.27-1.26.31-.03.08-.06.16-.1.24.41.17.83.33,1.25.49-.03.09-.07.18-.1.27Z"/>
    <path class="cls-2" d="M15.46,54.49c-.24-.07-.48-.14-.72-.22.2.24.44.56.55.77-.1.03-.2.06-.3.09-.04-.07-.08-.16-.14-.26-.79-.2-1.62-.46-2.16-.65.03-.08.05-.17.08-.25.13.05.27.09.42.15.11-.07.23-.16.33-.24-.25-.09-.5-.17-.75-.26.03-.08.06-.16.09-.24.39.14.79.28,1.19.41.03-.09.06-.18.09-.27.1.03.19.06.29.09-.03.09-.06.18-.09.27.4.13.8.25,1.21.37-.02.08-.05.16-.07.24ZM14.47,56.3c-.04.14-.1.19-.22.19-.13,0-.3-.05-.57-.13,0-.07,0-.18-.02-.25.17.06.37.12.42.13.06.02.08,0,.09-.03.02-.07.04-.13.06-.2-.45-.14-.89-.28-1.34-.43-.05.16-.11.32-.16.47-.1-.03-.2-.07-.3-.1.17-.49.34-.97.51-1.46.63.22,1.26.42,1.89.61-.12.4-.24.8-.36,1.2ZM13.15,54.81c-.02.06-.04.12-.06.18.44.15.88.29,1.32.43.02-.06.04-.12.06-.19-.44-.13-.88-.28-1.31-.42ZM14.29,55.81c.02-.06.04-.13.06-.19-.44-.14-.89-.28-1.32-.43-.02.06-.04.12-.06.19.44.15.89.29,1.33.43ZM13.88,54c-.12.08-.25.16-.37.22.35.11.73.23,1.12.34-.07-.1-.14-.19-.21-.28.07-.02.13-.03.2-.05-.25-.08-.49-.16-.74-.24Z"/>
    <path class="cls-2" d="M16.24,54.66c.23.04.8.14,1.39.23.34.05.66.1.88.14-.02.1-.04.2-.07.31-.17-.04-.45-.09-.62-.09-.45.02-.83.38-.92.74-.14.55.37.87.92,1.01-.06.1-.13.2-.19.29-.64-.17-1.24-.66-1.07-1.32.11-.45.49-.74.78-.84-.32-.04-1.08-.16-1.44-.18.02-.11.04-.22.06-.34.12.03.23.05.29.06Z"/>
    <path class="cls-2" d="M19.8,57.77c-.08-.1-.16-.2-.24-.29.66-.1.99-.32,1.11-1.13,0-.04.01-.08.02-.12-.28-.04-.57-.09-.85-.14-.03.15-.05.3-.08.46-.02.12-.03.25-.04.3-.12-.02-.24-.04-.36-.07.01-.04.05-.16.07-.29.03-.15.06-.3.08-.46-.1-.02-.21-.04-.31-.06-.15-.03-.28-.05-.34-.05.02-.11.04-.22.07-.33.04.02.18.06.33.09.1.02.21.04.31.06.02-.12.04-.23.06-.35.01-.08.02-.17.03-.25.12.02.24.04.35.06-.01.04-.04.13-.06.24-.02.12-.04.23-.06.35.28.05.56.1.84.14.02-.12.04-.24.06-.35.02-.12.03-.22.03-.27.12.02.24.04.36.05-.01.05-.04.14-.06.26-.02.12-.04.24-.05.35.1.02.2.03.3.04.16.02.26.03.32.03-.01.11-.03.22-.04.32-.05-.01-.16-.03-.32-.05-.1-.01-.2-.03-.31-.04,0,.03-.01.07-.02.1-.12.79-.37,1.2-1.21,1.39Z"/>
    <path class="cls-2" d="M22.24,57.68c-.09-.07-.18-.14-.26-.22.24-.16.56-.48.71-.72.09.05.18.11.28.16-.17.25-.52.62-.73.78ZM23.77,55.94c0,.09-.02.19-.03.28.27.02.54.05.81.06.08,0,.2,0,.29,0,0,.11-.01.21-.02.32-.09-.01-.2-.02-.28-.03-.27-.02-.54-.04-.81-.06-.04.49-.09.98-.13,1.47-.01.17-.12.25-.34.23-.16-.02-.35-.04-.5-.07,0-.1,0-.21,0-.31.14.04.29.06.38.07.09,0,.13-.02.14-.1.04-.44.08-.88.13-1.32-.29-.03-.57-.06-.86-.09-.1-.01-.2-.02-.29-.03.01-.11.03-.21.04-.32.09.02.18.04.28.05.29.03.57.06.86.09,0-.1.02-.19.03-.29,0-.07,0-.19,0-.24.12.01.25.02.37.03-.01.04-.04.17-.05.24ZM24.87,57.74c-.11.05-.21.09-.32.14-.12-.26-.34-.66-.49-.86.1-.04.19-.08.29-.12.16.21.39.62.51.85ZM24.68,55.53c.2.01.35.18.34.37-.01.19-.19.34-.38.32-.2-.01-.35-.18-.33-.37.01-.19.18-.33.38-.32ZM24.64,56.06c.11,0,.2-.07.2-.17,0-.1-.07-.19-.18-.2-.11,0-.19.07-.2.17,0,.1.07.19.18.2Z"/>
    <path class="cls-2" d="M25.99,56.88c.59.02,1.18.03,1.77.03.16,0,.28-.01.36-.02,0,.13,0,.26,0,.38-.07,0-.22-.01-.37-.01-.6,0-1.19,0-1.79-.03-.18,0-.38,0-.49,0,0-.13.01-.26.02-.38.11.01.31.03.48.04Z"/>
    <path class="cls-2" d="M29.13,56.18c0-.1-.02-.24-.04-.35.13,0,.26,0,.39-.01,0,.1-.01.24,0,.35,0,.16.01.32.02.48.44.11,1.07.29,1.4.42-.04.12-.08.23-.12.35-.36-.15-.9-.32-1.27-.41.01.32.03.64.04.95,0,.1.02.28.04.39-.14,0-.28.01-.41.02.01-.11.02-.28.01-.4-.02-.6-.04-1.19-.06-1.79Z"/>
    <path class="cls-2" d="M32.04,55.99c.02.34.07,1.06.11,1.48.03.33.26.42.55.38.58-.06.89-.42,1.08-.78.09.08.18.16.27.23-.18.32-.57.78-1.33.86-.51.06-.87-.11-.92-.63-.04-.44-.08-1.23-.11-1.53-.01-.13-.04-.25-.07-.35.14-.01.27-.02.41-.04,0,.12,0,.25,0,.36Z"/>
    <path class="cls-2" d="M34.36,55.66c.23-.06.78-.2,1.36-.35.33-.09.64-.17.86-.23.02.1.04.2.06.31-.17.04-.45.09-.61.17-.4.2-.61.68-.54,1.05.1.55.69.64,1.24.55-.02.12-.04.23-.06.35-.66.1-1.39-.1-1.5-.78-.08-.46.15-.88.37-1.09-.31.09-1.04.29-1.39.41-.03-.11-.06-.22-.08-.33.12-.02.23-.04.29-.06Z"/>
    <path class="cls-2" d="M37.74,55.27c.04.19.1.44.18.67.16.46.37.75.59.7.16-.04.23-.4.23-.69.11.07.22.14.33.21-.07.56-.23.79-.47.85-.33.08-.71-.14-.97-.91-.09-.26-.18-.62-.22-.8-.02-.08-.05-.2-.09-.28.13-.03.26-.05.38-.08,0,.09.02.25.04.33ZM40.3,55.95c-.1.07-.2.14-.3.21-.2-.5-.56-1.11-.98-1.38.09-.06.19-.12.28-.18.38.27.81.88.99,1.35Z"/>
    <path class="cls-2" d="M41.76,53.68s.03.09.05.16c.26-.1.52-.22.78-.36.03.09.06.18.1.27-.22.11-.5.24-.79.35.04.13.09.27.12.36.3-.12.57-.24.83-.37.03.09.06.18.09.27-.27.14-.53.25-.82.36.05.13.11.27.16.4.45-.03.83.06,1.07.13-.03.11-.06.22-.09.33-.24-.09-.54-.17-.87-.18.02.06.04.11.06.15.08.22-.03.49-.46.63-.49.16-.8.07-.89-.22-.09-.28.14-.56.61-.72.08-.03.16-.05.24-.07-.04-.11-.09-.23-.13-.34-.06.02-.11.04-.17.06-.2.07-.56.16-.78.21-.03-.09-.06-.18-.09-.28.22-.03.6-.13.79-.19.05-.02.11-.04.16-.05-.04-.12-.08-.24-.12-.36-.04.01-.08.03-.13.04-.2.07-.59.16-.8.2-.03-.09-.06-.18-.09-.27.22-.03.6-.12.8-.18.04-.01.09-.03.13-.04-.02-.07-.04-.13-.06-.18-.02-.05-.05-.14-.08-.18.11-.04.22-.07.33-.11.01.05.03.12.05.2ZM41.86,55.92c.18-.06.3-.15.24-.34-.01-.04-.03-.1-.06-.16-.1.01-.2.04-.3.07-.27.09-.39.23-.35.35.04.13.19.18.47.09Z"/>
    <path class="cls-2" d="M44.81,52.54s.03.09.06.14c.3-.13.6-.26.9-.39.04.09.08.18.11.27-.18.07-.47.19-.91.38.07.15.14.32.19.45.12.07.21.19.27.33.16.38.14.92-.54,1.43-.12-.04-.24-.09-.37-.13.35-.22.58-.47.64-.75-.05.05-.12.1-.2.13-.25.1-.6.04-.72-.29-.12-.3.06-.62.36-.75.06-.03.12-.04.18-.05-.03-.07-.07-.16-.1-.24-.46.2-.95.41-1.32.58-.04-.09-.08-.18-.11-.27.34-.14.9-.37,1.33-.56-.03-.06-.05-.11-.07-.14-.05-.09-.09-.17-.11-.2.11-.05.23-.1.34-.14,0,.04.05.18.07.22ZM44.91,54.12c.16-.07.23-.23.08-.49-.09-.07-.19-.08-.3-.04-.14.06-.24.21-.17.38.06.16.24.2.39.14Z"/>
  </g>
</svg>