<?xml version="1.0" encoding="UTF-8"?>
<svg id="_レイヤー_1" data-name="レイヤー_1" xmlns="http://www.w3.org/2000/svg" xmlns:xlink="http://www.w3.org/1999/xlink" viewBox="0 0 500 70">
  <defs>
    <style>
      .cls-1 {
        fill: url(#_名称未設定グラデーション_7);
      }

      .cls-2 {
        fill: #54c2f0;
      }

      .cls-3 {
        fill: #fff;
      }

      .cls-4 {
        fill: url(#_名称未設定グラデーション_7-3);
      }

      .cls-5 {
        fill: url(#_名称未設定グラデーション_7-2);
      }
    </style>
    <radialGradient id="_名称未設定グラデーション_7" data-name="名称未設定グラデーション 7" cx="70.49" cy="50.24" fx="70.49" fy="50.24" r="3.19" gradientUnits="userSpaceOnUse">
      <stop offset="0" stop-color="#fff"/>
      <stop offset="1" stop-color="#7871b2"/>
    </radialGradient>
    <radialGradient id="_名称未設定グラデーション_7-2" data-name="名称未設定グラデーション 7" cx="112.26" cy="32.89" fx="112.26" fy="32.89" r="2.59" xlink:href="#_名称未設定グラデーション_7"/>
    <radialGradient id="_名称未設定グラデーション_7-3" data-name="名称未設定グラデーション 7" cx="103.75" cy="20.31" fx="103.75" fy="20.31" r="1.42" xlink:href="#_名称未設定グラデーション_7"/>
  </defs>
  <g>
    <g>
      <path class="cls-3" d="M71.53,43.44c-1.1-.1-2.8-.55-3.78-1.35-.99-.8-1.4-1.63-1.44-3.12-.04-1.56-.04-14.03-.04-14.03h5.02s.03,13.73.04,14.19c0,.46.21,1.1.7,1.51.49.4,1.37.6,2.07.6,1.04,0,1.96-.2,2.45-.6.49-.4.6-.77.7-1.51.08-.66.04-14.19.04-14.19h4.07s0,12.45-.04,14.03c-.04,1.43-.45,2.3-1.44,3.11-.97.79-2.32,1.27-3.46,1.36-1.81.14-3.37.13-4.88,0Z"/>
      <path class="cls-3" d="M84.14,41.79v-16.84h12.56v2.05h-7.54v5.64h6.35v2.03h-6.35v6.62h7.54v2.05h-10.93c-1.27,0-1.63-.59-1.63-1.55Z"/>
      <g>
        <path class="cls-3" d="M99.89,42.24l.2-.11c1.19-.66,2.36-1.36,3.48-2.08h.01c-.15-.34-.24-.7-.25-1.01-.08-2.51-.07-6.83,0-9.53.03-.96.12-1.39.74-1.91.49-.41,1.33-.61,2.02-.64.7-.03.85-.04,2.28,0,1.42.04,2.3.24,2.5,1.6h2.52c-.19-2.72-1.86-3.58-5.02-3.69-3.15-.11-3.71-.05-5.04.04-1.28.09-2.59.45-3.56,1.26-.97.81-1.4,1.59-1.46,3.26-.13,4.19-.13,6.13,0,9.45.03.87.17,2.05,1.48,3.28.03.03.07.05.1.08Z"/>
        <path class="cls-3" d="M108.37,41.35c-1.4.03-1.48.03-2.28,0-.17,0-.34-.02-.52-.05l-.41.25c-.92.57-1.89,1.14-2.88,1.7.42.09.79.14,1.05.15,1.02.05,2.15.11,5.04.04,2.83-.07,4.8-.97,5.02-3.69h-2.52c-.19,1.35-1.08,1.57-2.5,1.6Z"/>
      </g>
    </g>
    <g>
      <path class="cls-2" d="M71.95,36.25c.27-.26.55-.53.84-.79,1.85-1.68,3.17-2.65,3.03-2.83-.15-.19-1.85,1.01-3.42,2.29-.15.12-.3.25-.45.37,0,.34,0,.67,0,.97Z"/>
      <path class="cls-2" d="M119.26,22.99c-1.95-4.17-10.7-4.45-21.51-1.19-1.95.59-3.18,1.02-3.12,1.18.06.16,2.39-.57,3.22-.79,8.98-2.35,16.33-1.87,18.08,1.9,2.4,5.16-6.52,14.41-19.94,20.66-13.41,6.26-26.24,7.15-28.64,1.99-.55-1.18-.51-2.58.05-4.12-.53-.43-.93-.87-1.22-1.37-1.99,2.8-2.71,5.37-1.8,7.33,2.56,5.48,16.91,4.2,32.06-2.87,15.15-7.07,25.36-17.24,22.81-22.72Z"/>
    </g>
    <g>
      <path class="cls-1" d="M75.06,50.83c0,1.7-1.38,3.09-3.09,3.09s-3.09-1.38-3.09-3.09,1.38-3.09,3.09-3.09,3.09,1.38,3.09,3.09Z"/>
      <path class="cls-5" d="M115.96,33.37c0,1.38-1.12,2.5-2.5,2.5s-2.5-1.12-2.5-2.5,1.12-2.5,2.5-2.5,2.5,1.12,2.5,2.5Z"/>
      <path class="cls-4" d="M105.78,20.57c0,.76-.62,1.37-1.37,1.37s-1.38-.61-1.38-1.37.62-1.38,1.38-1.38,1.37.62,1.37,1.38Z"/>
    </g>
  </g>
  <g>
    <path class="cls-3" d="M142.91,32.06v11.27h-2.11v-11.27h-3.97v-1.76h10.06v1.76h-3.98Z"/>
    <path class="cls-3" d="M154.48,43.33v-5.75c0-.35-.02-.68-.07-1-.05-.32-.14-.6-.27-.85-.14-.25-.33-.45-.59-.59-.25-.15-.59-.22-1.01-.22-.46,0-.83.09-1.13.27-.3.18-.54.42-.73.71-.19.29-.32.62-.4.99-.08.37-.12.74-.12,1.12v5.32h-1.95v-14.08h1.95v5.94c.3-.61.71-1.07,1.22-1.37.51-.3,1.12-.45,1.81-.45.59,0,1.08.1,1.49.28.41.19.75.45,1.01.78.27.33.46.73.58,1.19.12.46.18.97.18,1.53v6.17h-1.97Z"/>
    <path class="cls-3" d="M160.21,38.95c0,.46.07.88.21,1.27.14.39.33.73.6,1.01.26.29.58.51.96.68.38.17.8.25,1.27.25.44,0,.93-.06,1.45-.18.53-.12.99-.29,1.38-.51l.12,1.52c-.49.18-1.03.32-1.6.4-.57.09-1.13.13-1.66.13-.81,0-1.51-.12-2.1-.37-.59-.25-1.08-.6-1.47-1.06-.39-.45-.68-1-.87-1.62-.19-.63-.28-1.32-.28-2.09,0-.66.1-1.3.31-1.91.21-.61.5-1.15.88-1.61.38-.46.84-.83,1.39-1.1.55-.27,1.16-.41,1.84-.41.73,0,1.35.13,1.87.39.51.26.94.62,1.27,1.07.33.46.57.99.72,1.59.15.61.22,1.25.22,1.94v.59h-6.48ZM164.82,37.74c0-.35-.04-.71-.11-1.07-.07-.36-.19-.68-.36-.98-.17-.29-.39-.53-.67-.71-.28-.18-.63-.27-1.05-.27s-.78.1-1.08.29c-.31.2-.56.45-.76.75-.2.31-.35.63-.45.99-.1.35-.15.68-.15,1h4.63Z"/>
    <path class="cls-3" d="M184.57,38.58c0,.78-.13,1.48-.38,2.1-.25.62-.61,1.14-1.06,1.56-.45.42-1,.75-1.64.97-.64.22-1.33.33-2.09.33s-1.46-.11-2.09-.32c-.62-.22-1.16-.53-1.61-.95-.45-.42-.8-.93-1.04-1.53-.25-.61-.37-1.31-.37-2.1v-8.34h2.11v8.3c0,.47.06.9.19,1.31.12.4.31.75.56,1.04.25.29.56.52.94.68.38.16.82.24,1.33.24s.95-.08,1.33-.24c.38-.16.69-.39.95-.68.25-.29.44-.64.57-1.03.12-.4.19-.84.19-1.32v-8.3h2.11v8.28Z"/>
    <path class="cls-3" d="M193.21,43.33v-5.75c0-.34-.02-.67-.07-.99-.05-.32-.14-.61-.27-.86-.14-.25-.33-.45-.59-.59-.25-.15-.59-.22-1.01-.22-.46,0-.84.09-1.14.27-.31.18-.55.42-.73.71-.18.29-.31.62-.39.99-.08.37-.12.75-.12,1.14v5.3h-1.95v-7.52c0-.38,0-.75-.02-1.12-.01-.37-.04-.75-.08-1.12h1.84l.06,1.68c.68-1.25,1.73-1.88,3.16-1.88.6,0,1.11.09,1.53.27.42.18.76.44,1.02.77.25.33.44.73.56,1.2.12.47.18.98.18,1.54v6.17h-1.97Z"/>
    <path class="cls-3" d="M197.45,31.55v-1.89h1.95v1.89h-1.95ZM197.45,43.33v-9.77h1.95v9.77h-1.95Z"/>
    <path class="cls-3" d="M206.26,43.33h-2.42l-3.2-9.77h2.11l2.37,8.16,2.37-8.16h1.99l-3.22,9.77Z"/>
    <path class="cls-3" d="M211.86,38.95c0,.46.07.88.21,1.27.14.39.33.73.6,1.01.26.29.58.51.96.68.38.17.8.25,1.27.25.44,0,.93-.06,1.45-.18.53-.12.99-.29,1.38-.51l.12,1.52c-.49.18-1.03.32-1.6.4-.57.09-1.13.13-1.66.13-.81,0-1.51-.12-2.1-.37-.59-.25-1.08-.6-1.47-1.06-.39-.45-.68-1-.87-1.62-.19-.63-.28-1.32-.28-2.09,0-.66.1-1.3.31-1.91.21-.61.5-1.15.88-1.61.38-.46.84-.83,1.39-1.1.55-.27,1.16-.41,1.84-.41.73,0,1.35.13,1.87.39.51.26.94.62,1.27,1.07.33.46.57.99.72,1.59.15.61.22,1.25.22,1.94v.59h-6.48ZM216.47,37.74c0-.35-.04-.71-.11-1.07-.07-.36-.19-.68-.36-.98-.17-.29-.39-.53-.67-.71-.28-.18-.63-.27-1.05-.27s-.78.1-1.08.29c-.31.2-.56.45-.76.75-.2.31-.35.63-.45.99-.1.35-.15.68-.15,1h4.63Z"/>
    <path class="cls-3" d="M225.23,35.3c-.13-.05-.26-.08-.39-.1-.13-.01-.27-.02-.41-.02-.48,0-.88.11-1.19.33-.31.22-.56.51-.74.85-.18.34-.31.72-.38,1.13s-.11.8-.11,1.18v4.65h-1.95v-7.52c0-.38,0-.75-.02-1.12-.01-.37-.04-.75-.08-1.12h1.84l.06,1.88c.1-.26.24-.51.41-.76.17-.25.37-.47.6-.66.23-.2.48-.35.76-.47.28-.12.58-.18.89-.18.14,0,.28,0,.41,0,.13,0,.27.03.41.07l-.1,1.86Z"/>
    <path class="cls-3" d="M232.93,40.58c0,.51-.11.95-.33,1.33-.22.38-.51.69-.86.93-.35.24-.75.42-1.2.54-.45.12-.9.18-1.36.18-.51,0-1.01-.04-1.51-.11s-.99-.19-1.47-.36l.12-1.56c.42.22.86.38,1.33.49.47.11.93.16,1.39.16.53,0,1-.12,1.39-.35.39-.23.59-.6.59-1.11,0-.36-.12-.66-.35-.89-.23-.23-.53-.43-.89-.6-.36-.17-.75-.33-1.16-.47-.42-.14-.8-.32-1.16-.54-.36-.22-.65-.48-.89-.81-.23-.32-.35-.74-.35-1.25s.11-.94.34-1.29c.23-.35.52-.64.87-.86.35-.22.75-.38,1.18-.48.44-.1.87-.15,1.3-.15s.89.04,1.34.11.88.18,1.3.32l-.12,1.43c-.35-.14-.74-.26-1.16-.34-.42-.09-.82-.13-1.2-.13-.22,0-.44.02-.66.06-.22.04-.43.11-.62.21-.19.1-.34.23-.46.4-.12.17-.18.39-.18.66s.12.52.35.69c.23.18.53.34.89.49.36.15.75.3,1.16.46.42.16.8.35,1.16.6.36.24.66.54.89.9.23.36.35.81.35,1.36Z"/>
    <path class="cls-3" d="M234.55,31.55v-1.89h1.95v1.89h-1.95ZM234.55,43.33v-9.77h1.95v9.77h-1.95Z"/>
    <path class="cls-3" d="M243.94,43.21c-.3.11-.61.19-.94.24-.32.06-.64.09-.94.09-.52,0-.94-.09-1.27-.25-.33-.17-.58-.4-.75-.7-.18-.3-.3-.66-.36-1.07-.07-.41-.1-.85-.1-1.32v-5.23h-1.8v-1.41h1.8v-2.11l1.97-.64v2.75h2.19v1.41h-2.19v5.47c0,.21.02.41.05.6.03.19.1.35.19.5.09.14.22.26.37.34.16.08.36.13.6.13.36,0,.72-.08,1.08-.23l.1,1.44Z"/>
    <path class="cls-3" d="M249.68,44.78c-.12.36-.26.73-.43,1.08-.17.36-.38.68-.63.96-.25.28-.54.51-.88.68-.34.18-.74.26-1.21.26-.3,0-.56-.02-.77-.05-.21-.03-.46-.08-.75-.15l.12-1.5c.16.05.32.1.48.14.16.04.33.06.5.06.25,0,.47-.07.66-.22.2-.15.36-.33.51-.54.14-.21.26-.43.36-.65.1-.23.17-.43.22-.6l.2-.61-3.46-10.08h2.11l2.4,8.03,2.34-8.03h1.99l-3.77,11.21Z"/>
    <path class="cls-3" d="M269.45,38.41c0,.74-.11,1.43-.31,2.05-.21.63-.52,1.17-.93,1.63-.41.46-.91.82-1.51,1.07-.6.25-1.28.38-2.05.38s-1.47-.13-2.07-.38c-.6-.25-1.1-.61-1.5-1.07-.4-.46-.71-1.01-.92-1.63-.21-.63-.31-1.31-.31-2.05s.11-1.42.34-2.04c.23-.62.55-1.15.97-1.59.42-.44.92-.79,1.51-1.04.59-.25,1.25-.37,1.98-.37.77,0,1.45.12,2.05.36.6.24,1.1.58,1.51,1.02.41.44.72.97.93,1.59.21.63.31,1.32.31,2.07ZM267.34,38.41c0-.43-.05-.86-.14-1.29-.09-.43-.24-.81-.46-1.15-.22-.34-.49-.61-.83-.82-.34-.21-.76-.31-1.27-.31s-.91.11-1.25.31c-.34.21-.62.49-.83.83-.22.34-.37.73-.47,1.15-.1.42-.15.85-.15,1.28s.05.88.15,1.32c.1.44.25.83.47,1.17.21.34.49.62.83.84.34.22.76.32,1.25.32s.89-.11,1.24-.32c.34-.22.63-.49.84-.83.22-.34.37-.73.47-1.16.1-.44.15-.88.15-1.34Z"/>
    <path class="cls-3" d="M276.24,30.67c-.3-.12-.62-.18-.96-.18s-.6.07-.78.22c-.18.14-.32.32-.4.53-.09.21-.14.42-.16.63-.02.22-.03.39-.03.52v1.17h2.15v1.41h-2.13v8.36h-1.99v-8.36h-1.86v-1.41h1.86v-1.13c0-.4.04-.8.11-1.2.07-.4.21-.76.41-1.08.2-.32.49-.59.87-.79.38-.2.87-.3,1.48-.3.25,0,.51.01.79.04.28.03.53.09.75.18l-.12,1.41Z"/>
    <path class="cls-3" d="M283.35,43.33v-13.03h7.5v1.58h-5.39v4.02h5.14v1.54h-5.14v4.3h5.59v1.58h-7.7Z"/>
    <path class="cls-3" d="M292.82,43.33v-14.08h1.95v14.08h-1.95Z"/>
    <path class="cls-3" d="M298.58,38.95c0,.46.07.88.21,1.27.14.39.33.73.6,1.01.26.29.58.51.96.68.38.17.8.25,1.27.25.44,0,.93-.06,1.45-.18.53-.12.99-.29,1.38-.51l.12,1.52c-.49.18-1.03.32-1.6.4-.57.09-1.13.13-1.66.13-.81,0-1.51-.12-2.1-.37-.59-.25-1.08-.6-1.47-1.06-.39-.45-.68-1-.87-1.62-.19-.63-.28-1.32-.28-2.09,0-.66.1-1.3.31-1.91.21-.61.5-1.15.88-1.61.38-.46.84-.83,1.39-1.1.55-.27,1.16-.41,1.84-.41.73,0,1.35.13,1.87.39.51.26.94.62,1.27,1.07.33.46.57.99.72,1.59.15.61.22,1.25.22,1.94v.59h-6.48ZM303.19,37.74c0-.35-.04-.71-.11-1.07-.07-.36-.19-.68-.36-.98s-.39-.53-.67-.71c-.28-.18-.63-.27-1.05-.27s-.78.1-1.08.29c-.31.2-.56.45-.76.75-.2.31-.35.63-.45.99-.1.35-.15.68-.15,1h4.63Z"/>
    <path class="cls-3" d="M313.83,43.15c-.43.14-.87.24-1.31.3-.44.06-.89.09-1.35.09-.77,0-1.46-.13-2.07-.38-.61-.25-1.13-.61-1.54-1.07-.42-.45-.74-1-.96-1.63-.22-.63-.33-1.32-.33-2.06s.12-1.44.35-2.06c.23-.62.57-1.15,1-1.59.44-.44.96-.78,1.58-1.03.62-.24,1.31-.36,2.06-.36.88,0,1.74.14,2.56.41l-.12,1.56c-.31-.14-.64-.26-.99-.36-.34-.1-.69-.15-1.05-.15-.53,0-1,.09-1.42.27-.41.18-.76.43-1.04.75-.28.32-.49.7-.63,1.13-.14.44-.22.91-.22,1.42s.07.96.21,1.4c.14.44.34.82.62,1.16.27.34.61.61,1.01.8.4.2.87.29,1.39.29.74,0,1.45-.15,2.13-.45l.1,1.54Z"/>
    <path class="cls-3" d="M320.91,43.21c-.3.11-.61.19-.94.24-.33.06-.64.09-.94.09-.52,0-.94-.09-1.27-.25-.33-.17-.58-.4-.75-.7-.18-.3-.3-.66-.36-1.07-.07-.41-.1-.85-.1-1.32v-5.23h-1.8v-1.41h1.8v-2.11l1.97-.64v2.75h2.19v1.41h-2.19v5.47c0,.21.02.41.05.6.03.19.1.35.19.5.09.14.22.26.37.34.16.08.36.13.6.13.36,0,.72-.08,1.08-.23l.1,1.44Z"/>
    <path class="cls-3" d="M327.42,35.3c-.13-.05-.26-.08-.39-.1-.13-.01-.27-.02-.41-.02-.48,0-.88.11-1.19.33-.31.22-.56.51-.74.85-.18.34-.31.72-.38,1.13s-.11.8-.11,1.18v4.65h-1.95v-7.52c0-.38,0-.75-.02-1.12-.01-.37-.04-.75-.08-1.12h1.84l.06,1.88c.1-.26.24-.51.41-.76.17-.25.37-.47.6-.66.23-.2.48-.35.76-.47.28-.12.58-.18.89-.18.14,0,.28,0,.41,0,.13,0,.27.03.41.07l-.1,1.86Z"/>
    <path class="cls-3" d="M337.69,38.41c0,.74-.11,1.43-.31,2.05-.21.63-.52,1.17-.93,1.63-.41.46-.91.82-1.51,1.07-.6.25-1.28.38-2.05.38s-1.47-.13-2.07-.38c-.6-.25-1.1-.61-1.5-1.07-.4-.46-.71-1.01-.92-1.63-.21-.63-.31-1.31-.31-2.05s.11-1.42.34-2.04c.23-.62.55-1.15.97-1.59.42-.44.92-.79,1.51-1.04.59-.25,1.25-.37,1.98-.37.77,0,1.45.12,2.05.36.6.24,1.1.58,1.51,1.02.41.44.72.97.93,1.59.21.63.31,1.32.31,2.07ZM335.58,38.41c0-.43-.05-.86-.14-1.29-.09-.43-.24-.81-.46-1.15s-.49-.61-.83-.82c-.34-.21-.76-.31-1.27-.31s-.91.11-1.25.31c-.34.21-.62.49-.83.83-.22.34-.37.73-.47,1.15-.1.42-.15.85-.15,1.28s.05.88.15,1.32c.1.44.25.83.47,1.17.21.34.49.62.83.84s.76.32,1.25.32.89-.11,1.24-.32.63-.49.84-.83c.22-.34.37-.73.47-1.16.1-.44.15-.88.15-1.34Z"/>
    <path class="cls-3" d="M339.24,38.08v-1.6h4.8v1.6h-4.8Z"/>
    <path class="cls-3" d="M356,42.98c-.46.21-.97.35-1.55.44-.58.09-1.12.13-1.63.13-1.04,0-1.99-.15-2.83-.46-.85-.31-1.57-.75-2.17-1.33-.6-.58-1.07-1.29-1.4-2.12-.33-.83-.5-1.77-.5-2.81s.17-1.9.52-2.72c.34-.83.82-1.54,1.44-2.13.61-.59,1.34-1.05,2.18-1.38.84-.32,1.76-.49,2.76-.49.49,0,1.03.04,1.6.12.57.08,1.09.2,1.54.37l-.12,1.72c-.4-.18-.86-.32-1.36-.41-.5-.09-.98-.14-1.44-.14-.77,0-1.46.13-2.06.38-.6.25-1.12.61-1.53,1.06-.42.45-.74.98-.97,1.6-.23.62-.34,1.29-.34,2.02s.11,1.44.32,2.06c.22.62.53,1.15.95,1.59.42.44.92.79,1.52,1.03.6.25,1.29.37,2.07.37.49,0,.99-.04,1.47-.13.49-.08.95-.23,1.4-.44l.12,1.66Z"/>
    <path class="cls-3" d="M366.54,38.41c0,.74-.11,1.43-.31,2.05-.21.63-.52,1.17-.93,1.63-.41.46-.91.82-1.51,1.07-.6.25-1.28.38-2.05.38s-1.47-.13-2.07-.38c-.6-.25-1.1-.61-1.5-1.07-.4-.46-.71-1.01-.92-1.63-.21-.63-.31-1.31-.31-2.05s.11-1.42.34-2.04c.23-.62.55-1.15.97-1.59.42-.44.92-.79,1.51-1.04.59-.25,1.25-.37,1.98-.37.77,0,1.45.12,2.05.36.6.24,1.1.58,1.51,1.02.41.44.72.97.93,1.59.21.63.31,1.32.31,2.07ZM364.43,38.41c0-.43-.05-.86-.14-1.29-.09-.43-.24-.81-.46-1.15-.22-.34-.49-.61-.83-.82-.34-.21-.76-.31-1.27-.31s-.91.11-1.25.31c-.34.21-.62.49-.83.83-.22.34-.37.73-.47,1.15-.1.42-.15.85-.15,1.28s.05.88.15,1.32c.1.44.25.83.47,1.17.21.34.49.62.83.84s.76.32,1.25.32.89-.11,1.24-.32c.34-.22.63-.49.84-.83.22-.34.37-.73.47-1.16.1-.44.15-.88.15-1.34Z"/>
    <path class="cls-3" d="M380.04,43.33v-6.26c0-.3-.03-.58-.08-.84-.05-.26-.14-.49-.27-.68-.13-.2-.31-.35-.54-.47-.23-.12-.51-.18-.85-.18-.4,0-.74.09-1.02.27-.27.18-.49.42-.66.71-.17.29-.29.62-.37.99-.08.37-.12.74-.12,1.12v5.32h-1.95v-6.26c0-.3-.03-.58-.08-.84-.05-.26-.14-.49-.27-.68-.13-.2-.31-.35-.54-.47-.23-.12-.51-.18-.85-.18-.4,0-.74.09-1.01.27-.27.18-.5.42-.67.71-.18.29-.3.62-.38.99-.08.37-.12.74-.12,1.12v5.32h-1.95v-7.52c0-.38,0-.75-.02-1.12-.01-.37-.04-.75-.08-1.12h1.84l.06,1.68c.64-1.25,1.63-1.88,2.99-1.88.39,0,.74.05,1.05.16.31.11.59.25.84.43.25.18.45.39.6.64.16.24.27.5.35.77.12-.3.28-.57.49-.82.21-.25.45-.46.71-.63.27-.18.55-.31.86-.4.31-.09.62-.14.93-.14.53,0,.99.09,1.38.25.38.17.7.41.96.71.25.31.44.67.57,1.09.12.42.19.89.19,1.4v6.5h-1.97Z"/>
    <path class="cls-3" d="M396,43.33v-6.26c0-.3-.03-.58-.08-.84-.05-.26-.14-.49-.27-.68-.13-.2-.31-.35-.54-.47-.23-.12-.51-.18-.85-.18-.4,0-.74.09-1.02.27-.27.18-.49.42-.66.71-.17.29-.29.62-.37.99-.08.37-.12.74-.12,1.12v5.32h-1.95v-6.26c0-.3-.03-.58-.08-.84-.05-.26-.14-.49-.27-.68-.13-.2-.31-.35-.54-.47-.23-.12-.51-.18-.85-.18-.4,0-.74.09-1.01.27-.27.18-.5.42-.67.71-.18.29-.3.62-.38.99-.08.37-.12.74-.12,1.12v5.32h-1.95v-7.52c0-.38,0-.75-.02-1.12-.01-.37-.04-.75-.08-1.12h1.84l.06,1.68c.64-1.25,1.63-1.88,2.99-1.88.39,0,.74.05,1.05.16.31.11.59.25.84.43.25.18.45.39.6.64.16.24.27.5.35.77.12-.3.28-.57.49-.82.21-.25.45-.46.71-.63.27-.18.55-.31.86-.4.31-.09.62-.14.93-.14.53,0,.99.09,1.38.25.38.17.7.41.96.71.25.31.44.67.57,1.09.12.42.19.89.19,1.4v6.5h-1.97Z"/>
    <path class="cls-3" d="M406.63,43.33l-.06-1.66c-.68,1.25-1.73,1.88-3.14,1.88-.61,0-1.12-.1-1.53-.28-.41-.19-.75-.45-1.01-.79-.26-.34-.45-.74-.56-1.21-.11-.47-.17-.98-.17-1.54v-6.15h1.95v5.74c0,.34.02.67.07,1,.05.33.14.61.27.87.14.25.33.46.59.61.25.15.59.22,1.01.22.46,0,.83-.09,1.13-.27.3-.18.54-.42.72-.71.18-.29.31-.62.39-.99.08-.37.12-.75.12-1.14v-5.31h1.95v7.52c0,.38,0,.75.02,1.12.01.37.04.75.08,1.12h-1.84Z"/>
    <path class="cls-3" d="M416.94,43.33v-5.75c0-.34-.02-.67-.07-.99-.05-.32-.14-.61-.27-.86-.14-.25-.33-.45-.59-.59-.25-.15-.59-.22-1.01-.22-.46,0-.84.09-1.14.27-.31.18-.55.42-.73.71-.18.29-.31.62-.39.99-.08.37-.12.75-.12,1.14v5.3h-1.95v-7.52c0-.38,0-.75-.02-1.12-.01-.37-.04-.75-.08-1.12h1.84l.06,1.68c.68-1.25,1.73-1.88,3.16-1.88.6,0,1.11.09,1.53.27.42.18.76.44,1.02.77.25.33.44.73.56,1.2.12.47.18.98.18,1.54v6.17h-1.97Z"/>
    <path class="cls-3" d="M421.18,31.55v-1.89h1.95v1.89h-1.95ZM421.18,43.33v-9.77h1.95v9.77h-1.95Z"/>
    <path class="cls-3" d="M432.46,43.15c-.43.14-.87.24-1.31.3-.44.06-.89.09-1.35.09-.77,0-1.46-.13-2.07-.38-.61-.25-1.13-.61-1.54-1.07-.42-.45-.74-1-.96-1.63-.22-.63-.33-1.32-.33-2.06s.12-1.44.35-2.06c.23-.62.57-1.15,1-1.59.44-.44.96-.78,1.58-1.03.62-.24,1.31-.36,2.06-.36.88,0,1.74.14,2.56.41l-.12,1.56c-.31-.14-.64-.26-.99-.36-.34-.1-.69-.15-1.05-.15-.53,0-1,.09-1.42.27-.41.18-.76.43-1.04.75-.28.32-.49.7-.63,1.13-.14.44-.22.91-.22,1.42s.07.96.21,1.4c.14.44.34.82.62,1.16.27.34.61.61,1.01.8.4.2.87.29,1.39.29.74,0,1.45-.15,2.13-.45l.1,1.54Z"/>
    <path class="cls-3" d="M439.85,43.33l-.06-1.54c-.3.55-.73.98-1.29,1.29-.56.31-1.15.47-1.78.47-.44,0-.86-.06-1.25-.17-.39-.11-.73-.28-1.02-.51-.29-.23-.53-.52-.7-.87-.18-.35-.26-.77-.26-1.25,0-.64.14-1.17.42-1.61.28-.44.66-.79,1.14-1.06.48-.27,1.04-.46,1.69-.58.64-.12,1.32-.18,2.04-.18h.47c.18,0,.34,0,.49.02v-.41c0-.72-.18-1.26-.54-1.64-.36-.38-.92-.57-1.69-.57-.5,0-.99.06-1.47.19-.49.12-.95.32-1.4.6l-.12-1.5c.46-.18.97-.34,1.55-.46.58-.12,1.12-.19,1.61-.19,1.26,0,2.24.29,2.93.87.69.58,1.04,1.53,1.04,2.84v4.08c0,.42,0,.8.03,1.14.02.35.05.69.09,1.03h-1.91ZM439.73,38.55h-.31c-.39,0-.82.02-1.29.05-.47.03-.9.12-1.31.26-.4.14-.74.36-1.01.64-.27.28-.4.66-.4,1.14,0,.53.18.92.55,1.17.36.25.79.37,1.27.37s.86-.09,1.18-.25c.32-.17.58-.4.77-.68.2-.29.33-.62.42-.99.08-.37.13-.77.13-1.18v-.53Z"/>
    <path class="cls-3" d="M448.93,43.21c-.3.11-.61.19-.94.24-.33.06-.64.09-.94.09-.52,0-.94-.09-1.27-.25-.33-.17-.58-.4-.75-.7-.18-.3-.3-.66-.36-1.07-.07-.41-.1-.85-.1-1.32v-5.23h-1.8v-1.41h1.8v-2.11l1.97-.64v2.75h2.19v1.41h-2.19v5.47c0,.21.02.41.05.6.03.19.1.35.19.5.09.14.22.26.37.34.16.08.36.13.6.13.36,0,.72-.08,1.08-.23l.1,1.44Z"/>
    <path class="cls-3" d="M450.26,31.55v-1.89h1.95v1.89h-1.95ZM450.26,43.33v-9.77h1.95v9.77h-1.95Z"/>
    <path class="cls-3" d="M463.59,38.41c0,.74-.11,1.43-.31,2.05-.21.63-.52,1.17-.93,1.63-.41.46-.91.82-1.51,1.07-.6.25-1.28.38-2.05.38s-1.47-.13-2.07-.38c-.6-.25-1.1-.61-1.5-1.07-.4-.46-.71-1.01-.92-1.63-.21-.63-.31-1.31-.31-2.05s.11-1.42.34-2.04c.23-.62.55-1.15.97-1.59.42-.44.92-.79,1.51-1.04.59-.25,1.25-.37,1.98-.37.77,0,1.45.12,2.05.36.6.24,1.1.58,1.51,1.02.41.44.72.97.93,1.59.21.63.31,1.32.31,2.07ZM461.48,38.41c0-.43-.05-.86-.14-1.29-.09-.43-.24-.81-.46-1.15s-.49-.61-.83-.82c-.34-.21-.76-.31-1.27-.31s-.91.11-1.25.31c-.34.21-.62.49-.83.83-.22.34-.37.73-.47,1.15-.1.42-.15.85-.15,1.28s.05.88.15,1.32c.1.44.25.83.47,1.17.21.34.49.62.83.84.34.22.76.32,1.25.32s.89-.11,1.24-.32c.34-.22.63-.49.84-.83.22-.34.37-.73.47-1.16.1-.44.15-.88.15-1.34Z"/>
    <path class="cls-3" d="M471.62,43.33v-5.75c0-.34-.02-.67-.07-.99-.05-.32-.14-.61-.27-.86-.14-.25-.33-.45-.59-.59-.25-.15-.59-.22-1.01-.22-.46,0-.84.09-1.14.27-.31.18-.55.42-.73.71-.18.29-.31.62-.39.99-.08.37-.12.75-.12,1.14v5.3h-1.95v-7.52c0-.38,0-.75-.02-1.12-.01-.37-.04-.75-.08-1.12h1.84l.06,1.68c.68-1.25,1.73-1.88,3.16-1.88.6,0,1.11.09,1.53.27.42.18.76.44,1.02.77.25.33.44.73.56,1.2.12.47.18.98.18,1.54v6.17h-1.97Z"/>
    <path class="cls-3" d="M482,40.58c0,.51-.11.95-.33,1.33-.22.38-.51.69-.86.93-.35.24-.75.42-1.2.54-.45.12-.9.18-1.36.18-.51,0-1.01-.04-1.51-.11s-.99-.19-1.47-.36l.12-1.56c.42.22.86.38,1.33.49.47.11.93.16,1.39.16.53,0,1-.12,1.39-.35.39-.23.59-.6.59-1.11,0-.36-.12-.66-.35-.89-.23-.23-.53-.43-.89-.6-.36-.17-.75-.33-1.16-.47-.42-.14-.8-.32-1.16-.54-.36-.22-.65-.48-.89-.81-.23-.32-.35-.74-.35-1.25s.11-.94.34-1.29c.23-.35.52-.64.87-.86.35-.22.75-.38,1.18-.48.44-.1.87-.15,1.3-.15s.89.04,1.34.11.88.18,1.3.32l-.12,1.43c-.35-.14-.74-.26-1.16-.34-.42-.09-.82-.13-1.2-.13-.22,0-.44.02-.66.06-.22.04-.43.11-.62.21-.19.1-.34.23-.46.4-.12.17-.18.39-.18.66s.12.52.35.69c.23.18.53.34.89.49.36.15.75.3,1.16.46.42.16.8.35,1.16.6.36.24.66.54.89.9.23.36.35.81.35,1.36Z"/>
  </g>
  <rect class="cls-3" x="127.52" y="16.08" width=".43" height="35.73"/>
</svg>