<?xml version="1.0" encoding="UTF-8"?>
<svg id="_レイヤー_1" data-name="レイヤー_1" xmlns="http://www.w3.org/2000/svg" xmlns:xlink="http://www.w3.org/1999/xlink" viewBox="0 0 400 100">
  <defs>
    <style>
      .cls-1 {
        fill: none;
      }

      .cls-2 {
        fill: #00aedc;
      }

      .cls-3 {
        fill: url(#_名称未設定グラデーション_7);
      }

      .cls-4 {
        fill: #fff;
      }

      .cls-5 {
        fill: url(#_名称未設定グラデーション_7-3);
      }

      .cls-6 {
        fill: url(#_名称未設定グラデーション_7-2);
      }
    </style>
    <radialGradient id="_名称未設定グラデーション_7" data-name="名称未設定グラデーション 7" cx="77.71" cy="72.78" fx="77.71" fy="72.78" r="4.74" gradientUnits="userSpaceOnUse">
      <stop offset="0" stop-color="#fff"/>
      <stop offset="1" stop-color="#7871b2"/>
    </radialGradient>
    <radialGradient id="_名称未設定グラデーション_7-2" data-name="名称未設定グラデーション 7" cx="139.66" cy="47.05" fx="139.66" fy="47.05" r="3.84" xlink:href="#_名称未設定グラデーション_7"/>
    <radialGradient id="_名称未設定グラデーション_7-3" data-name="名称未設定グラデーション 7" cx="127.03" cy="28.39" fx="127.03" fy="28.39" r="2.11" xlink:href="#_名称未設定グラデーション_7"/>
  </defs>
  <rect class="cls-1" width="400" height="100"/>
  <g>
    <g>
      <path class="cls-4" d="M79.26,62.69c-1.64-.14-4.15-.81-5.61-2-1.46-1.19-2.08-2.42-2.13-4.62-.06-2.31-.06-20.81-.06-20.81h7.44s.05,20.36.06,21.05c.01.68.3,1.64,1.03,2.23.73.6,2.03.89,3.07.89,1.54,0,2.9-.3,3.63-.89.73-.6.89-1.14,1.03-2.23.12-.98.06-21.05.06-21.05h6.04s0,18.47-.06,20.81c-.05,2.12-.67,3.41-2.13,4.61-1.44,1.18-3.44,1.88-5.13,2.02-2.68.21-5,.2-7.24,0Z"/>
      <path class="cls-4" d="M97.96,60.24v-24.98h18.63v3.04h-11.18v8.37h9.42v3.01h-9.42v9.82h11.18v3.04h-16.21c-1.88,0-2.42-.88-2.42-2.3Z"/>
      <g>
        <path class="cls-4" d="M121.31,60.9l.3-.16c1.76-.98,3.5-2.01,5.16-3.08h.02c-.23-.5-.36-1.04-.37-1.5-.12-3.72-.1-10.13,0-14.14.04-1.43.18-2.06,1.1-2.84.72-.6,1.97-.9,3-.95,1.04-.05,1.26-.06,3.38,0,2.11.06,3.41.36,3.7,2.37h3.74c-.28-4.03-2.76-5.31-7.44-5.47-4.67-.16-5.5-.08-7.48.06-1.9.13-3.85.66-5.28,1.86-1.44,1.2-2.08,2.36-2.16,4.84-.19,6.21-.19,9.09,0,14.02.05,1.29.26,3.05,2.19,4.87.04.04.1.07.15.11Z"/>
        <path class="cls-4" d="M133.89,59.59c-2.08.04-2.2.04-3.38,0-.25,0-.51-.04-.77-.07l-.6.38c-1.37.85-2.81,1.7-4.27,2.52.62.13,1.18.2,1.55.22,1.51.07,3.19.16,7.48.06,4.2-.1,7.12-1.44,7.44-5.47h-3.74c-.28,2.01-1.61,2.32-3.7,2.37Z"/>
      </g>
    </g>
    <g>
      <path class="cls-2" d="M79.88,52.02c.4-.39.82-.78,1.25-1.17,2.74-2.49,4.71-3.93,4.49-4.2-.23-.28-2.75,1.5-5.08,3.39-.23.18-.45.37-.67.55,0,.51,0,.99,0,1.44Z"/>
      <path class="cls-2" d="M150.05,32.36c-2.89-6.19-15.88-6.61-31.9-1.76-2.89.87-4.71,1.51-4.62,1.74.09.23,3.55-.84,4.78-1.17,13.31-3.49,24.22-2.77,26.82,2.81,3.57,7.65-9.67,21.36-29.57,30.64-19.9,9.28-38.92,10.6-42.48,2.95-.82-1.75-.75-3.83.07-6.1-.79-.64-1.38-1.29-1.81-2.04-2.95,4.16-4.02,7.96-2.67,10.87,3.79,8.13,25.08,6.23,47.55-4.25,22.47-10.48,37.62-25.57,33.83-33.7Z"/>
    </g>
    <g>
      <path class="cls-3" d="M84.49,73.65c0,2.53-2.05,4.58-4.58,4.58s-4.58-2.05-4.58-4.58,2.05-4.58,4.58-4.58,4.58,2.05,4.58,4.58Z"/>
      <path class="cls-6" d="M145.14,47.75c0,2.05-1.66,3.71-3.71,3.71s-3.71-1.66-3.71-3.71,1.66-3.71,3.71-3.71,3.71,1.66,3.71,3.71Z"/>
      <path class="cls-5" d="M130.05,28.77c0,1.13-.91,2.04-2.04,2.04s-2.04-.91-2.04-2.04.91-2.04,2.04-2.04,2.04.91,2.04,2.04Z"/>
    </g>
  </g>
  <rect class="cls-4" x="162.47" y="22.11" width=".51" height="53"/>
  <g>
    <path class="cls-4" d="M352.88,36.75s-.2.32-.66.82c-1.39,1.53-3.06,2.69-4.27,3.23l-1.37-.87c1.41-2.02,1.84-3.03,2.65-4.87l3.64,1.7M340.52,40.86c-.05-.16-.84-2.62-2.24-4.98l1.31-.84c1.27.73,2.91,2.3,4.06,4.08l-2.92,1.74h14.73v6.15h-3.26v-4.75h-20.84v4.84h-3.2v-6.24h5.37c-.14-.19-1.49-2.71-3.18-4.82l1.15-.96c1.66.55,3.89,2.49,5.16,4.01l-2.49,1.77h6.34ZM356.08,51.93v1.4h-12.73v5.84c0,1.83-.31,2.83-3.16,2.83h-4.9v-1.38h2.85c1.68,0,1.86-.08,1.86-1.42v-5.87h-12.52v-1.4h12.52v-1.71h2.88l2.92-3.6h-13.25v-1.38h18.22v1.38c-.66.53-2.38,1.83-3.7,2.67-1.23.81-3.47,2.24-3.73,2.42v.21h12.73ZM312.72,35.22v6.81h12.64v1.4h-12.57c.52,6.61,4.22,14.15,12.89,17.7l-1.19,1.43c-9.86-3.91-12.42-9.61-13.37-11.91-2.99,6.12-7.28,9.31-13.48,11.92l-1.09-1.31c5.4-2.79,11.93-7.76,12.73-17.83h-12.3v-1.4h12.35v-6.81h3.39ZM208.48,46.63v1.36h17.9l-.03.03v11.79c0,2.78,1.86,2.78,3.28,2.78h4.25v-1.36h-2.83c-1.33,0-1.58-.22-1.58-1.55v-13.06s-21,0-21,0ZM289.76,61.21v-6.54h-10.28v6.54h10.28ZM292.48,36.14v1.39h-15.48v-1.39h15.48ZM293.01,48.74v1.39h-16.55v-1.39h16.55ZM293.01,44.52v1.4h-16.55v-1.4h16.55ZM279.49,62.61h-3.15v-9.32h16.58v9.32h-13.43ZM294.47,40.36v1.39h-19.4v-1.39h19.4ZM272.77,62.59h-3.21v-16.2c-1.15,1.39-1.89,2.2-2.64,2.97l-1.23-.99c4.57-5.42,5.88-11.48,6.38-13.15h4.02s-.71,1.59-.9,2.01c-.47,1.02-1.18,2.51-2.41,4.58v20.78ZM255.06,48.18v3.19h4.27v-3.19h-4.27ZM255.06,43.6v3.19h4.27v-3.19h-4.27ZM252.12,51.37v-3.19h-4.25v3.19h4.25ZM252.12,46.79v-3.19h-4.25v3.19h4.25ZM255.06,58.89h-2.93v-6.13h-4.25v6.32h-2.93v-16.88h8.36c-.32-.28-2.33-1.94-4.06-3.19l.96-1.24c.71.37,1.54.8,2.84,1.55,1.86-1.3,2.69-2.07,3.31-2.72h-12.17v-1.39h16.97v1.39c-2.04,1.33-4.14,2.69-6.31,3.8.99.62,1.09.71,1.39.9l-.96.9h7.06v14.3c0,2.17-1.27,2.6-3,2.6h-2.4v-1.39c.46,0,.87,0,1.17,0,1.25-.03,1.23-.21,1.23-1.08v-3.87h-4.28v6.13ZM240.49,43.84c-.38-.93-1.93-4.74-4.41-7.68l1.13-.93c2.96,2.45,5.41,5.54,6.03,6.31l-2.75,2.29ZM242.43,47.59v9.38c.4,2.66,1.68,4.26,7.14,4.25h14.51v1.39h-15.18c-4.65,0-6.47-.69-7.99-3.35-.94.93-4.13,3.4-4.13,3.4l-1.14-2.19,3.69-2.17v-9.31h-3.26v-1.39h6.35ZM230.48,43.41v-1.39h-19.31v1.39h19.31ZM218.97,49.02c-.35,1.28-1.23,3.62-2.6,5.6-2.04-1.27-3.78-2.23-5.44-3.16l-.84,1.24c2.14,1.33,3.84,2.66,4.99,3.65-2.96,3.28-6.55,4.43-8.56,5.11l.86,1.14c4.21-1.2,7.33-2.64,9.57-4.62.4.4,2.2,2.04,4.09,4.55l2.41-2.44c-.9-.84-2.41-2.23-4.73-3.9,1.66-2.01,2.61-3.79,3.22-4.79.25-.45.37-.82.37-.82l-3.32-1.56ZM213.75,37.96c.56-.83.01-.03.28-.47.24-.39.88-2.27.88-2.27h-3.85c-1.61,6.14-5.2,9.18-5.91,9.86l1.3.93c2.24-1.58,4.53-4.55,6.23-6.69h20.18v-1.36h-19.12ZM197.73,45.52v1.36h-6.16v-1.36h6.16ZM197.73,42.04v1.39h-6.16v-1.39h6.16ZM189.74,54.5v3.1h6.66v-3.1h-6.66ZM189.74,50.13v2.98h6.66v-2.98h-6.66ZM186.62,57.61v-3.1h-6.68v3.1h6.68ZM186.62,53.11v-2.98h-6.68v2.98h6.68ZM185.26,45.52v1.36h-6v-1.36h6ZM185.26,42.04v1.39h-6v-1.39h6ZM201.96,62.6h-12.06c-1.42,0-3.28,0-3.28-2.78v-.82h-9.75v-10.26h22.69v10.26h-9.82v.69c0,1.33.25,1.55,1.58,1.55h10.64v1.36ZM190.05,38.82h11.95v7.02h-3.07v-5.66h-8.88v7.5h-3.16v-7.5h-8.97v5.66h-3v-7.02h11.98v-2.24h-9.35v-1.36h21.85v1.36h-9.35v2.24Z"/>
    <path class="cls-4" d="M212.23,22.61s-.08.1-.21.26c-.44.49-.98.87-1.37,1.03l-.44-.28c.45-.65.59-.97.85-1.56l1.17.54M208.27,23.92s-.27-.84-.72-1.6l.42-.27c.41.24.93.74,1.3,1.31l-.94.56h4.72v1.97h-1.05v-1.52h-6.67v1.55h-1.03v-2h1.73c-.04-.06-.48-.87-1.01-1.54l.37-.31c.54.18,1.25.8,1.65,1.29l-.8.57h2.04ZM213.25,27.47v.45h-4.08v1.87c0,.59-.1.91-1.01.91h-1.58v-.44h.92c.53,0,.59-.03.59-.45v-1.88h-4.01v-.45h4.01v-.55h.93l.94-1.15h-4.25v-.44h5.85v.44c-.22.17-.77.59-1.19.86-.39.26-1.11.71-1.19.78v.07h4.08ZM199.42,22.11v2.15h4.01v.44h-3.98c.16,2.09,1.33,4.48,4.07,5.6l-.37.45c-3.13-1.24-3.93-3.04-4.23-3.77-.94,1.93-2.3,2.94-4.26,3.77l-.35-.41c1.71-.88,3.77-2.46,4.03-5.64h-3.89v-.44h3.9v-2.15h1.07ZM228.62,22.11v2.57c0,.25.04,2.16,1.3,3.74.93,1.17,2,1.59,2.73,1.88l-.26.44c-2.66-.9-3.62-2.19-4.25-3.63-.8,1.64-1.99,2.83-4.27,3.63l-.36-.39c.56-.23,1.62-.66,2.54-1.7.91-1.01,1.49-2.05,1.49-4.42v-2.12h1.08ZM219.97,22.11v1.71h2.51v.44h-2.51v1.7h2.85v.44h-3.32c-.62,1.12-1.44,2.41-2.22,3.43,1.7-.17,2.82-.5,4.01-.68-.11-.23-.47-.89-1.1-1.72l.39-.26c.85.75,1.92,2.23,2.35,2.98l-.91.59c-.11-.3-.25-.64-.53-1.2-1.5.31-3.2.85-5.41,1.2l-.33-.82c.41,0,.25,0,.81-.03.48-.65,1.46-2.56,1.75-3.49h-2.26v-.44h2.87v-1.7h-2.46v-.44h2.46v-1.71h1.05ZM215.82,23.88c-.34-.41-1.06-1.09-1.48-1.39l.26-.38c.77.33,1.14.54,1.92.99l-.7.78ZM216.33,26.91c-.2.62-1.03,2.99-1.64,3.82l-.85-.64c.6-.58,1.57-2.31,2.09-3.54l.39.36ZM215.35,26.14c-.63-.75-.97-1.1-1.54-1.55l.26-.39c.82.33,1.86,1.01,1.92,1.04l-.65.9ZM186.81,25.13c.65,1.07,1.38,2.97,1.61,4.14l-1.14.43c-.05-1.4-.47-3.31-.92-4.37l.45-.21ZM189.62,22.11v1.59h3.53v.43h-8.08v-.43h3.48v-1.59h1.07ZM193.6,30.3v.44h-9v-.44h4.64c.72-1.75,1.1-3.44,1.47-5.44l1.12.31c.1.03.12.07.12.11,0,.07-.04.11-.13.18-.27.79-.92,2.72-1.95,4.84h3.73ZM180.96,28.24c-.1-.23-.23-.62-.77-1.35l.4-.24c.56.38.79.56,1.19.99l-.82.61ZM182.11,23.97v.44h-2.19v1.61h1.76v.44h-1.76v2.01h2.39v.44h-5.89v-.44h2.37v-2.01h-1.68v-.44h1.68v-1.61h-2.13v-.44h5.44ZM182.71,30.3v-7.75h-6.67v7.75h6.67ZM183.81,22.11v8.63h-8.89v-8.63h8.89Z"/>
    <g>
      <path class="cls-4" d="M179.68,68.52v6.1h-.81v-6.1h-2.02v-.7h4.85v.7h-2.03Z"/>
      <path class="cls-4" d="M185.82,74.61v-3.02c0-.2-.01-.4-.04-.58-.03-.18-.08-.34-.16-.48-.08-.14-.2-.25-.35-.34-.15-.08-.35-.13-.59-.13-.26,0-.49.05-.66.16-.18.11-.32.24-.42.41-.11.17-.18.36-.23.58-.05.22-.07.44-.07.66v2.74h-.74v-7.35h.74v3.13c.33-.64.85-.96,1.57-.96.31,0,.58.05.79.15.21.1.39.24.52.42.13.18.23.39.29.64.06.25.09.52.09.81v3.15h-.73Z"/>
      <path class="cls-4" d="M188.52,72.28c0,.24.03.48.1.7.07.22.17.42.31.59.14.17.31.3.51.4s.44.15.7.15c.11,0,.23,0,.36-.03.13-.02.26-.04.39-.07s.25-.07.37-.11c.12-.04.23-.09.32-.15l.06.69c-.24.1-.49.16-.77.2-.28.04-.54.06-.8.06-.41,0-.76-.07-1.06-.2-.3-.14-.54-.32-.73-.56-.19-.24-.33-.52-.42-.85-.09-.33-.13-.68-.13-1.06,0-.33.05-.64.15-.96.1-.31.24-.59.42-.84.18-.25.41-.45.68-.6.27-.15.57-.22.91-.22.36,0,.67.07.92.2.25.14.46.32.62.55.16.23.28.51.35.81.07.31.11.63.11.97v.31h-3.39ZM191.16,71.73c0-.2-.02-.4-.07-.6-.04-.2-.11-.38-.21-.55-.1-.16-.22-.3-.38-.4-.16-.11-.36-.16-.59-.16s-.43.06-.61.17c-.17.11-.32.25-.44.42-.12.17-.21.36-.27.56-.06.2-.09.39-.09.56h2.64Z"/>
      <path class="cls-4" d="M201.75,72.21c0,.39-.06.74-.18,1.04-.12.31-.29.57-.51.8s-.49.39-.8.5c-.31.12-.66.17-1.05.17s-.74-.06-1.05-.17c-.31-.12-.58-.28-.8-.49-.22-.21-.39-.48-.5-.79-.12-.31-.17-.66-.17-1.05v-4.4h.81v4.39c0,.27.04.52.11.74s.18.42.33.57c.14.16.32.28.54.37.21.09.46.13.75.13s.54-.04.75-.13c.21-.09.39-.21.54-.37.15-.16.26-.35.33-.57.08-.22.11-.47.11-.74v-4.39h.81v4.39Z"/>
      <path class="cls-4" d="M206.54,74.61v-3.01c0-.2-.01-.4-.04-.58-.03-.18-.08-.35-.16-.49-.08-.14-.2-.26-.35-.34-.15-.08-.35-.13-.59-.13-.26,0-.49.05-.66.16-.18.11-.32.24-.43.41-.11.17-.18.36-.23.58-.04.22-.07.44-.07.66v2.73h-.74v-3.88c0-.2,0-.4-.01-.6,0-.2-.02-.4-.04-.6h.68l.03.88c.36-.65.91-.98,1.64-.98.33,0,.6.05.82.15.22.1.39.24.52.42.13.18.23.39.28.64.05.25.08.52.08.81v3.15h-.73Z"/>
      <path class="cls-4" d="M208.76,68.4v-.89h.74v.89h-.74ZM208.76,74.61v-5.08h.74v5.08h-.74Z"/>
      <path class="cls-4" d="M212.93,74.61h-.88l-1.7-5.08h.8l1.36,4.42,1.37-4.42h.77l-1.72,5.08Z"/>
      <path class="cls-4" d="M215.97,72.28c0,.24.03.48.1.7.07.22.17.42.31.59.14.17.31.3.51.4.2.1.44.15.7.15.11,0,.23,0,.36-.03.13-.02.26-.04.39-.07.13-.03.25-.07.37-.11.12-.04.23-.09.32-.15l.06.69c-.24.1-.49.16-.77.2-.27.04-.54.06-.8.06-.41,0-.76-.07-1.05-.2-.3-.14-.54-.32-.73-.56-.19-.24-.33-.52-.42-.85-.09-.33-.13-.68-.13-1.06,0-.33.05-.64.15-.96.1-.31.24-.59.42-.84.18-.25.41-.45.68-.6.27-.15.57-.22.91-.22.36,0,.67.07.92.2.25.14.46.32.62.55.16.23.28.51.35.81.08.31.11.63.11.97v.31h-3.39ZM218.61,71.73c0-.2-.02-.4-.07-.6-.04-.2-.11-.38-.21-.55-.1-.16-.22-.3-.38-.4-.16-.11-.36-.16-.59-.16s-.43.06-.61.17c-.17.11-.32.25-.44.42-.12.17-.21.36-.26.56-.06.2-.09.39-.09.56h2.64Z"/>
      <path class="cls-4" d="M222.91,70.22c-.14-.04-.27-.06-.41-.06-.26,0-.47.06-.63.19-.16.13-.29.29-.38.48s-.15.4-.19.63c-.03.23-.05.44-.05.64v2.52h-.74v-3.88c0-.2,0-.4-.01-.6,0-.2-.02-.4-.04-.6h.68l.04.96c.05-.13.12-.26.2-.38.09-.13.19-.24.31-.34.12-.1.25-.18.39-.24.14-.06.29-.09.45-.09.08,0,.15,0,.21,0,.07,0,.14.01.21.04l-.04.74Z"/>
      <path class="cls-4" d="M226.7,73.25c0,.25-.05.46-.15.64-.1.18-.24.34-.4.46-.17.13-.36.22-.57.28-.21.06-.43.09-.66.09-.25,0-.49-.02-.73-.05-.24-.03-.48-.1-.71-.18l.06-.69c.2.11.42.19.65.24.23.05.46.08.69.08.29,0,.53-.07.74-.21.21-.14.32-.35.32-.64,0-.2-.06-.37-.18-.5-.12-.13-.27-.24-.45-.34-.18-.09-.38-.18-.59-.27-.21-.08-.41-.18-.59-.29-.18-.11-.33-.25-.45-.42-.12-.17-.18-.38-.18-.64s.05-.45.15-.63c.1-.17.24-.32.4-.43.17-.11.35-.2.56-.25.21-.05.42-.08.63-.08s.42.02.64.06c.22.04.42.09.62.17l-.06.62c-.16-.08-.35-.13-.56-.18-.21-.04-.4-.07-.58-.07-.12,0-.24.01-.37.04-.12.02-.23.06-.34.12-.1.06-.18.14-.24.23-.06.1-.09.23-.09.38s.06.29.18.39c.12.11.27.2.45.29.18.09.38.17.59.26.21.09.41.2.59.32.18.13.33.28.45.47.12.19.18.42.18.71Z"/>
      <path class="cls-4" d="M227.81,68.4v-.89h.74v.89h-.74ZM227.81,74.61v-5.08h.74v5.08h-.74Z"/>
      <path class="cls-4" d="M232.42,74.57c-.13.06-.27.09-.41.12-.14.02-.28.04-.42.04-.26,0-.47-.04-.62-.13-.16-.09-.28-.21-.36-.36-.08-.15-.13-.33-.16-.53-.02-.2-.04-.42-.04-.65v-2.93h-.96v-.58h.96v-1.14l.73-.25v1.4h1.15v.58h-1.15v3.12c0,.22.04.42.13.59.08.17.26.25.53.25.1,0,.2-.01.29-.03.09-.02.18-.06.28-.1l.04.62Z"/>
      <path class="cls-4" d="M235.03,75.5c-.07.2-.15.38-.24.56-.09.17-.19.32-.31.45s-.25.23-.4.31c-.15.07-.33.11-.52.11-.13,0-.23,0-.32-.02-.08-.01-.18-.03-.3-.06l.06-.64c.08.03.15.05.22.07.08.02.15.03.23.03.14,0,.27-.04.37-.13.11-.09.2-.2.27-.32.08-.13.14-.25.19-.39.05-.13.09-.24.12-.33l.1-.34-1.76-5.25h.81l1.37,4.37,1.36-4.37h.77l-2.03,5.96Z"/>
      <path class="cls-4" d="M245.94,72.05c0,.37-.05.71-.15,1.03-.1.32-.25.61-.45.85-.2.24-.44.44-.74.58-.29.14-.64.21-1.03.21s-.74-.07-1.03-.21-.54-.33-.74-.58c-.2-.24-.35-.53-.45-.85-.1-.32-.15-.67-.15-1.03s.05-.71.16-1.02c.11-.32.26-.59.46-.83.2-.24.45-.42.75-.56.3-.14.63-.2,1-.2.39,0,.74.07,1.04.2.3.13.55.32.74.55.2.23.34.51.44.83s.15.67.15,1.04ZM245.13,72.05c0-.25-.03-.5-.09-.74-.06-.24-.15-.45-.27-.64-.13-.19-.29-.34-.49-.45-.2-.11-.44-.17-.72-.17s-.52.06-.71.17c-.2.12-.36.27-.49.46-.13.19-.22.4-.28.64s-.09.48-.09.72.03.49.09.73c.06.24.15.46.28.66.13.19.29.35.49.47.2.12.44.18.71.18s.51-.06.71-.18c.2-.12.36-.28.49-.47.12-.19.22-.41.28-.66.06-.25.09-.49.09-.73Z"/>
      <path class="cls-4" d="M249.52,67.87c-.08-.03-.15-.06-.24-.07-.08-.01-.17-.02-.25-.02-.19,0-.34.04-.44.13-.1.09-.18.19-.22.31-.04.12-.07.23-.07.35,0,.12,0,.21,0,.28v.68h1.14v.59h-1.13v4.49h-.74v-4.49h-.99v-.59h.99v-.65c0-.18.01-.38.04-.58.03-.2.09-.39.18-.56.09-.17.23-.31.41-.42.18-.11.43-.17.74-.17.09,0,.21,0,.33.01s.23.04.32.09l-.06.61Z"/>
      <path class="cls-4" d="M254.04,74.61v-6.8h3.51v.66h-2.7v2.32h2.57v.64h-2.57v2.51h2.81v.66h-3.62Z"/>
      <path class="cls-4" d="M258.87,74.61v-7.35h.74v7.35h-.74Z"/>
      <path class="cls-4" d="M261.56,72.28c0,.24.03.48.1.7.07.22.17.42.31.59.14.17.31.3.51.4.2.1.44.15.7.15.11,0,.23,0,.36-.03.13-.02.26-.04.39-.07.13-.03.25-.07.37-.11.12-.04.23-.09.32-.15l.06.69c-.24.1-.49.16-.77.2-.27.04-.54.06-.8.06-.41,0-.76-.07-1.05-.2-.3-.14-.54-.32-.73-.56-.19-.24-.33-.52-.42-.85-.09-.33-.13-.68-.13-1.06,0-.33.05-.64.15-.96.1-.31.24-.59.42-.84.18-.25.41-.45.68-.6.27-.15.57-.22.91-.22.36,0,.67.07.92.2.25.14.46.32.62.55.16.23.28.51.35.81.08.31.11.63.11.97v.31h-3.39ZM264.2,71.73c0-.2-.02-.4-.07-.6-.04-.2-.11-.38-.21-.55-.1-.16-.22-.3-.38-.4-.16-.11-.36-.16-.59-.16s-.43.06-.61.17c-.17.11-.32.25-.44.42-.12.17-.21.36-.26.56-.06.2-.09.39-.09.56h2.64Z"/>
      <path class="cls-4" d="M269.55,74.53c-.22.07-.44.13-.65.15-.22.03-.44.04-.66.04-.39,0-.73-.07-1.03-.21-.3-.14-.56-.33-.77-.57-.21-.24-.37-.53-.47-.85-.11-.33-.16-.67-.16-1.04s.06-.72.18-1.04c.12-.32.28-.6.5-.83.22-.23.48-.41.79-.55.31-.13.66-.2,1.04-.2.21,0,.42.02.63.06.21.04.41.09.61.16l-.06.66c-.16-.08-.33-.14-.51-.18-.18-.05-.36-.07-.55-.07-.31,0-.57.05-.8.15-.23.1-.42.24-.57.42-.15.18-.27.39-.34.63-.08.25-.11.51-.11.79,0,.27.04.52.11.77.07.25.19.47.34.66.15.19.34.34.56.45.22.11.48.17.77.17.2,0,.39-.02.58-.06.19-.04.37-.1.55-.17l.05.66Z"/>
      <path class="cls-4" d="M273,74.57c-.13.06-.27.09-.41.12-.14.02-.28.04-.42.04-.26,0-.47-.04-.62-.13-.16-.09-.28-.21-.36-.36-.08-.15-.13-.33-.16-.53-.02-.2-.04-.42-.04-.65v-2.93h-.96v-.58h.96v-1.14l.73-.25v1.4h1.15v.58h-1.15v3.12c0,.22.04.42.13.59.08.17.26.25.53.25.1,0,.2-.01.29-.03.09-.02.18-.06.28-.1l.04.62Z"/>
      <path class="cls-4" d="M276.36,70.22c-.14-.04-.27-.06-.41-.06-.26,0-.47.06-.63.19-.16.13-.29.29-.38.48-.09.19-.15.4-.19.63-.03.23-.05.44-.05.64v2.52h-.74v-3.88c0-.2,0-.4-.01-.6,0-.2-.02-.4-.04-.6h.68l.04.96c.05-.13.12-.26.2-.38.09-.13.19-.24.31-.34.12-.1.25-.18.39-.24.14-.06.29-.09.45-.09.08,0,.15,0,.21,0,.07,0,.14.01.21.04l-.04.74Z"/>
      <path class="cls-4" d="M281.62,72.05c0,.37-.05.71-.15,1.03-.1.32-.25.61-.45.85-.2.24-.44.44-.74.58-.29.14-.64.21-1.03.21s-.74-.07-1.03-.21c-.3-.14-.54-.33-.74-.58-.2-.24-.35-.53-.45-.85-.1-.32-.15-.67-.15-1.03s.05-.71.16-1.02c.11-.32.26-.59.46-.83.2-.24.45-.42.75-.56.3-.14.63-.2,1-.2.39,0,.74.07,1.04.2.3.13.55.32.74.55.2.23.34.51.44.83s.15.67.15,1.04ZM280.82,72.05c0-.25-.03-.5-.09-.74-.06-.24-.15-.45-.27-.64-.13-.19-.29-.34-.49-.45-.2-.11-.44-.17-.72-.17s-.52.06-.71.17c-.2.12-.36.27-.49.46-.13.19-.22.4-.28.64-.06.24-.09.48-.09.72s.03.49.09.73c.06.24.15.46.28.66.13.19.29.35.49.47.2.12.44.18.71.18s.51-.06.71-.18c.2-.12.36-.28.49-.47.12-.19.22-.41.28-.66.06-.25.09-.49.09-.73Z"/>
      <path class="cls-4" d="M282.45,71.79v-.67h2.47v.67h-2.47Z"/>
      <path class="cls-4" d="M290.95,74.42c-.22.12-.49.2-.79.24-.3.04-.58.07-.83.07-.54,0-1.02-.08-1.45-.25-.43-.17-.8-.4-1.1-.71-.3-.31-.54-.67-.7-1.11-.16-.43-.24-.91-.24-1.44s.08-.98.25-1.41c.17-.43.41-.8.72-1.11.31-.31.68-.55,1.11-.73.43-.18.9-.27,1.42-.27.25,0,.52.02.82.06.3.04.56.11.78.2l-.06.72c-.22-.1-.46-.17-.73-.22-.27-.05-.53-.07-.76-.07-.42,0-.8.07-1.13.21-.33.14-.62.34-.85.59-.23.25-.41.55-.53.89-.12.34-.18.71-.18,1.11s.06.79.18,1.14c.12.35.29.64.52.89.23.25.51.44.84.57.33.14.71.2,1.14.2.26,0,.52-.02.78-.06.26-.04.51-.12.75-.23l.06.68Z"/>
      <path class="cls-4" d="M296.51,72.05c0,.37-.05.71-.15,1.03-.1.32-.25.61-.45.85-.2.24-.44.44-.74.58-.29.14-.64.21-1.03.21s-.74-.07-1.03-.21c-.3-.14-.54-.33-.74-.58-.2-.24-.35-.53-.45-.85-.1-.32-.15-.67-.15-1.03s.05-.71.16-1.02c.11-.32.26-.59.46-.83.2-.24.45-.42.75-.56.3-.14.63-.2,1-.2.39,0,.74.07,1.04.2.3.13.55.32.74.55.2.23.34.51.44.83.1.32.15.67.15,1.04ZM295.7,72.05c0-.25-.03-.5-.09-.74-.06-.24-.15-.45-.27-.64-.13-.19-.29-.34-.49-.45-.2-.11-.44-.17-.72-.17s-.52.06-.71.17c-.2.12-.36.27-.49.46-.13.19-.22.4-.28.64s-.09.48-.09.72.03.49.09.73c.06.24.15.46.28.66.13.19.29.35.49.47.2.12.44.18.71.18s.51-.06.71-.18c.2-.12.36-.28.49-.47.12-.19.22-.41.28-.66.06-.25.09-.49.09-.73Z"/>
      <path class="cls-4" d="M303.71,74.61v-3.32c0-.17-.02-.33-.05-.48-.03-.15-.09-.28-.17-.39-.08-.11-.18-.2-.31-.26-.13-.06-.29-.1-.48-.1-.23,0-.43.05-.59.16-.16.11-.29.24-.39.41-.1.17-.17.36-.22.58-.04.21-.07.43-.07.66v2.74h-.74v-3.32c0-.17-.02-.33-.05-.48-.03-.15-.09-.28-.16-.39-.08-.11-.18-.2-.31-.26-.13-.06-.29-.1-.48-.1-.23,0-.43.05-.59.16-.16.11-.3.24-.4.41-.1.17-.18.36-.22.58-.04.21-.07.43-.07.66v2.74h-.74v-3.88c0-.2,0-.4-.01-.6,0-.2-.02-.4-.04-.6h.68l.03.88c.34-.65.85-.98,1.52-.98.21,0,.4.03.57.09.17.06.31.14.44.24.13.1.23.21.31.34.08.13.13.26.17.39.06-.16.14-.3.25-.43.11-.13.23-.24.37-.34.14-.09.29-.16.44-.21.16-.05.32-.08.48-.08.26,0,.49.04.68.13.2.09.36.21.49.36.13.15.23.33.3.55.07.21.1.44.1.68v3.46h-.74Z"/>
      <path class="cls-4" d="M311.97,74.61v-3.32c0-.17-.02-.33-.05-.48-.03-.15-.09-.28-.17-.39-.08-.11-.18-.2-.31-.26-.13-.06-.29-.1-.48-.1-.23,0-.43.05-.59.16-.16.11-.29.24-.39.41-.1.17-.17.36-.22.58-.04.21-.07.43-.07.66v2.74h-.74v-3.32c0-.17-.02-.33-.05-.48-.03-.15-.09-.28-.16-.39-.08-.11-.18-.2-.31-.26-.13-.06-.29-.1-.48-.1-.23,0-.43.05-.59.16-.16.11-.3.24-.4.41-.1.17-.18.36-.22.58-.04.21-.07.43-.07.66v2.74h-.74v-3.88c0-.2,0-.4-.01-.6,0-.2-.02-.4-.04-.6h.68l.03.88c.34-.65.85-.98,1.52-.98.21,0,.4.03.57.09.17.06.31.14.44.24s.23.21.31.34c.08.13.13.26.17.39.06-.16.14-.3.25-.43.11-.13.23-.24.37-.34.14-.09.29-.16.44-.21.16-.05.32-.08.48-.08.26,0,.49.04.68.13.2.09.36.21.49.36.13.15.23.33.3.55.07.21.1.44.1.68v3.46h-.74Z"/>
      <path class="cls-4" d="M317.52,74.61l-.02-.88c-.18.33-.4.57-.67.74-.27.17-.6.25-.97.25-.33,0-.6-.05-.81-.15s-.39-.24-.52-.43c-.13-.18-.23-.4-.28-.65-.05-.25-.08-.52-.08-.82v-3.14h.74v3.01c0,.2.01.4.04.58.03.18.08.35.16.49.08.14.19.26.34.34.15.09.34.13.59.13.26,0,.49-.05.66-.16.18-.1.32-.24.43-.41.11-.17.18-.36.23-.58.04-.22.07-.44.07-.66v-2.73h.73v3.88c0,.2,0,.4,0,.6,0,.2.02.4.04.6h-.68Z"/>
      <path class="cls-4" d="M322.91,74.61v-3.01c0-.2-.01-.4-.04-.58-.03-.18-.08-.35-.16-.49-.08-.14-.2-.26-.35-.34-.15-.08-.35-.13-.59-.13-.27,0-.49.05-.66.16-.18.11-.32.24-.43.41-.11.17-.19.36-.23.58-.04.22-.07.44-.07.66v2.73h-.74v-3.88c0-.2,0-.4-.01-.6,0-.2-.02-.4-.04-.6h.68l.03.88c.36-.65.91-.98,1.64-.98.33,0,.6.05.82.15.22.1.39.24.53.42.13.18.23.39.28.64.05.25.08.52.08.81v3.15h-.73Z"/>
      <path class="cls-4" d="M325.14,68.4v-.89h.74v.89h-.74ZM325.14,74.61v-5.08h.74v5.08h-.74Z"/>
      <path class="cls-4" d="M330.8,74.53c-.22.07-.44.13-.65.15-.22.03-.44.04-.66.04-.39,0-.73-.07-1.03-.21-.3-.14-.56-.33-.77-.57-.21-.24-.37-.53-.47-.85-.11-.33-.16-.67-.16-1.04s.06-.72.18-1.04c.12-.32.28-.6.5-.83.22-.23.48-.41.79-.55.31-.13.66-.2,1.04-.2.21,0,.42.02.63.06.21.04.41.09.61.16l-.06.66c-.16-.08-.33-.14-.51-.18-.18-.05-.36-.07-.55-.07-.31,0-.57.05-.8.15-.23.1-.42.24-.57.42-.15.18-.27.39-.34.63-.08.25-.11.51-.11.79,0,.27.04.52.11.77.07.25.19.47.34.66.15.19.33.34.56.45.22.11.48.17.77.17.2,0,.39-.02.58-.06.19-.04.37-.1.55-.17l.05.66Z"/>
      <path class="cls-4" d="M334.75,74.61l-.03-.82c-.14.3-.36.53-.66.69-.3.16-.6.24-.92.24-.22,0-.44-.03-.64-.09-.2-.06-.38-.15-.53-.27-.15-.12-.27-.27-.36-.45-.09-.18-.13-.39-.13-.64,0-.33.07-.6.22-.83.15-.22.35-.41.6-.55.25-.14.55-.24.89-.3.34-.06.71-.09,1.1-.09h.4v-.24c0-.39-.09-.69-.25-.92-.17-.22-.47-.34-.89-.34-.26,0-.51.03-.75.09-.25.06-.48.17-.7.32l-.06-.66c.22-.1.47-.17.76-.24.29-.06.55-.1.79-.1.64,0,1.11.16,1.4.47.3.31.44.79.44,1.43v2.2c0,.19,0,.37.01.55,0,.18.02.35.05.53h-.72ZM334.68,72.06h-.14c-.22,0-.47.01-.74.03-.27.02-.52.07-.75.15-.23.08-.42.2-.58.36-.15.16-.23.38-.23.66,0,.15.03.28.08.39.05.11.13.2.22.27.1.07.2.12.33.16.13.03.26.05.39.05.27,0,.5-.05.68-.14.18-.1.32-.22.43-.38.11-.16.18-.35.23-.56.04-.21.07-.44.07-.67v-.31Z"/>
      <path class="cls-4" d="M339.28,74.57c-.13.06-.27.09-.41.12-.14.02-.28.04-.42.04-.26,0-.47-.04-.62-.13-.16-.09-.28-.21-.36-.36-.08-.15-.13-.33-.16-.53-.02-.2-.04-.42-.04-.65v-2.93h-.96v-.58h.96v-1.14l.73-.25v1.4h1.15v.58h-1.15v3.12c0,.22.04.42.13.59.08.17.26.25.53.25.1,0,.2-.01.29-.03.09-.02.18-.06.28-.1l.04.62Z"/>
      <path class="cls-4" d="M340.24,68.4v-.89h.74v.89h-.74ZM340.24,74.61v-5.08h.74v5.08h-.74Z"/>
      <path class="cls-4" d="M346.91,72.05c0,.37-.05.71-.15,1.03-.1.32-.25.61-.45.85-.2.24-.44.44-.74.58-.29.14-.64.21-1.03.21s-.74-.07-1.03-.21c-.3-.14-.54-.33-.74-.58-.2-.24-.35-.53-.45-.85-.1-.32-.15-.67-.15-1.03s.05-.71.16-1.02c.11-.32.26-.59.46-.83.2-.24.45-.42.75-.56.3-.14.63-.2,1-.2.39,0,.74.07,1.04.2s.55.32.74.55c.2.23.34.51.44.83.1.32.15.67.15,1.04ZM346.1,72.05c0-.25-.03-.5-.09-.74-.06-.24-.15-.45-.27-.64-.13-.19-.29-.34-.49-.45-.2-.11-.44-.17-.72-.17s-.52.06-.71.17c-.2.12-.36.27-.49.46-.13.19-.22.4-.28.64-.06.24-.09.48-.09.72s.03.49.09.73c.06.24.15.46.28.66.13.19.29.35.49.47.2.12.44.18.71.18s.51-.06.71-.18c.2-.12.36-.28.49-.47.12-.19.22-.41.28-.66.06-.25.09-.49.09-.73Z"/>
      <path class="cls-4" d="M351.35,74.61v-3.01c0-.2-.01-.4-.04-.58-.03-.18-.08-.35-.16-.49-.08-.14-.2-.26-.35-.34-.15-.08-.35-.13-.59-.13-.27,0-.49.05-.66.16-.18.11-.32.24-.43.41-.11.17-.19.36-.23.58-.04.22-.07.44-.07.66v2.73h-.74v-3.88c0-.2,0-.4-.01-.6,0-.2-.02-.4-.04-.6h.68l.03.88c.36-.65.91-.98,1.64-.98.33,0,.6.05.82.15.22.1.39.24.53.42.13.18.23.39.28.64.05.25.08.52.08.81v3.15h-.73Z"/>
      <path class="cls-4" d="M356.43,73.25c0,.25-.05.46-.15.64-.1.18-.24.34-.4.46-.17.13-.36.22-.57.28-.21.06-.43.09-.66.09-.25,0-.49-.02-.73-.05-.24-.03-.48-.1-.71-.18l.06-.69c.2.11.42.19.65.24.23.05.46.08.69.08.29,0,.53-.07.74-.21.21-.14.32-.35.32-.64,0-.2-.06-.37-.18-.5-.12-.13-.27-.24-.45-.34-.18-.09-.38-.18-.59-.27-.21-.08-.41-.18-.59-.29-.18-.11-.33-.25-.45-.42-.12-.17-.18-.38-.18-.64s.05-.45.15-.63c.1-.17.24-.32.4-.43.17-.11.35-.2.56-.25.21-.05.42-.08.63-.08s.42.02.64.06c.22.04.42.09.62.17l-.06.62c-.16-.08-.35-.13-.56-.18-.21-.04-.4-.07-.58-.07-.12,0-.24.01-.37.04-.12.02-.23.06-.34.12-.1.06-.18.14-.24.23s-.09.23-.09.38.06.29.18.39c.12.11.27.2.45.29.18.09.38.17.59.26.21.09.41.2.59.32.18.13.33.28.45.47.12.19.18.42.18.71Z"/>
    </g>
  </g>
</svg>