<?xml version="1.0" encoding="UTF-8"?>
<svg id="_レイヤー_2" data-name="レイヤー_2" xmlns="http://www.w3.org/2000/svg" viewBox="0 0 40 40">
  <defs>
    <style>
      .cls-1 {
        fill: #fff;
      }
    </style>
  </defs>
  <g>
    <path class="cls-1" d="M20,30.5c-6.07,0-11-4.93-11-11s4.93-11,11-11,11,4.93,11,11-4.93,11-11,11ZM20,9.57c-5.47,0-9.93,4.45-9.93,9.93s4.45,9.93,9.93,9.93,9.93-4.45,9.93-9.93-4.45-9.93-9.93-9.93Z"/>
    <path class="cls-1" d="M20,30.23c-3.99,0-7.24-4.81-7.24-10.73s3.25-10.73,7.24-10.73,7.24,4.81,7.24,10.73-3.25,10.73-7.24,10.73ZM20,9.3c-3.7,0-6.71,4.57-6.71,10.2s3.01,10.2,6.71,10.2,6.71-4.57,6.71-10.2-3.01-10.2-6.71-10.2Z"/>
    <path class="cls-1" d="M20,30.23c-1.92,0-2.95-5.53-2.95-10.73s1.03-10.73,2.95-10.73,2.95,5.53,2.95,10.73-1.03,10.73-2.95,10.73ZM20,9.3c-1.14,0-2.41,4.19-2.41,10.2s1.27,10.2,2.41,10.2,2.41-4.19,2.41-10.2-1.27-10.2-2.41-10.2Z"/>
    <rect class="cls-1" x="9.54" y="19.23" width="20.93" height=".54"/>
    <rect class="cls-1" x="10.88" y="13.87" width="18.24" height=".54"/>
    <rect class="cls-1" x="10.88" y="24.6" width="18.24" height=".54"/>
  </g>
  <path class="cls-1" d="M25.57,39.22c-.14,0-.27-.04-.4-.11l-8.93-5.46H4.3c-2.09,0-3.8-1.7-3.8-3.8V8.58c0-2.09,1.7-3.8,3.8-3.8h31.4c2.09,0,3.8,1.7,3.8,3.8v21.27c0,2.09-1.7,3.8-3.8,3.8h-11.07l1.66,4.55c.11.3.02.64-.23.85-.14.11-.31.17-.48.17ZM4.3,6.3c-1.26,0-2.28,1.02-2.28,2.28v21.27c0,1.26,1.02,2.28,2.28,2.28h12.16c.14,0,.28.04.4.11l7.27,4.44-1.28-3.53c-.08-.23-.05-.49.09-.7.14-.2.37-.32.62-.32h12.16c1.26,0,2.28-1.02,2.28-2.28V8.58c0-1.26-1.02-2.28-2.28-2.28H4.3Z"/>
</svg>