<?xml version="1.0" encoding="UTF-8"?>
<svg id="_レイヤー_2" data-name="レイヤー_2" xmlns="http://www.w3.org/2000/svg" viewBox="0 0 40 40">
  <defs>
    <style>
      .cls-1 {
        fill: #fff;
      }
    </style>
  </defs>
  <path class="cls-1" d="M25.57,39.22c-.14,0-.27-.04-.4-.11l-8.93-5.46H4.3c-2.09,0-3.8-1.7-3.8-3.8V8.58c0-2.09,1.7-3.8,3.8-3.8h31.4c2.09,0,3.8,1.7,3.8,3.8v21.27c0,2.09-1.7,3.8-3.8,3.8h-11.07l1.66,4.55c.11.3.02.64-.23.85-.14.11-.31.17-.48.17ZM4.3,6.3c-1.26,0-2.28,1.02-2.28,2.28v21.27c0,1.26,1.02,2.28,2.28,2.28h12.16c.14,0,.28.04.4.11l7.27,4.44-1.28-3.53c-.08-.23-.05-.49.09-.7.14-.2.37-.32.62-.32h12.16c1.26,0,2.28-1.02,2.28-2.28V8.58c0-1.26-1.02-2.28-2.28-2.28H4.3Z"/>
  <g>
    <path class="cls-1" d="M13.38,25.96c-1.39,0-2.34-.36-3.29-1.31l1.66-1.64c.41.41.81.72,1.64.72,1.22,0,2.02-.72,2.02-2.2v-8.5h2.5v8.61c0,2.83-2.14,4.32-4.52,4.32Z"/>
    <path class="cls-1" d="M25.69,21.03h-2.47v4.83h-2.5v-12.82h4.97c2.67,0,4.23,1.82,4.23,4s-1.57,4-4.23,4ZM25.56,15.27h-2.34v3.51h2.34c1.13,0,1.85-.7,1.85-1.75s-.72-1.76-1.85-1.76Z"/>
  </g>
</svg>