<?xml version="1.0" encoding="UTF-8"?>
<svg id="_レイヤー_2" data-name="レイヤー_2" xmlns="http://www.w3.org/2000/svg" xmlns:xlink="http://www.w3.org/1999/xlink" viewBox="0 0 420 40">
  <defs>
    <style>
      .cls-1 {
        fill: none;
      }

      .cls-2 {
        fill: #182688;
      }

      .cls-3 {
        fill: url(#_名称未設定グラデーション_5);
      }

      .cls-4 {
        fill: url(#_名称未設定グラデーション_4);
      }

      .cls-5 {
        fill: url(#_名称未設定グラデーション_7);
      }

      .cls-6 {
        clip-path: url(#clippath-1);
      }

      .cls-7 {
        clip-path: url(#clippath-3);
      }

      .cls-8 {
        clip-path: url(#clippath-2);
      }

      .cls-9 {
        fill: #231815;
      }

      .cls-10 {
        fill: url(#_名称未設定グラデーション_5-2);
      }

      .cls-11 {
        fill: url(#_名称未設定グラデーション_4-2);
      }

      .cls-12 {
        clip-path: url(#clippath);
      }
    </style>
    <clipPath id="clippath">
      <path class="cls-1" d="M9.69,19.9c-.16.13-.31.26-.47.38,0,.35,0,.69,0,1,.28-.27.57-.55.87-.82,1.91-1.73,3.28-2.74,3.13-2.93-.01-.01-.03-.02-.06-.02-.35,0-1.98,1.16-3.48,2.39"/>
    </clipPath>
    <linearGradient id="_名称未設定グラデーション_4" data-name="名称未設定グラデーション 4" x1="-1931.31" y1="800.11" x2="-1930.51" y2="800.11" gradientTransform="translate(83442.32 34579.87) scale(43.19 -43.19)" gradientUnits="userSpaceOnUse">
      <stop offset="0" stop-color="#54c0ee"/>
      <stop offset=".7" stop-color="#182688"/>
      <stop offset="1" stop-color="#182688"/>
    </linearGradient>
    <clipPath id="clippath-1">
      <path class="cls-1" d="M35.92,6.34c-2.01.61-3.29,1.05-3.23,1.22.06.16,2.47-.59,3.33-.81,9.29-2.44,16.89-1.93,18.71,1.96,2.49,5.33-6.75,14.9-20.62,21.37-13.88,6.47-27.14,7.39-29.63,2.06-.57-1.22-.53-2.67.05-4.26-.55-.45-.96-.9-1.26-1.42-2.06,2.9-2.81,5.55-1.86,7.58,2.64,5.67,17.5,4.34,33.17-2.96,15.68-7.31,26.24-17.83,23.59-23.5-1.11-2.37-4.34-3.53-8.88-3.53-3.73,0-8.33.78-13.37,2.3"/>
    </clipPath>
    <linearGradient id="_名称未設定グラデーション_4-2" data-name="名称未設定グラデーション 4" x1="-1931.31" y1="800.58" x2="-1930.51" y2="800.58" gradientTransform="translate(83440.27 34601.97) scale(43.19 -43.19)" xlink:href="#_名称未設定グラデーション_4"/>
    <clipPath id="clippath-2">
      <path class="cls-1" d="M49.57,18.31c0,1.43,1.16,2.59,2.59,2.59s2.59-1.16,2.59-2.59-1.16-2.59-2.59-2.59-2.59,1.16-2.59,2.59"/>
    </clipPath>
    <radialGradient id="_名称未設定グラデーション_5" data-name="名称未設定グラデーション 5" cx="-1335.49" cy="942.42" fx="-1335.49" fy="942.42" r=".85" gradientTransform="translate(4231.15 2967.85) scale(3.13 -3.13)" gradientUnits="userSpaceOnUse">
      <stop offset="0" stop-color="#fff"/>
      <stop offset="1" stop-color="#786fae"/>
    </radialGradient>
    <clipPath id="clippath-3">
      <path class="cls-1" d="M41.37,5.08c0,.79.64,1.42,1.42,1.42s1.42-.64,1.42-1.42-.64-1.42-1.42-1.42-1.42.64-1.42,1.42"/>
    </clipPath>
    <radialGradient id="_名称未設定グラデーション_5-2" data-name="名称未設定グラデーション 5" cx="-809.33" cy="1073.34" fx="-809.33" fy="1073.34" r=".85" gradientTransform="translate(1434.92 1851.95) scale(1.72 -1.72)" xlink:href="#_名称未設定グラデーション_5"/>
    <radialGradient id="_名称未設定グラデーション_7" data-name="名称未設定グラデーション 7" cx="7.77" cy="35.6" fx="7.77" fy="35.6" r="3.31" gradientUnits="userSpaceOnUse">
      <stop offset="0" stop-color="#fff"/>
      <stop offset="1" stop-color="#7871b2"/>
    </radialGradient>
  </defs>
  <g>
    <polygon points="86.11 16.2 76.87 16.2 76.87 17.54 80.71 17.54 80.71 29.15 82.25 29.15 82.25 17.54 86.11 17.54 86.11 16.2"/>
    <path d="M89.14,15.15h-1.42v14h1.42v-5.23c0-.43.05-.85.14-1.26.09-.42.24-.78.44-1.1.2-.32.47-.58.81-.78.34-.2.76-.3,1.26-.3.47,0,.84.08,1.13.24.28.16.51.38.66.64.15.27.26.57.31.92.05.35.08.72.08,1.11v5.75h1.4v-6c0-.56-.06-1.07-.17-1.54-.12-.47-.3-.88-.55-1.22-.25-.34-.58-.61-.99-.81-.41-.2-.91-.29-1.51-.29-1.37,0-2.37.61-2.99,1.83v-5.96Z"/>
    <path d="M101.72,19.29c-.65,0-1.23.14-1.74.43-.51.29-.94.66-1.29,1.14-.35.47-.62,1.01-.81,1.6-.19.6-.28,1.2-.28,1.83,0,.72.08,1.4.25,2.02.17.62.43,1.16.8,1.61.36.45.83.81,1.39,1.07.56.26,1.23.39,2.01.39.49,0,1-.04,1.53-.12.52-.08,1.01-.21,1.47-.39l-.12-1.32c-.18.11-.38.2-.61.28-.22.09-.46.16-.71.21-.25.06-.49.11-.74.14-.25.03-.47.05-.68.05-.5,0-.95-.09-1.34-.28-.39-.19-.72-.44-.98-.77-.27-.32-.46-.7-.59-1.13-.13-.43-.19-.87-.19-1.34h6.47v-.58c0-.65-.07-1.26-.21-1.85-.14-.58-.37-1.1-.67-1.54-.31-.44-.7-.8-1.19-1.06-.49-.26-1.07-.39-1.76-.39M99.08,23.66c0-.33.05-.68.16-1.06.11-.38.28-.73.51-1.06.23-.32.5-.59.83-.81.33-.21.72-.32,1.16-.32s.81.1,1.12.3c.3.2.55.45.73.77.18.31.31.66.4,1.04.09.38.13.76.13,1.14h-5.03Z"/>
    <path d="M124.3,16.2h-1.54v8.36c0,.52-.07.99-.21,1.41-.14.43-.35.79-.63,1.09-.28.31-.62.54-1.03.71-.41.17-.88.25-1.43.25s-1.02-.08-1.43-.25c-.41-.17-.75-.4-1.02-.71-.27-.3-.48-.67-.62-1.09-.14-.43-.21-.9-.21-1.41v-8.36h-1.54v8.39c0,.74.11,1.41.33,2,.22.6.54,1.1.96,1.5.42.41.93.72,1.52.94.6.22,1.26.33,2,.33s1.4-.11,2-.33c.6-.22,1.1-.54,1.52-.96.42-.42.74-.93.97-1.52.23-.59.34-1.25.34-1.99v-8.37Z"/>
    <path d="M131.58,19.29c-1.4,0-2.44.62-3.13,1.86l-.06-1.67h-1.3c.04.38.07.76.08,1.14.01.38.02.76.02,1.14v7.4h1.42v-5.2c0-.43.04-.85.13-1.27.08-.41.23-.78.44-1.1.21-.32.48-.59.82-.79.33-.2.76-.3,1.26-.3.47,0,.84.08,1.13.24.29.16.51.38.66.65.15.27.26.58.31.93.05.35.08.72.08,1.11v5.73h1.4v-6c0-.56-.05-1.07-.15-1.54-.11-.47-.28-.88-.54-1.22-.25-.34-.59-.61-1-.8-.42-.2-.93-.29-1.55-.29"/>
    <path d="M137.66,29.15h1.42v-9.67h-1.42v9.67ZM137.66,17.33h1.42v-1.69h-1.42v1.69Z"/>
    <polygon points="148.88 19.48 147.41 19.48 144.8 27.91 142.22 19.48 140.69 19.48 143.93 29.15 145.6 29.15 148.88 19.48"/>
    <path d="M154.03,19.29c-.65,0-1.23.14-1.74.43-.51.29-.94.66-1.29,1.14-.35.47-.62,1.01-.81,1.6-.19.6-.28,1.2-.28,1.83,0,.72.09,1.4.25,2.02.17.62.43,1.16.8,1.61.36.45.83.81,1.39,1.07.56.26,1.23.39,2.01.39.49,0,1-.04,1.52-.12.52-.08,1.01-.21,1.47-.39l-.12-1.32c-.18.11-.38.2-.61.28-.23.09-.46.16-.71.21-.25.06-.49.11-.74.14s-.47.05-.68.05c-.51,0-.95-.09-1.34-.28-.39-.19-.71-.44-.98-.77-.26-.32-.46-.7-.59-1.13-.13-.43-.2-.87-.2-1.34h6.47v-.58c0-.65-.07-1.26-.22-1.85-.14-.58-.36-1.1-.67-1.54-.3-.44-.7-.8-1.18-1.06-.49-.26-1.07-.39-1.76-.39M151.39,23.66c0-.33.05-.68.16-1.06.11-.38.28-.73.51-1.06.23-.32.51-.59.84-.81.33-.21.71-.32,1.16-.32s.81.1,1.12.3c.31.2.55.45.73.77.18.31.31.66.4,1.04.09.38.13.76.13,1.14h-5.03Z"/>
    <path d="M163.87,19.29c-.3,0-.58.06-.85.17-.27.12-.52.27-.74.47-.22.2-.42.41-.58.65-.17.24-.3.48-.39.73l-.08-1.83h-1.3c.04.38.07.76.08,1.14.01.38.02.76.02,1.14v7.4h1.42v-4.8c0-.38.03-.78.09-1.21.07-.43.19-.83.36-1.2.18-.37.42-.67.73-.91.31-.24.71-.36,1.21-.36.26,0,.52.04.78.12l.08-1.42c-.14-.04-.28-.06-.41-.07-.13,0-.27,0-.41,0"/>
    <path d="M169.02,19.29c-.4,0-.8.05-1.19.15-.39.11-.75.26-1.07.48-.32.21-.57.49-.77.81-.2.33-.29.73-.29,1.19,0,.49.12.9.35,1.21.23.32.52.58.86.8.34.22.72.4,1.13.55.41.15.78.33,1.13.51.34.18.63.39.86.64.23.25.35.56.35.95,0,.54-.2.95-.6,1.21-.4.27-.87.4-1.42.4-.44,0-.88-.05-1.32-.14-.44-.1-.85-.25-1.24-.46l-.11,1.32c.44.17.89.28,1.36.35.47.07.93.1,1.4.1.43,0,.85-.06,1.25-.18.41-.12.77-.3,1.09-.53.32-.24.57-.53.77-.89.19-.35.29-.76.29-1.22,0-.54-.12-.99-.35-1.35-.23-.36-.52-.65-.87-.89-.34-.24-.72-.45-1.13-.61-.41-.17-.78-.33-1.12-.5-.34-.16-.63-.34-.86-.54-.23-.2-.35-.45-.35-.75s.06-.54.17-.73c.12-.19.27-.34.47-.45.19-.11.41-.19.64-.23.23-.05.47-.07.7-.07.34,0,.71.04,1.11.13.4.09.76.2,1.07.34l.12-1.18c-.38-.14-.77-.25-1.19-.32-.42-.07-.82-.11-1.22-.11"/>
    <path d="M173.95,29.15h1.42v-9.67h-1.42v9.67ZM173.95,17.33h1.42v-1.69h-1.42v1.69Z"/>
    <path d="M180.32,16.82l-1.4.49v2.17h-1.83v1.11h1.83v5.57c0,.44.02.85.07,1.24.04.39.14.73.3,1.02.16.29.38.52.68.69.3.17.69.25,1.18.25.26,0,.53-.02.8-.07.27-.05.53-.12.78-.22l-.08-1.18c-.18.08-.36.14-.53.18-.18.04-.36.07-.55.07-.51,0-.84-.16-1-.49-.16-.32-.24-.7-.24-1.12v-5.94h2.19v-1.11h-2.19v-2.66Z"/>
    <path d="M191.57,19.48h-1.48l-2.58,8.33-2.6-8.33h-1.53l3.36,10-.19.64c-.05.17-.13.38-.22.63-.1.25-.22.5-.36.74-.14.24-.31.44-.51.61-.2.17-.43.25-.71.25-.15,0-.3-.02-.45-.05-.14-.04-.29-.07-.43-.13l-.12,1.22c.22.05.41.09.56.12.16.02.36.04.6.04.36,0,.69-.07.98-.22.29-.14.55-.34.77-.58.22-.25.42-.53.59-.87.17-.33.33-.68.46-1.06l3.86-11.36Z"/>
    <path d="M203.96,19.29c-.71,0-1.35.13-1.91.39-.56.26-1.04.62-1.43,1.07-.39.45-.68.98-.88,1.58-.2.6-.3,1.25-.3,1.95s.09,1.36.28,1.97c.19.62.47,1.16.85,1.62.38.47.85.83,1.42,1.1.56.27,1.22.4,1.97.4s1.41-.13,1.97-.4c.56-.27,1.03-.63,1.41-1.1.38-.46.66-1.01.86-1.62.19-.62.29-1.27.29-1.97s-.09-1.37-.28-1.98c-.19-.61-.47-1.14-.85-1.58-.38-.45-.85-.8-1.42-1.05-.57-.25-1.23-.38-1.98-.38M203.96,28.18c-.53,0-.98-.12-1.36-.35-.38-.23-.69-.53-.94-.9-.25-.37-.42-.79-.53-1.25-.11-.47-.16-.93-.16-1.4s.05-.92.16-1.38c.11-.45.29-.86.53-1.22.24-.36.56-.65.94-.87.38-.22.83-.33,1.36-.33s1,.11,1.38.32c.38.21.69.5.93.85.24.36.41.76.52,1.23.11.46.17.93.17,1.41s-.06.93-.18,1.4c-.12.46-.29.88-.53,1.25-.24.37-.54.67-.92.9s-.83.35-1.36.35"/>
    <path d="M214.2,14.96c-.6,0-1.07.11-1.41.32-.34.22-.6.49-.78.81-.18.32-.29.67-.34,1.06-.05.38-.08.75-.08,1.1v1.24h-1.88v1.12h1.88v8.55h1.42v-8.55h2.15v-1.12h-2.17v-1.3c0-.13,0-.31,0-.53,0-.23.05-.45.13-.67.09-.22.23-.42.42-.58.19-.17.47-.25.83-.25.15,0,.31.01.47.04.16.02.31.07.46.13l.12-1.16c-.17-.09-.37-.14-.61-.16-.24-.02-.45-.03-.63-.03"/>
    <polygon points="230.61 16.2 223.93 16.2 223.93 29.15 230.82 29.15 230.82 27.89 225.46 27.89 225.46 23.11 230.36 23.11 230.36 21.89 225.46 21.89 225.46 17.46 230.61 17.46 230.61 16.2"/>
    <rect x="233.13" y="15.15" width="1.42" height="14"/>
    <path d="M240.9,19.29c-.65,0-1.23.14-1.74.43-.51.29-.94.66-1.29,1.14-.35.47-.62,1.01-.81,1.6-.19.6-.28,1.2-.28,1.83,0,.72.09,1.4.25,2.02.17.62.43,1.16.8,1.61.36.45.83.81,1.39,1.07.56.26,1.23.39,2.01.39.49,0,1-.04,1.52-.12.52-.08,1.01-.21,1.47-.39l-.12-1.32c-.18.11-.39.2-.61.28-.23.09-.46.16-.71.21-.25.06-.49.11-.74.14-.25.03-.47.05-.68.05-.51,0-.95-.09-1.34-.28-.39-.19-.71-.44-.98-.77-.26-.32-.46-.7-.59-1.13-.13-.43-.2-.87-.2-1.34h6.47v-.58c0-.65-.07-1.26-.21-1.85-.14-.58-.36-1.1-.67-1.54-.31-.44-.7-.8-1.18-1.06-.49-.26-1.07-.39-1.76-.39M238.26,23.66c0-.33.06-.68.17-1.06.11-.38.28-.73.5-1.06.23-.32.51-.59.84-.81.33-.21.71-.32,1.16-.32s.81.1,1.12.3c.31.2.55.45.73.77.18.31.31.66.4,1.04.08.38.13.76.13,1.14h-5.03Z"/>
    <path d="M251.1,19.29c-.74,0-1.4.13-1.99.38-.59.25-1.09.6-1.5,1.04-.41.44-.73.97-.95,1.58-.22.62-.33,1.28-.33,1.99s.1,1.36.31,1.98c.2.62.5,1.16.9,1.62.4.46.89.82,1.46,1.09.57.27,1.23.4,1.97.4.43,0,.85-.03,1.26-.08.41-.05.83-.15,1.24-.29l-.1-1.26c-.33.14-.68.25-1.04.33s-.72.12-1.1.12c-.56,0-1.05-.11-1.46-.32-.42-.21-.78-.5-1.06-.86-.28-.36-.5-.78-.64-1.25-.14-.47-.22-.96-.22-1.47,0-.54.07-1.05.22-1.52.14-.47.36-.87.65-1.2.29-.34.65-.6,1.09-.8.43-.2.94-.29,1.52-.29.35,0,.69.05,1.04.14.34.09.67.21.98.35l.12-1.26c-.38-.13-.77-.23-1.16-.3-.4-.07-.8-.11-1.21-.11"/>
    <path d="M257.64,16.82l-1.4.49v2.17h-1.83v1.11h1.83v5.57c0,.44.02.85.07,1.24.05.39.14.73.3,1.02.16.29.38.52.68.69.3.17.69.25,1.18.25.26,0,.52-.02.8-.07.27-.05.53-.12.78-.22l-.08-1.18c-.18.08-.36.14-.53.18-.18.04-.36.07-.55.07-.51,0-.84-.16-1-.49-.16-.32-.24-.7-.24-1.12v-5.94h2.19v-1.11h-2.19v-2.66Z"/>
    <path d="M265.72,19.29c-.3,0-.58.06-.85.17-.27.12-.52.27-.74.47-.22.2-.41.41-.58.65-.17.24-.3.48-.39.73l-.08-1.83h-1.3c.04.38.07.76.08,1.14.01.38.02.76.02,1.14v7.4h1.42v-4.8c0-.38.03-.78.1-1.21.07-.43.18-.83.36-1.2.18-.37.42-.67.73-.91.31-.24.71-.36,1.21-.36.26,0,.52.04.78.12l.08-1.42c-.14-.04-.28-.06-.41-.07-.13,0-.27,0-.41,0"/>
    <path d="M271.96,19.29c-.71,0-1.35.13-1.91.39-.56.26-1.04.62-1.43,1.07-.39.45-.68.98-.89,1.58-.2.6-.3,1.25-.3,1.95s.09,1.36.28,1.97c.19.62.47,1.16.85,1.62.38.47.85.83,1.42,1.1.56.27,1.22.4,1.97.4s1.41-.13,1.97-.4c.56-.27,1.03-.63,1.41-1.1.38-.46.66-1.01.85-1.62.19-.62.29-1.27.29-1.97s-.1-1.37-.28-1.98c-.19-.61-.47-1.14-.84-1.58-.38-.45-.85-.8-1.42-1.05-.57-.25-1.23-.38-1.98-.38M271.96,28.18c-.53,0-.98-.12-1.36-.35-.38-.23-.69-.53-.94-.9-.24-.37-.42-.79-.53-1.25-.11-.47-.16-.93-.16-1.4s.05-.92.16-1.38c.11-.45.29-.86.53-1.22.24-.36.56-.65.94-.87.38-.22.83-.33,1.36-.33s1,.11,1.38.32c.38.21.69.5.93.85.24.36.41.76.52,1.23.11.46.16.93.16,1.41s-.06.93-.17,1.4c-.12.46-.29.88-.53,1.25-.24.37-.55.67-.93.9-.38.23-.83.35-1.36.35"/>
    <rect x="278.05" y="22.49" width="4.7" height="1.28"/>
    <path d="M291.16,16.01c-.98,0-1.88.17-2.7.51-.81.34-1.52.8-2.11,1.39-.59.59-1.05,1.29-1.37,2.1-.33.82-.49,1.71-.49,2.68s.15,1.93.47,2.75c.31.82.75,1.52,1.33,2.11.58.58,1.27,1.03,2.1,1.35.82.32,1.75.48,2.77.48.48,0,1.01-.04,1.58-.13.58-.09,1.08-.24,1.5-.46l-.12-1.3c-.45.21-.93.36-1.43.43-.5.07-1,.11-1.49.11-.81,0-1.54-.13-2.17-.39-.64-.26-1.17-.62-1.6-1.09-.43-.47-.76-1.04-.99-1.69-.23-.66-.34-1.38-.34-2.17s.12-1.47.35-2.12c.23-.65.57-1.22,1.01-1.69.44-.48.98-.85,1.61-1.12.64-.27,1.35-.4,2.16-.4.45,0,.94.04,1.46.13.52.09.98.22,1.4.41l.12-1.38c-.43-.18-.92-.31-1.49-.39-.57-.08-1.09-.12-1.56-.12"/>
    <path d="M300.31,19.29c-.71,0-1.35.13-1.91.39-.56.26-1.04.62-1.43,1.07-.39.45-.68.98-.89,1.58-.2.6-.3,1.25-.3,1.95s.1,1.36.28,1.97c.19.62.47,1.16.85,1.62.38.47.85.83,1.42,1.1.56.27,1.22.4,1.97.4s1.41-.13,1.97-.4c.56-.27,1.03-.63,1.41-1.1.37-.46.66-1.01.85-1.62.19-.62.29-1.27.29-1.97s-.09-1.37-.28-1.98c-.19-.61-.47-1.14-.84-1.58-.38-.45-.85-.8-1.42-1.05-.57-.25-1.23-.38-1.98-.38M300.31,28.18c-.53,0-.98-.12-1.36-.35-.38-.23-.69-.53-.94-.9-.24-.37-.42-.79-.53-1.25-.11-.47-.16-.93-.16-1.4s.05-.92.16-1.38c.11-.45.29-.86.53-1.22.25-.36.56-.65.94-.87.38-.22.83-.33,1.36-.33s1,.11,1.38.32c.38.21.69.5.92.85.24.36.41.76.52,1.23.11.46.16.93.16,1.41s-.06.93-.18,1.4c-.12.46-.29.88-.53,1.25-.24.37-.55.67-.93.9-.38.23-.83.35-1.36.35"/>
    <path d="M316.97,19.29c-.31,0-.62.05-.91.15-.3.09-.58.23-.85.41-.27.17-.5.39-.7.64-.2.25-.36.53-.48.83-.06-.25-.17-.49-.32-.74-.15-.25-.34-.46-.58-.65-.24-.19-.52-.34-.83-.46-.32-.12-.68-.17-1.08-.17-1.28,0-2.24.62-2.89,1.86l-.06-1.67h-1.3c.04.38.06.76.08,1.14.02.38.02.76.02,1.14v7.4h1.42v-5.22c0-.43.04-.85.13-1.25.08-.41.22-.78.42-1.1.2-.32.45-.59.76-.79.31-.2.69-.3,1.13-.3.36,0,.67.06.91.18.25.12.44.29.58.49.14.21.25.45.31.74.07.28.1.59.1.91v6.33h1.42v-5.22c0-.43.04-.85.13-1.25.09-.41.22-.78.42-1.1.2-.32.44-.59.75-.79.31-.2.68-.3,1.12-.3.36,0,.67.06.91.18.25.12.44.29.59.49.15.21.26.45.32.74.07.28.1.59.1.91v6.33h1.42v-6.58c0-.47-.07-.9-.2-1.3-.13-.4-.32-.75-.57-1.04-.25-.29-.57-.52-.94-.69-.38-.17-.81-.25-1.3-.25"/>
    <path d="M332.7,19.29c-.31,0-.62.05-.91.15-.3.09-.58.23-.84.41-.27.17-.5.39-.7.64-.2.25-.36.53-.47.83-.07-.25-.17-.49-.32-.74-.15-.25-.34-.46-.58-.65-.24-.19-.52-.34-.84-.46-.32-.12-.68-.17-1.08-.17-1.28,0-2.24.62-2.89,1.86l-.06-1.67h-1.3c.04.38.06.76.08,1.14.01.38.02.76.02,1.14v7.4h1.42v-5.22c0-.43.04-.85.13-1.25.08-.41.22-.78.42-1.1.2-.32.45-.59.76-.79.31-.2.68-.3,1.12-.3.36,0,.67.06.91.18.25.12.44.29.58.49.14.21.25.45.31.74.07.28.1.59.1.91v6.33h1.42v-5.22c0-.43.04-.85.13-1.25.09-.41.22-.78.42-1.1.19-.32.44-.59.75-.79.31-.2.68-.3,1.12-.3.36,0,.67.06.91.18.25.12.44.29.59.49.15.21.25.45.32.74.07.28.1.59.1.91v6.33h1.42v-6.58c0-.47-.06-.9-.19-1.3-.13-.4-.32-.75-.57-1.04-.25-.29-.57-.52-.94-.69-.38-.17-.81-.25-1.3-.25"/>
    <path d="M346.08,19.48h-1.4v5.2c0,.43-.04.85-.13,1.26-.09.42-.23.78-.44,1.11-.21.32-.48.59-.81.79-.34.2-.76.3-1.26.3-.47,0-.84-.08-1.12-.24-.28-.16-.49-.38-.64-.65-.15-.27-.25-.58-.3-.93-.05-.35-.08-.72-.08-1.11v-5.73h-1.42v5.98c0,.56.05,1.07.16,1.55.1.48.28.89.53,1.24.25.35.58.62.99.81.41.2.92.29,1.54.29.71,0,1.33-.16,1.85-.48.52-.31.95-.79,1.28-1.41l.04,1.67h1.3c-.04-.38-.06-.76-.08-1.14-.01-.38-.02-.76-.02-1.14v-7.4Z"/>
    <path d="M353.3,19.29c-1.4,0-2.44.62-3.13,1.86l-.06-1.67h-1.3c.04.38.07.76.08,1.14.01.38.02.76.02,1.14v7.4h1.42v-5.2c0-.43.04-.85.13-1.27.08-.41.23-.78.44-1.1.21-.32.48-.59.81-.79.34-.2.76-.3,1.26-.3.47,0,.84.08,1.13.24.28.16.51.38.66.65.16.27.26.58.31.93.05.35.08.72.08,1.11v5.73h1.4v-6c0-.56-.05-1.07-.15-1.54-.1-.47-.28-.88-.53-1.22-.25-.34-.59-.61-1-.8-.41-.2-.93-.29-1.55-.29"/>
    <path d="M359.38,29.15h1.42v-9.67h-1.42v9.67ZM359.38,17.33h1.42v-1.69h-1.42v1.69Z"/>
    <path d="M367.81,19.29c-.74,0-1.4.13-1.99.38-.59.25-1.09.6-1.5,1.04-.41.44-.73.97-.95,1.58-.22.62-.33,1.28-.33,1.99s.1,1.36.3,1.98c.2.62.51,1.16.9,1.62.4.46.89.82,1.46,1.09.58.27,1.23.4,1.97.4.43,0,.85-.03,1.26-.08.42-.05.83-.15,1.24-.29l-.1-1.26c-.34.14-.68.25-1.04.33s-.72.12-1.1.12c-.56,0-1.05-.11-1.47-.32-.42-.21-.77-.5-1.06-.86-.28-.36-.5-.78-.64-1.25-.14-.47-.21-.96-.21-1.47,0-.54.07-1.05.21-1.52.14-.47.36-.87.65-1.2.29-.34.65-.6,1.09-.8.43-.2.94-.29,1.52-.29.35,0,.69.05,1.04.14.34.09.67.21.98.35l.11-1.26c-.38-.13-.76-.23-1.17-.3-.4-.07-.8-.11-1.2-.11"/>
    <path d="M375.44,19.29c-.45,0-.95.06-1.5.18-.55.12-1.03.27-1.45.45l.12,1.26c.43-.28.87-.49,1.34-.6.47-.12.94-.17,1.44-.17.8,0,1.37.21,1.69.64.32.43.49,1.01.49,1.75v.47h-.76c-.74,0-1.43.06-2.09.18-.65.11-1.22.31-1.7.57-.48.26-.86.61-1.14,1.04-.28.43-.42.95-.42,1.57,0,.47.08.87.25,1.21.17.34.4.63.68.85.28.23.62.4,1.01.5.39.11.8.17,1.22.17.61,0,1.19-.15,1.76-.46.56-.3.98-.74,1.25-1.31l.06,1.56h1.38c-.05-.34-.09-.67-.1-1.01-.01-.34-.02-.69-.02-1.05v-4.2c0-1.22-.28-2.12-.85-2.72-.56-.6-1.45-.89-2.67-.89M374.88,28.22c-.26,0-.51-.03-.75-.1-.24-.06-.45-.17-.63-.3-.18-.14-.32-.31-.43-.51-.1-.21-.16-.45-.16-.74,0-.53.15-.95.44-1.25.29-.3.66-.53,1.1-.68.44-.15.92-.24,1.43-.28.51-.04.98-.06,1.41-.06h.27v.58c0,.45-.04.88-.13,1.28-.09.4-.23.76-.44,1.06-.21.3-.48.55-.83.73-.34.18-.77.27-1.29.27"/>
    <path d="M383.93,16.82l-1.4.49v2.17h-1.83v1.11h1.83v5.57c0,.44.02.85.07,1.24.04.39.14.73.3,1.02.16.29.38.52.68.69.3.17.69.25,1.18.25.26,0,.53-.02.8-.07.27-.05.53-.12.78-.22l-.08-1.18c-.18.08-.36.14-.53.18-.18.04-.36.07-.55.07-.51,0-.84-.16-1-.49-.16-.32-.24-.7-.24-1.12v-5.94h2.19v-1.11h-2.19v-2.66Z"/>
    <path d="M388.16,29.15h1.42v-9.67h-1.42v9.67ZM388.16,17.33h1.42v-1.69h-1.42v1.69Z"/>
    <path d="M396.34,19.29c-.71,0-1.35.13-1.91.39-.56.26-1.04.62-1.43,1.07-.39.45-.68.98-.88,1.58-.2.6-.3,1.25-.3,1.95s.09,1.36.28,1.97c.19.62.47,1.16.85,1.62.38.47.85.83,1.42,1.1.56.27,1.22.4,1.97.4s1.41-.13,1.97-.4c.56-.27,1.03-.63,1.41-1.1.38-.46.66-1.01.86-1.62.19-.62.29-1.27.29-1.97s-.09-1.37-.28-1.98c-.19-.61-.47-1.14-.85-1.58-.38-.45-.85-.8-1.42-1.05-.57-.25-1.23-.38-1.98-.38M396.34,28.18c-.53,0-.98-.12-1.36-.35-.38-.23-.69-.53-.93-.9-.25-.37-.42-.79-.53-1.25-.11-.47-.16-.93-.16-1.4s.05-.92.16-1.38c.11-.45.29-.86.53-1.22.24-.36.56-.65.93-.87.38-.22.83-.33,1.36-.33s1,.11,1.38.32c.38.21.69.5.93.85.24.36.41.76.52,1.23.11.46.16.93.16,1.41s-.06.93-.18,1.4c-.12.46-.29.88-.53,1.25-.24.37-.55.67-.93.9-.38.23-.83.35-1.36.35"/>
    <path d="M407.48,19.29c-1.4,0-2.44.62-3.13,1.86l-.06-1.67h-1.3c.04.38.06.76.08,1.14.01.38.02.76.02,1.14v7.4h1.42v-5.2c0-.43.04-.85.13-1.27.08-.41.23-.78.44-1.1.2-.32.48-.59.81-.79.34-.2.76-.3,1.26-.3.46,0,.84.08,1.12.24.29.16.51.38.66.65.15.27.26.58.31.93.05.35.08.72.08,1.11v5.73h1.4v-6c0-.56-.05-1.07-.15-1.54-.1-.47-.28-.88-.53-1.22-.25-.34-.59-.61-1-.8-.42-.2-.93-.29-1.56-.29"/>
    <path d="M416.18,19.29c-.4,0-.8.05-1.19.15-.39.11-.75.26-1.07.48-.32.21-.57.49-.76.81-.2.33-.29.73-.29,1.19,0,.49.12.9.35,1.21.23.32.52.58.86.8.34.22.72.4,1.13.55.41.15.78.33,1.13.51.34.18.63.39.86.64.23.25.35.56.35.95,0,.54-.2.95-.6,1.21-.4.27-.87.4-1.42.4-.44,0-.88-.05-1.32-.14-.44-.1-.85-.25-1.24-.46l-.12,1.32c.44.17.89.28,1.36.35.47.07.93.1,1.4.1.43,0,.85-.06,1.25-.18.41-.12.77-.3,1.09-.53.32-.24.57-.53.77-.89.2-.35.29-.76.29-1.22,0-.54-.12-.99-.35-1.35-.23-.36-.52-.65-.86-.89-.34-.24-.72-.45-1.13-.61-.41-.17-.78-.33-1.12-.5-.34-.16-.63-.34-.86-.54-.23-.2-.35-.45-.35-.75s.06-.54.17-.73c.12-.19.27-.34.47-.45.19-.11.41-.19.64-.23.23-.05.47-.07.7-.07.34,0,.71.04,1.11.13.4.09.76.2,1.07.34l.12-1.18c-.38-.14-.77-.25-1.19-.32-.42-.07-.82-.11-1.22-.11"/>
  </g>
  <rect class="cls-9" x="66.83" y=".43" width=".35" height="36.97"/>
  <g>
    <path class="cls-2" d="M8.79,28.73c-1.14-.1-2.89-.57-3.91-1.4-1.02-.83-1.45-1.69-1.49-3.23-.04-1.61-.04-14.51-.04-14.51h5.19s.04,14.2.04,14.68.21,1.14.72,1.56c.51.42,1.41.62,2.14.62,1.07,0,2.02-.21,2.53-.62.51-.42.62-.79.72-1.56.09-.68.04-14.68.04-14.68h4.21s0,12.88-.04,14.51c-.04,1.48-.47,2.38-1.49,3.22-1,.82-2.4,1.31-3.58,1.41-1.87.15-3.48.14-5.05,0"/>
    <path class="cls-2" d="M21.84,27.02V9.6h12.99v2.12h-7.8v5.84h6.57v2.1h-6.57v6.85h7.8v2.12h-11.31c-1.31,0-1.69-.61-1.69-1.6"/>
    <path class="cls-2" d="M38.12,27.49l.21-.11c1.23-.68,2.44-1.4,3.6-2.15h.02c-.16-.35-.25-.72-.26-1.05-.09-2.59-.07-7.07,0-9.86.03-1,.12-1.44.77-1.98.5-.42,1.38-.63,2.09-.66.73-.03.88-.04,2.36,0,1.47.04,2.38.25,2.58,1.65h2.61c-.2-2.81-1.93-3.7-5.19-3.82-3.26-.11-3.84-.06-5.22.04-1.32.09-2.68.46-3.69,1.3-1,.84-1.45,1.65-1.51,3.38-.13,4.33-.13,6.34,0,9.78.03.9.18,2.13,1.53,3.39l.1.08Z"/>
    <path class="cls-2" d="M46.9,26.57c-1.45.03-1.53.03-2.36,0-.18,0-.36-.02-.53-.05l-.42.26c-.95.59-1.96,1.18-2.98,1.76.43.09.82.14,1.08.15,1.05.05,2.22.11,5.22.04,2.93-.07,4.96-1,5.19-3.82h-2.61c-.2,1.4-1.12,1.62-2.58,1.65"/>
    <g class="cls-12">
      <rect class="cls-4" x="9.22" y="17.52" width="4.16" height="3.77"/>
    </g>
    <g class="cls-6">
      <rect class="cls-11" x=".46" y="4.05" width="60.35" height="35.67"/>
    </g>
    <g class="cls-8">
      <rect class="cls-3" x="49.57" y="15.73" width="5.17" height="5.18"/>
    </g>
    <g class="cls-7">
      <rect class="cls-10" x="41.37" y="3.65" width="2.85" height="2.84"/>
    </g>
    <path class="cls-5" d="M12.49,36.21c0,1.76-1.43,3.2-3.2,3.2s-3.2-1.43-3.2-3.2,1.43-3.2,3.2-3.2,3.2,1.43,3.2,3.2Z"/>
  </g>
</svg>