<?xml version="1.0" encoding="UTF-8"?>
<svg id="_レイヤー_1" data-name="レイヤー 1" xmlns="http://www.w3.org/2000/svg" viewBox="0 0 320 60">
  <defs>
    <style>
      .cls-1 {
        fill: #fff;
        stroke-width: 0px;
      }
    </style>
  </defs>
  <g>
    <path class="cls-1" d="M188.15,35.89c-1.67,0-3.33.13-5,.13-1.04,0-.99-.54-.99-2.11s-.04-2.12.99-2.12c1.67,0,3.33.14,5,.14h4.72c.85,0,1.21-.41,1.21-1.26v-1.39c0-.63,0-1.31-.09-1.93-.04-.14-.04-.27-.04-.45,0-.54.36-.67.85-.67.72,0,3.51.18,4.23.27.31.04.72.18.72.58,0,.36-.27.45-.5.63-.58.41-.54.99-.54,2.83v.13c0,.85.36,1.17,1.26,1.26h4.19c1.03,0,2.07-.09,3.15-.09,1.39,0,2.16.36,2.16,1.89,0,1.94-.63,8.01-.63,9.5,0,1.4.22,1.71,1.62,1.71h2.57c1.71,0,1.89-.5,2.38-3.51.18-.95.22-1.48,1.17-1.48s3.2.49,3.2,2.02c0,1.44-.9,4.63-1.71,5.85-.9,1.4-2.7,1.44-4.23,1.44h-4.54c-2.79,0-5.17.09-5.17-3.46,0-1.21.5-7.02.54-8.73.04-.85-.36-1.17-1.17-1.17h-3.78c-.86,0-1.26.32-1.49,1.17-1.44,5.71-5.89,9.45-11.29,11.43-1.08.41-3.83,1.21-4.91,1.21-1.53,0-2.29-2.83-2.29-3.64,0-.77.5-.86,1.17-.95,5.04-.63,10.62-2.92,12.46-8.05.04-.13.09-.22.09-.36,0-.59-.5-.77-.99-.81h-4.32ZM203.14,13.88h7.29c1.71,0,3.38-.09,5.08-.09,1.17,0,2.61.27,2.61,1.75,0,.45-.04,1.26-.04,2.02v.99c0,.36.09.99.09,1.3,0,1.04-.86.99-2.25.99-1.49,0-2.38.04-2.38-.86,0-.22,0-.72.04-.94,0-.9-.41-1.21-1.21-1.21h-5.67c-.86,0-1.21.41-1.21,1.26v3.51c0,1.44.67,1.44,1.89,1.44h3.1c1.4,0,1.67-.18,1.98-1.98.13-.67.31-.9.99-.9.72,0,3.28.32,3.28,1.67,0,1.17-.85,3.24-1.62,4.14-.94,1.17-2.34,1.12-3.73,1.12h-5.44c-3.15,0-5.04-.23-5.04-3.15,0-.54.04-1.12.04-1.67v-4.18c0-.85-.36-1.26-1.26-1.26h-4.05c-.23.04-.23.13-.23.18,0,.09,0,.18.13.22.95.31,1.85.54,1.85,1.08,0,.31-.45.45-.67.54-.45.09-.58.18-.77.59-2.34,4.72-6.25,7.83-11.25,9.27-.5.13-1.31.36-1.8.36-1.35,0-2.25-2.29-2.25-3.15,0-.72.67-.72,1.62-.95,3.92-.85,7.56-3.28,9.36-7.02.04-.14.09-.23.09-.41,0-.49-.45-.67-.9-.72h-4.32c-.9,0-1.26.41-1.26,1.26v.32c0,.54.09,1.04.09,1.57,0,.99-.9.95-2.34.95s-2.34.04-2.34-.99c0-.45.09-1.04.09-1.53v-1.53c0-.94-.04-1.75-.04-2.25,0-1.53,1.35-1.84,2.61-1.84,1.71,0,3.42.09,5.13.09h7.33c.81,0,1.21-.31,1.26-1.21,0-.58-.13-1.48-.18-2.07,0-.13-.04-.27-.04-.4,0-.59.5-.63.94-.63.95,0,2.83.18,3.87.27.5.04,1.35.04,1.35.58,0,.27-.18.36-.54.63-.54.32-.49.85-.54,1.67.04.86.45,1.17,1.26,1.17Z"/>
    <path class="cls-1" d="M254.44,13.25c.31.13.76.32.76.76,0,.32-.18.5-.31.77-.63.99-.63,1.8-.77,2.92,0,.09-.04.32-.04.41,0,.9.86.99,1.49,1.17,6.16,1.57,10.35,5.98,10.35,12.51,0,7.6-5.17,12.24-11.61,15.3-.58.27-1.58.76-2.25.76-1.04,0-2.83-2.75-2.83-3.64,0-.54.67-.67,1.39-.9,5.22-1.71,10.58-5.53,10.58-11.61s-5.9-8.23-7.16-8.23c-.63,0-.9.58-.99,1.08-.85,4.73-2.88,9.86-5.76,13.68-2.29,3.06-5.94,6.17-9.94,6.17s-5.58-4.36-5.58-7.83c0-4.28,1.4-7.92,4.19-11.12.31-.31.5-.58.5-1.04,0-.36-.14-.72-.27-1.08-.63-1.89-1.12-3.82-1.75-5.76-.04-.18-.13-.45-.13-.67,0-.41.36-.63.72-.72.67-.22,2.97-.9,3.55-.9.72,0,.77.72.86,1.31.18,1.08.54,2.79.81,3.83.13.4.32.72.81.72.31,0,.49-.09.76-.22,2.02-1.04,3.73-1.62,5.98-1.98,1.53-.23,1.62-.5,1.62-3.92,0-.67-.04-1.35-.04-1.98,0-.45.09-.81.63-.81.63,0,3.78.76,4.46,1.04ZM241.61,36.47c-.9-1.85-1.75-3.65-2.57-5.54-.09-.22-.31-.63-.63-.63-.72,0-2.12,3.33-2.12,6.21,0,1.17.18,3.28,1.71,3.28,1.31,0,3.78-1.62,3.78-2.66,0-.27-.09-.45-.18-.67ZM242.11,26.35c0,.58,1.53,4.18,1.85,4.9.4.9.58,1.44,1.03,1.44,1.17,0,3.46-7.42,3.46-8.68,0-.41-.22-.63-.63-.63-1.08,0-5.71,1.49-5.71,2.97Z"/>
    <path class="cls-1" d="M306.91,17.3c0,.31-.5.58-.99.95-2.52,1.75-4.41,3.82-6.52,6.03-.18.18-.45.5-.45.77,0,.36.36.58.76.58.18,0,.41-.04.58-.09.59-.13,1.26-.18,1.85-.18,1.8,0,3.91.54,5.53,1.35,3.51,1.8,5.36,4.81,5.36,8.73,0,7.96-7.07,12.1-14.31,12.1-3.74,0-9.04-1.53-9.04-6.12,0-3.11,2.75-5.45,5.76-5.45,2.34,0,4.72,1.26,5.98,3.2.68,1.04.81,1.71.81,2.88.04.32.18.58.54.58,1.17,0,5.44-2.38,5.44-6.93s-3.69-6.16-7.6-6.16-7.2,1.57-10.08,4.41c-1.76,1.71-3.38,3.55-5,5.4-.13.18-.27.32-.5.32-.95,0-3.24-2.52-3.24-3.24,0-.54.68-1.03,1.08-1.35,4.63-4,9.85-9.58,14-14.13.36-.36,1.17-1.17,1.17-1.62,0-.41-.41-.54-.77-.54-.22,0-.81.14-1.08.18-1.08.27-7.42,1.58-8.14,1.58-.99,0-1.12-3.38-1.12-4.14,0-1.04.04-1.12,1.4-1.12h1.08c2.88,0,8.77-.63,11.38-1.66.5-.18,1.21-.5,1.71-.5,1.8,0,4.41,3.42,4.41,4.18ZM295.52,39.62c-.99,0-1.93.72-1.93,1.8,0,1.62,2.16,2.38,3.51,2.38.85,0,1.21-.81,1.21-1.53,0-1.4-1.21-2.66-2.79-2.66Z"/>
  </g>
  <g>
    <path class="cls-1" d="M17.91,50.22c-2.3-.2-5.82-1.14-7.87-2.81-2.05-1.67-2.91-3.4-2.99-6.49-.08-3.24-.08-29.19-.08-29.19h10.44s.07,28.56.08,29.52c.02.96.43,2.3,1.45,3.13,1.02.84,2.84,1.25,4.3,1.25,2.16,0,4.07-.42,5.09-1.25,1.02-.84,1.25-1.59,1.45-3.13.17-1.37.08-29.52.08-29.52h8.48s0,25.9-.08,29.19c-.08,2.98-.94,4.79-2.99,6.47-2.02,1.65-4.82,2.64-7.2,2.83-3.77.29-7.01.28-10.16,0"/>
    <path class="cls-1" d="M50.25,46.78V11.74h26.13v4.26h-15.69v11.73h13.21v4.22h-13.21v13.77h15.69v4.27h-22.74c-2.64,0-3.39-1.23-3.39-3.22"/>
    <path class="cls-1" d="M109.41,45.87c-2.92.06-3.08.05-4.74,0-.32-.01-.64-.04-.96-.09,0,0,0,0,0,0-.02,0-.04,0-.07,0-.02,0-.03,0-.05,0h0c-.51-.04-1.42-.2-2.37-.79-.99-.61-1.53-1.4-1.78-1.81-.32-.69-.5-1.44-.52-2.09-.17-5.22-.15-14.21,0-19.83.05-2.01.25-2.9,1.54-3.98,1.02-.85,2.77-1.26,4.2-1.33,1.46-.07,1.77-.08,4.74,0,2.96.08,4.79.51,5.2,3.33h5.25c-.39-5.66-3.88-7.44-10.44-7.67-6.55-.23-7.71-.11-10.49.08-2.66.19-5.4.93-7.41,2.61-2.02,1.69-2.92,3.31-3.03,6.79-.26,8.71-.26,12.75,0,19.67.04.94.13,2.05.59,3.26.73,1.91,1.96,3.1,2.48,3.56,1.92,1.69,4.03,2.1,5.19,2.25,0,0,0,0,0,0,.87.18,1.65.28,2.17.31,2.11.1,4.47.23,10.49.08,5.9-.15,9.98-2.02,10.44-7.68h-5.25c-.39,2.82-2.25,3.26-5.2,3.33"/>
  </g>
  <path class="cls-1" d="M136.55,24.74c4.38-.27,8.76-.72,13.11-1.23,2.28-.27,4.56-.57,6.81-.93.12-.03.27-.03.39-.03.45,0,.51.39.57.75.12.51.27,1.68.27,2.19,0,.66-.63.6-1.35.63-1.74.03-3.27.03-4.98.63-2.31.84-3.93,2.31-5.1,4.47-.87,1.59-1.44,3.45-1.44,5.28,0,3.48,2.22,4.32,5.28,4.32.51,0,1.17-.03,1.5-.03.45,0,.69.03.69.51,0,.6-.21,1.92-.45,2.46-.21.45-.45.51-.96.51-5.1,0-9.48-1.62-9.48-7.47,0-3.06,1.26-6.36,3.3-8.61.33-.36.51-.57.51-.72,0-.27-.24-.36-.45-.36s-1.59.24-1.89.27c-2.01.3-4.71.72-6.63,1.23-.15.03-.3.06-.45.06-.42,0-.57-.66-.66-.99-.12-.51-.33-1.65-.33-2.16,0-.78.42-.69,1.74-.78ZM156.47,32.06c0,.45-1.2,1.26-1.53,1.26-.21,0-.3-.21-.42-.36-.6-.87-1.26-1.71-1.92-2.52-.09-.09-.27-.27-.27-.42,0-.36,1.2-1.11,1.53-1.11s2.61,2.79,2.61,3.15ZM160.1,30.41c0,.42-1.17,1.26-1.53,1.26-.21,0-.33-.24-.45-.39-.48-.72-1.35-1.83-1.95-2.49-.09-.09-.21-.27-.21-.39,0-.36,1.17-1.14,1.53-1.14.3,0,2.61,2.79,2.61,3.15Z"/>
</svg>