<?xml version="1.0" encoding="UTF-8"?>
<svg id="_レイヤー_1" data-name="レイヤー 1" xmlns="http://www.w3.org/2000/svg" viewBox="0 0 320 60">
  <defs>
    <style>
      .cls-1 {
        fill: #fff;
        stroke-width: 0px;
      }
    </style>
  </defs>
  <g>
    <path class="cls-1" d="M222.02,39.24c-.86,0-1.26.36-1.26,1.26v1.71c0,1.08.09,2.16.09,3.24,0,1.21-.41,2.52-1.35,3.24-1.58,1.21-4.81,1.21-6.7,1.21-1.17,0-2.07.04-2.52-.72-.36-.58-.54-1.8-.54-2.47,0-.81.32-1.21,1.17-1.21.63,0,1.49.09,2.34.09,3.02,0,2.97-.68,2.97-3.2v-1.89c0-.9-.36-1.26-1.26-1.26h-9.22c-1.8,0-3.6.09-5.44.09-1.04,0-1.04-.45-1.04-2.02s0-2.07,1.04-2.07c1.8,0,3.6.13,5.44.13h9.22c.81,0,1.21-.36,1.21-1.21-.04-.36-.13-1.3-.13-1.49,0-.54.36-.63.76-.63.32,0,.59.04.86.04h.22c.63,0,.95-.09,1.44-.45.41-.32,2.43-1.85,2.43-2.25,0-.36-.63-.32-1.12-.32h-7.88c-1.53,0-3.1.13-4.68.13-1.03,0-1.03-.54-1.03-2.02,0-1.58,0-2.03,1.08-2.03,1.58,0,3.11.13,4.63.13h9.72c1.26,0,2.48-.09,3.74-.09.94,0,1.26.27,1.84.95.36.4.95,1.12.95,1.66,0,1.49-6.62,6.17-8.01,7.11-.13.09-.13.14-.18.27.05.13.14.13.27.18h9.81c1.8,0,3.64-.13,5.44-.13,1.04,0,.99.54.99,2.07s.04,2.02-.99,2.02c-1.8,0-3.64-.09-5.44-.09h-8.86ZM234.13,18.36c1.3,0,2.43.18,2.43,1.76,0,.9-.09,1.84-.09,2.88v1.67c0,.67.13,1.4.13,2.12,0,1.12-.63,1.12-2.34,1.12s-2.38,0-2.38-1.12c0-.72.13-1.4.13-2.12v-1.26c0-.9-.41-1.26-1.26-1.26h-24.93c-.9,0-1.26.36-1.26,1.26v1.26c0,.72.09,1.44.09,2.12,0,1.12-.72,1.12-2.34,1.12-1.71,0-2.29,0-2.29-1.17,0-.63.09-1.4.09-2.07v-1.67c0-.99-.05-1.93-.05-2.83,0-1.62,1.08-1.8,2.39-1.8.9,0,1.75,0,2.61.04.36-.04.67-.18.67-.58,0-.14-.04-.27-.09-.41-.72-1.17-1.71-2.7-2.56-3.78-.18-.22-.36-.5-.36-.81,0-.85,2.25-1.98,3.1-1.98.72,0,1.26.72,2.57,2.61.41.58,1.62,2.34,1.62,2.97,0,.67-.86,1.17-1.35,1.49-.09.09-.13.13-.13.27,0,.18.13.22.27.22h13.81c.9,0,1.3-.09,1.93-.81,1.67-2.02,3.06-4.23,4.32-6.52.14-.27.27-.59.63-.59.58,0,3.15,1.12,3.82,1.44.32.14.72.32.72.72s-.49.5-.76.54c-.41.13-.72.22-.9.63-.77,1.26-1.53,2.47-2.43,3.65-.09.13-.13.22-.13.41,0,.36.27.49.54.54,1.26,0,2.52-.04,3.78-.04ZM217.43,17.87c-.5,0-.77-.36-.99-.77-.76-1.44-1.89-3.2-2.83-4.5-.18-.27-.36-.49-.36-.81,0-.94,2.25-1.98,3.06-1.98.85,0,1.53,1.21,2.74,3.06.04.09.14.22.27.41.45.76,1.21,1.98,1.21,2.47,0,.95-2.34,2.12-3.1,2.12Z"/>
    <path class="cls-1" d="M267.83,45.22c-1.08,0-5.71-.32-6.39-.94-.36-.36-.5-3.11-.5-3.69,0-.45.18-.81.67-.81.32,0,.81.13,1.12.22,1.31.4,2.57.72,3.96.72,1.17,0,2.03-.41,2.03-1.71,0-1.71-1.94-4.59-2.97-4.59-.72,0-3.46,1.75-4.19,2.21-2.74,1.71-5.49,3.38-8.14,5.22-1.08.72-1.04.72-1.35,1.35-.13.27-.41.63-.72.63-.77,0-3.02-4.27-3.02-4.86,0-.4.5-.63.86-.76,3.69-1.44,8.64-4.54,12.33-6.48.45-.23.99-.45.99-1.04,0-.32-.18-.45-.32-.72-.81-1.08-1.21-1.84-1.21-3.24,0-1.12.81-5.35,2.21-5.35.63,0,3.74,1.12,3.74,1.8,0,.18-.18.45-.36.81-.41.67-.95,1.62-.95,2.75,0,.94,1.49,2.61,2.38,2.61.18,0,.36-.04.54-.04.77-.14,1.53-.23,2.34-.23,10.75,0,16.47,10.44,16.47,11.25,0,.77-3.19,2.47-4.23,2.47-.54,0-.77-.63-1.08-1.3-1.35-2.88-3.96-6.03-6.97-7.33-.58-.27-2.03-.72-2.66-.72-.31,0-.85.23-.85.63,0,.22.18.4.27.58,1.21,1.71,1.98,3.56,1.98,5.67,0,3.74-2.61,4.91-5.99,4.91ZM269.23,14.94c.81.45,2.97,1.62,3.6,2.16.22.18.36.36.36.63,0,.67-1.8,3.78-2.52,3.78-.31,0-.54-.22-.76-.36-1.98-1.62-4.14-2.92-6.48-4-.49-.22-.99-.4-.99-.95,0-.63,1.3-3.38,2.21-3.38.63,0,3.87,1.71,4.59,2.12ZM279.44,17.37c.45,0,4.23,3.87,4.23,4.46,0,.63-1.58,2.03-2.16,2.03-.27,0-.45-.22-.58-.41-1.04-1.3-2.16-2.47-3.33-3.64-.13-.14-.36-.36-.36-.54,0-.58,1.71-1.89,2.21-1.89ZM288.26,18.49c0,.63-1.58,2.07-2.16,2.07-.27,0-.54-.27-.95-.86-.58-.81-2.21-2.47-2.97-3.19-.18-.18-.36-.36-.36-.58,0-.5,1.62-1.84,2.16-1.84.45,0,4.28,3.83,4.28,4.41Z"/>
  </g>
  <g>
    <path class="cls-1" d="M42.68,49.97c-2.3-.2-5.82-1.14-7.87-2.81-2.05-1.67-2.91-3.4-2.99-6.49-.08-3.24-.08-29.19-.08-29.19h10.44s.07,28.56.08,29.52c.02.96.43,2.3,1.45,3.13,1.02.84,2.84,1.25,4.3,1.25,2.16,0,4.07-.42,5.09-1.25,1.02-.84,1.25-1.59,1.45-3.13.17-1.37.08-29.52.08-29.52h8.48s0,25.9-.08,29.19c-.08,2.98-.94,4.79-2.99,6.47-2.02,1.65-4.82,2.64-7.2,2.83-3.77.29-7.01.28-10.16,0"/>
    <path class="cls-1" d="M75.02,46.53V11.49h26.13v4.26h-15.69v11.73h13.21v4.22h-13.21v13.77h15.69v4.27h-22.74c-2.64,0-3.39-1.23-3.39-3.22"/>
    <path class="cls-1" d="M134.18,45.63c-2.92.06-3.08.05-4.74,0-.32-.01-.64-.04-.96-.09,0,0,0,0,0,0-.02,0-.04,0-.07,0-.02,0-.03,0-.05,0h0c-.51-.04-1.42-.2-2.37-.79-.99-.61-1.53-1.4-1.78-1.81-.32-.69-.5-1.44-.52-2.09-.17-5.22-.15-14.21,0-19.83.05-2.01.25-2.9,1.54-3.98,1.02-.85,2.77-1.26,4.2-1.33,1.46-.07,1.77-.08,4.74,0,2.96.08,4.79.51,5.2,3.33h5.25c-.39-5.66-3.88-7.44-10.44-7.67-6.55-.23-7.71-.11-10.49.08-2.66.19-5.4.93-7.41,2.61-2.02,1.69-2.92,3.31-3.03,6.79-.26,8.71-.26,12.75,0,19.67.04.94.13,2.05.59,3.26.73,1.91,1.96,3.1,2.48,3.56,1.92,1.69,4.03,2.1,5.19,2.25,0,0,0,0,0,0,.87.18,1.65.28,2.17.31,2.11.1,4.47.23,10.49.08,5.9-.15,9.98-2.02,10.44-7.68h-5.25c-.39,2.82-2.25,3.26-5.2,3.33"/>
  </g>
  <path class="cls-1" d="M161.32,24.5c4.38-.27,8.76-.72,13.11-1.23,2.28-.27,4.56-.57,6.81-.93.12-.03.27-.03.39-.03.45,0,.51.39.57.75.12.51.27,1.68.27,2.19,0,.66-.63.6-1.35.63-1.74.03-3.27.03-4.98.63-2.31.84-3.93,2.31-5.1,4.47-.87,1.59-1.44,3.45-1.44,5.28,0,3.48,2.22,4.32,5.28,4.32.51,0,1.17-.03,1.5-.03.45,0,.69.03.69.51,0,.6-.21,1.92-.45,2.46-.21.45-.45.51-.96.51-5.1,0-9.48-1.62-9.48-7.47,0-3.06,1.26-6.36,3.3-8.61.33-.36.51-.57.51-.72,0-.27-.24-.36-.45-.36s-1.59.24-1.89.27c-2.01.3-4.71.72-6.63,1.23-.15.03-.3.06-.45.06-.42,0-.57-.66-.66-.99-.12-.51-.33-1.65-.33-2.16,0-.78.42-.69,1.74-.78ZM181.24,31.82c0,.45-1.2,1.26-1.53,1.26-.21,0-.3-.21-.42-.36-.6-.87-1.26-1.71-1.92-2.52-.09-.09-.27-.27-.27-.42,0-.36,1.2-1.11,1.53-1.11s2.61,2.79,2.61,3.15ZM184.87,30.16c0,.42-1.17,1.26-1.53,1.26-.21,0-.33-.24-.45-.39-.48-.72-1.35-1.83-1.95-2.49-.09-.09-.21-.27-.21-.39,0-.36,1.17-1.14,1.53-1.14.3,0,2.61,2.79,2.61,3.15Z"/>
</svg>