<?xml version="1.0" encoding="UTF-8"?>
<svg id="_レイヤー_1" data-name="レイヤー 1" xmlns="http://www.w3.org/2000/svg" viewBox="0 0 320 60">
  <defs>
    <style>
      .cls-1 {
        fill: #fff;
        stroke-width: 0px;
      }
    </style>
  </defs>
  <g>
    <path class="cls-1" d="M215.72,28.3h1.26c1.48,0,3.1-.13,4.36-.13.99,0,.95.54.95,2.25s.04,2.21-.95,2.21c-1.17,0-2.79-.13-4.36-.13h-1.49c-.45.04-.94.13-.94.67,0,.27.09.5.22.76,1.84,3.42,4.32,6.62,7.15,9.27.27.27.63.59.63.99,0,.81-2.07,2.83-2.88,2.83-.58,0-1.66-1.21-2.07-1.67-1.58-1.75-2.88-3.73-4-5.8-.09-.18-.22-.31-.45-.31-.27,0-.41.18-.54.4-1.8,4.1-4.46,6.97-8.05,9.58-.4.27-1.04.72-1.48.72-.81,0-2.66-2.34-2.66-3.1,0-.5.72-.9,1.44-1.4,4.14-2.83,7.06-6.75,7.83-11.79.04-.81-.31-1.08-1.12-1.17h-2.02c-1.53,0-3.15.13-4.37.13-.99,0-.95-.63-.95-2.21s-.04-2.25.95-2.25c1.3,0,2.88.13,4.37.13h2.34c.81,0,1.26-.36,1.26-1.17v-4.54c0-.94-.32-1.26-1.26-1.26-.86,0-1.12.18-1.58.9-.45.95-2.56,4.9-3.55,4.9-.41,0-3.01-1.3-3.01-2.11,0-.32.54-1.04.72-1.31,2.79-4.05,4.95-8.73,6.07-13.54.04-.27.14-.63.54-.63.32,0,1.89.4,2.29.5.36.09.67.18.99.27,1.08.27,1.53.36,1.53.81,0,.36-.45.58-.72.72-.67.22-.72.4-1.12,1.53-.18.59-.45,1.4-.9,2.61,0,.14-.04.27-.04.36,0,.58.41.72.9.76h4.86c1.44,0,2.92-.09,4.23-.09,1.08,0,1.04.5,1.04,2.25s.04,2.16-1.04,2.16c-1.26,0-2.79-.13-4.23-.09-.9,0-1.21.36-1.3,1.21,0,1.53,0,3.06-.04,4.59.09.81.4,1.17,1.21,1.17ZM229.45,44.87c-.81,0-1.17.36-1.21,1.21.04.49.04.99.04,1.53,0,1.21-.54,1.17-2.34,1.17s-2.43.04-2.43-1.12c0-1.8.13-3.55.13-5.35v-20.61c0-1.35-.09-2.75-.09-4.14,0-1.85.95-2.29,2.66-2.29,1.04,0,2.07.04,3.1.04h4.86c1.03,0,2.07-.04,3.1-.04,1.67,0,2.66.4,2.66,2.29,0,1.39-.04,2.74-.04,4.14v20.16c0,1.75.09,3.51.09,5.31,0,1.21-.58,1.17-2.34,1.17s-2.29.04-2.29-1.17c0-.36.04-.72.04-1.08-.04-.86-.41-1.21-1.21-1.21h-4.73ZM234.22,40.54c.76-.09,1.21-.5,1.21-1.26v-18.27c0-.77-.45-1.17-1.21-1.26h-4.77c-.81.09-1.26.49-1.26,1.26v18.27c0,.76.45,1.17,1.26,1.26h4.77Z"/>
    <path class="cls-1" d="M279.26,17.33c0,.31-.5.58-.99.94-2.52,1.75-4.41,3.83-6.52,6.03-.18.18-.45.49-.45.76,0,.36.36.58.76.58.18,0,.41-.04.58-.09.59-.13,1.26-.18,1.85-.18,1.8,0,3.91.54,5.53,1.35,3.51,1.8,5.36,4.81,5.36,8.73,0,7.96-7.07,12.1-14.31,12.1-3.74,0-9.04-1.53-9.04-6.12,0-3.11,2.75-5.45,5.76-5.45,2.34,0,4.72,1.26,5.98,3.2.68,1.04.81,1.71.81,2.88.04.32.18.59.54.59,1.17,0,5.44-2.38,5.44-6.93s-3.69-6.17-7.6-6.17-7.2,1.58-10.08,4.41c-1.76,1.71-3.38,3.55-5,5.4-.13.18-.27.31-.5.31-.95,0-3.24-2.52-3.24-3.24,0-.54.68-1.03,1.08-1.35,4.63-4,9.85-9.58,14-14.13.36-.36,1.17-1.17,1.17-1.62,0-.41-.41-.54-.77-.54-.22,0-.81.13-1.08.18-1.08.27-7.42,1.58-8.14,1.58-.99,0-1.12-3.37-1.12-4.14,0-1.04.04-1.12,1.4-1.12h1.08c2.88,0,8.77-.63,11.38-1.67.5-.18,1.21-.5,1.71-.5,1.8,0,4.41,3.42,4.41,4.19ZM267.88,39.64c-.99,0-1.93.72-1.93,1.8,0,1.62,2.16,2.38,3.51,2.38.85,0,1.21-.81,1.21-1.53,0-1.4-1.21-2.66-2.79-2.66Z"/>
  </g>
  <g>
    <path class="cls-1" d="M45.56,50.25c-2.3-.2-5.82-1.14-7.87-2.81-2.05-1.67-2.91-3.4-2.99-6.49-.08-3.24-.08-29.19-.08-29.19h10.44s.07,28.56.08,29.52c.02.96.43,2.3,1.45,3.13,1.02.84,2.84,1.25,4.3,1.25,2.16,0,4.07-.42,5.09-1.25,1.02-.84,1.25-1.59,1.45-3.13.17-1.37.08-29.52.08-29.52h8.48s0,25.9-.08,29.19c-.08,2.98-.94,4.79-2.99,6.47-2.02,1.65-4.82,2.64-7.2,2.83-3.77.29-7.01.28-10.16,0"/>
    <path class="cls-1" d="M77.9,46.8V11.76h26.13v4.26h-15.69v11.73h13.21v4.22h-13.21v13.77h15.69v4.27h-22.74c-2.64,0-3.39-1.23-3.39-3.22"/>
    <path class="cls-1" d="M137.06,45.9c-2.92.06-3.08.05-4.74,0-.32-.01-.64-.04-.96-.09,0,0,0,0,0,0-.02,0-.04,0-.07,0-.02,0-.03,0-.05,0h0c-.51-.04-1.42-.2-2.37-.79-.99-.61-1.53-1.4-1.78-1.81-.32-.69-.5-1.44-.52-2.09-.17-5.22-.15-14.21,0-19.83.05-2.01.25-2.9,1.54-3.98,1.02-.85,2.77-1.26,4.2-1.33,1.46-.07,1.77-.08,4.74,0,2.96.08,4.79.51,5.2,3.33h5.25c-.39-5.66-3.88-7.44-10.44-7.67-6.55-.23-7.71-.11-10.49.08-2.66.19-5.4.93-7.41,2.61-2.02,1.69-2.92,3.31-3.03,6.79-.26,8.71-.26,12.75,0,19.67.04.94.13,2.05.59,3.26.73,1.91,1.96,3.1,2.48,3.56,1.92,1.69,4.03,2.1,5.19,2.25,0,0,0,0,0,0,.87.18,1.65.28,2.17.31,2.11.1,4.47.23,10.49.08,5.9-.15,9.98-2.02,10.44-7.68h-5.25c-.39,2.82-2.25,3.26-5.2,3.33"/>
  </g>
  <path class="cls-1" d="M176.41,21.29c0,.18-.21.3-.36.36-.48.18-.6.33-.99,1.02-.09.15-.3.51-.3.69,0,.21.15.3.33.3.6,0,2.85-.63,3.48-.84.21-.09.54-.18.75-.18.51,0,.66.48.75.9.09.39.24,1.2.24,1.62,0,.51-.96.63-1.59.75-1.89.39-3.78.72-5.67.93-.48.06-.6.12-.9.48-.18.24-1.02,1.53-1.02,1.74,0,.12.12.21.24.21.18,0,.39-.09.54-.18,1.02-.45,2.16-.78,3.27-.78,1.92,0,3.03.81,3.42,2.7.06.27.15.51.45.51.36,0,3.03-1.44,3.51-1.71.21-.09.54-.3.78-.3.57,0,1.29,2.31,1.29,2.82,0,.36-.33.48-.9.66-.12.06-.27.09-.42.15-1.2.45-2.37.96-3.54,1.47-.54.21-.78.39-.78.99v.39c0,.93.03,1.83.03,2.76,0,1.08-.15,1.2-1.29,1.2-1.29,0-1.83-.06-1.83-.84,0-.66.06-1.32.06-1.95,0-.27-.09-.51-.39-.51-.15,0-3.24,1.32-3.24,3.18,0,2.01,2.91,2.19,4.35,2.19,2.01,0,3.63-.27,5.58-.75.18-.03.39-.06.6-.06.39,0,.6.33.6,2.04,0,.9-.03,1.14-.69,1.29-1.14.27-4.47.39-5.76.39-1.71,0-3.15-.09-4.74-.78-1.83-.81-3-2.25-3-4.29,0-2.7,2.19-4.17,4.26-5.4.6-.36,1.23-.69,1.86-.99.3-.15.54-.33.54-.69,0-.21-.09-.63-.15-.84-.15-.66-.63-1.02-1.32-1.02-1.68,0-4.44,1.44-5.61,2.64-.87.87-1.89,2.43-2.52,3.51-.09.15-.21.3-.42.3-.54,0-2.55-1.2-2.55-1.74,0-.24.24-.48.39-.66.69-.75,5.04-6.78,5.04-7.35,0-.27-.24-.36-.66-.36-.48,0-1.17.09-2.1.09-.66,0-.78-.15-.78-1.68,0-1.2.12-1.38.87-1.38.51,0,1.29.06,2.16.06h.87c.78,0,1.59-.03,1.86-.39.51-.66,1.41-3,1.62-3.87.06-.33.12-.63.42-.63.27,0,3.36,1.38,3.36,1.83Z"/>
</svg>