<?xml version="1.0" encoding="UTF-8"?>
<svg id="_レイヤー_1" data-name="レイヤー 1" xmlns="http://www.w3.org/2000/svg" viewBox="0 0 320 60">
  <defs>
    <style>
      .cls-1 {
        fill: #fff;
        stroke-width: 0px;
      }
    </style>
  </defs>
  <g>
    <path class="cls-1" d="M200.69,39.94c-.45,0-.45.54-.45.59v4.09c0,1.44.09,2.83.09,4.23s-.54,1.39-2.34,1.39-2.38.04-2.38-1.35c0-1.3.13-2.79.13-4.27v-4c-.04-.22-.09-.54-.5-.54-.13,0-.27.09-.36.13-3.15,3.01-6.84,5.35-10.71,7.29-.81.4-3.33,1.62-4.09,1.62-.95,0-2.34-2.34-2.34-3.1,0-.58.81-.81,1.35-1.03,4-1.58,7.92-3.6,11.29-6.3.13-.13.18-.22.18-.4,0-.27-.31-.36-.54-.41h-5.49c-1.8,0-3.55.09-5.36.09-1.08,0-1.03-.5-1.03-2.03,0-1.62-.04-2.07,1.03-2.07,1.8,0,3.56.09,5.36.09h9.94c.81,0,1.21-.31,1.21-1.17-.04-.45-.13-1.21-.13-1.39,0-.54.41-.63.81-.63.72,0,2.88.18,3.69.27.5.09,1.17.09,1.17.63,0,.27-.18.32-.5.59-.32.22-.41.49-.45.85.04.67.63.85,1.21.85h9.85c1.8,0,3.56-.09,5.36-.09,1.08,0,1.03.5,1.03,2.07s.05,2.03-1.03,2.03c-1.8,0-3.56-.09-5.36-.09h-5.62c-.23,0-.5.09-.5.41,0,.13.09.22.18.36,3.78,2.79,7.11,4.68,11.38,6.48.54.22,1.26.49,1.26.99,0,.76-1.53,3.1-2.56,3.1-.68,0-3.2-1.44-3.87-1.8-3.78-2.07-7.33-4.46-10.48-7.29-.14-.09-.27-.18-.45-.18ZM188.13,26.26c-1.98,1.58-4.05,3.01-6.12,4.41-.63.41-.72.45-.76.81-.04.31-.13.72-.54.72-.54,0-2.83-3.29-2.83-3.74,0-.36.41-.54.67-.67,1.75-.86,5.76-3.55,7.25-4.82.18-.18.41-.41.72-.41.67,0,2.29,2.16,2.29,2.79,0,.4-.36.63-.67.9ZM185.57,20.45c-.45,0-.77-.36-1.08-.67-1.62-1.62-3.33-3.11-5.04-4.54-.32-.27-.67-.5-.67-.9,0-.76,1.84-2.56,2.65-2.56.27,0,.54.22.77.4.63.5,3.1,2.66,3.73,3.24.72.63,2.21,1.8,2.21,2.52s-1.75,2.52-2.56,2.52ZM196.86,9.47c.32,0,1.44.36,1.8.45.99.27,3.2.72,3.2,1.35,0,.41-.54.45-.86.54-.31.04-.54.22-.72.49-.18.23-.27.45-.41.63-.09.18-.13.27-.13.45,0,.45.36.59.72.59h2.03c.9,0,1.8-.04,2.7-.04,1.12,0,1.71.45,1.71,1.62,0,.95-.04,1.89-.04,2.84v8.23c0,.94.04,1.89.04,2.83,0,1.21-.86,1.17-2.16,1.17-.58,0-1.21,0-1.71-.22-.18-.13-.36-.27-.58-.27h-8.77c-.23,0-.36.09-.54.22-.54.31-1.17.27-1.75.27-1.31,0-2.16.04-2.16-1.17,0-.67.04-2.07.04-2.83v-8.23c0-.9-.04-1.85-.04-2.75,0-1.21.5-1.71,1.71-1.71.76,0,1.58.04,2.34.04.95,0,1.3-.18,1.75-.99.32-.58,1.08-2.25,1.26-2.83.09-.36.13-.67.58-.67ZM201.68,20.36c.63,0,1.08-.45,1.08-1.08v-.58c0-.63-.45-1.08-1.08-1.08h-7.25c-.63,0-1.08.45-1.08,1.08v.58c0,.63.45,1.08,1.08,1.08h7.25ZM194.43,23.69c-.63,0-1.08.45-1.08,1.08v.63c0,.63.45,1.08,1.08,1.08h7.25c.63,0,1.08-.45,1.08-1.08v-.63c0-.63-.45-1.08-1.08-1.08h-7.25ZM215.13,31.79c-.36,0-.76-.45-1.04-.67-1.93-1.76-4-3.42-6.12-4.91-.31-.23-.72-.5-.72-.9,0-.77,1.62-2.75,2.48-2.75.63,0,3.64,2.43,4.32,2.97.72.58,2.75,2.21,3.38,2.83.22.23.36.41.36.68,0,.72-1.8,2.74-2.66,2.74ZM217.25,15.19h-.41c-.27,0-.54.31-.72.49-.9.9-5.08,4.86-6.12,4.86-.76,0-2.66-1.84-2.66-2.57,0-.36.45-.67.95-1.03,1.71-1.31,3.83-3.2,5.22-4.86.18-.18.41-.49.67-.49.32,0,1.26.76,1.53.99.99.81,2.21,1.8,2.21,2.16s-.36.45-.67.45Z"/>
    <path class="cls-1" d="M243.53,14.33c.32.04.9.22.9.63,0,.31-.27.45-.54.67-1.58,1.17-1.98,15.44-1.98,18,0,3.51-.09,8.96,4.77,8.96,3.24,0,6.48-1.89,8.46-4.37,1.49-1.94,2.39-4.23,2.75-6.66.13-.72.23-1.48.9-1.48.99,0,3.73,2.29,3.73,3.64,0,1.26-1.21,4.09-1.84,5.26-2.7,5.04-7.83,8.59-13.68,8.59-2.97,0-6.07-1.08-7.92-3.46-2.03-2.7-2.25-7.06-2.25-10.35,0-3.55.13-7.11.4-10.66.14-2.07.54-6.39.54-8.24v-.5c0-.67.04-1.12.67-1.12.77,0,4.19.81,5.08,1.08Z"/>
    <path class="cls-1" d="M294.02,12.17c.27.04.72.18.72.5,0,.27-.18.49-.36.67-.63.68-.72,1.8-.72,2.7,0,.54.36.76.72.76.45,0,3.06-.76,3.64-.99.13-.05.31-.09.54-.09.85,0,1.08,2.93,1.08,3.6,0,1.12-.72,1.12-4.91,1.98-1.17.22-1.53.5-1.62,1.71-.04.99-.31,5.53-.31,6.25,0,.45.04.77.13,1.21.09.54.13,1.08.13,1.62,0,1.49-.31,2.92-.72,4.36-.31,1.26-.9,3.29-.9,4.59,0,2.39,4.05,2.16,5.67,2.16,1.98,0,5.99-.09,7.47-1.57,1.04-1.04,1.31-3.24,1.44-4.68.09-1.4.09-2.12,1.17-2.12.99,0,3.78.86,3.78,2.12,0,1.75-1.12,5.58-2.29,7.15-1.44,1.89-3.42,2.61-5.67,3.06-2.21.45-4.77.58-7.02.58-4.18,0-8.95-.54-8.95-5.85,0-.58.13-1.3.27-1.89,0-.09.04-.18.04-.27,0-.27-.22-.45-.49-.45-.18,0-.32.09-.5.13-.23.09-.54.18-.81.18-3.33,0-4.41-3.78-4.41-6.52,0-3.19,1.62-7.47,5.49-7.47.63,0,1.08.18,1.49.18.5,0,.54-.58.54-2.12,0-.58,0-1.17-.63-1.17-.18,0-1.44.18-1.71.23-.86.09-3.33.45-4.09.45-.68,0-.9-.32-1.08-.9-.14-.63-.41-2.34-.41-2.97,0-.85.36-.85,1.08-.85,1.35,0,4.81-.14,5.98-.45.99-.27.99-1.35.99-2.2,0-1.22-.04-2.16-.27-3.38,0-.14-.04-.36-.04-.5,0-.36.23-.5.58-.5s4.46.63,4.95.72ZM285.11,33.01c0,.81.22,2.39,1.3,2.39,1.44,0,2.25-2.48,2.25-3.65,0-.9-.63-2.07-1.67-2.07-1.49,0-1.89,2.2-1.89,3.33ZM314.4,25.85c0,.77-2.47,2.83-3.19,2.83-.54,0-.9-.63-1.26-1.12-1.67-2.11-3.33-3.6-5.45-5.22-.27-.18-.58-.45-.58-.76,0-.67,1.84-2.83,2.66-2.83,1.35,0,7.83,6.03,7.83,7.11Z"/>
  </g>
  <g>
    <path class="cls-1" d="M16.54,50.31c-2.3-.2-5.82-1.14-7.87-2.81-2.05-1.67-2.91-3.4-2.99-6.49-.08-3.24-.08-29.19-.08-29.19h10.44s.07,28.56.08,29.52c.02.96.43,2.3,1.45,3.13,1.02.84,2.84,1.25,4.3,1.25,2.16,0,4.07-.42,5.09-1.25,1.02-.84,1.25-1.59,1.45-3.13.17-1.37.08-29.52.08-29.52h8.48s0,25.9-.08,29.19c-.08,2.98-.94,4.79-2.99,6.47-2.02,1.65-4.82,2.64-7.2,2.83-3.77.29-7.01.28-10.16,0"/>
    <path class="cls-1" d="M48.88,46.87V11.83h26.13v4.26h-15.69v11.73h13.21v4.22h-13.21v13.77h15.69v4.27h-22.74c-2.64,0-3.39-1.23-3.39-3.22"/>
    <path class="cls-1" d="M108.04,45.96c-2.92.06-3.08.05-4.74,0-.32-.01-.64-.04-.96-.09,0,0,0,0,0,0-.02,0-.04,0-.07,0-.02,0-.03,0-.05,0h0c-.51-.04-1.42-.2-2.37-.79-.99-.61-1.53-1.4-1.78-1.81-.32-.69-.5-1.44-.52-2.09-.17-5.22-.15-14.21,0-19.83.05-2.01.25-2.9,1.54-3.98,1.02-.85,2.77-1.26,4.2-1.33,1.46-.07,1.77-.08,4.74,0,2.96.08,4.79.51,5.2,3.33h5.25c-.39-5.66-3.88-7.44-10.44-7.67-6.55-.23-7.71-.11-10.49.08-2.66.19-5.4.93-7.41,2.61-2.02,1.69-2.92,3.31-3.03,6.79-.26,8.71-.26,12.75,0,19.67.04.94.13,2.05.59,3.26.73,1.91,1.96,3.1,2.48,3.56,1.92,1.69,4.03,2.1,5.19,2.25,0,0,0,0,0,0,.87.18,1.65.28,2.17.31,2.11.1,4.47.23,10.49.08,5.9-.15,9.98-2.02,10.44-7.68h-5.25c-.39,2.82-2.25,3.26-5.2,3.33"/>
  </g>
  <path class="cls-1" d="M135.18,24.83c4.38-.27,8.76-.72,13.11-1.23,2.28-.27,4.56-.57,6.81-.93.12-.03.27-.03.39-.03.45,0,.51.39.57.75.12.51.27,1.68.27,2.19,0,.66-.63.6-1.35.63-1.74.03-3.27.03-4.98.63-2.31.84-3.93,2.31-5.1,4.47-.87,1.59-1.44,3.45-1.44,5.28,0,3.48,2.22,4.32,5.28,4.32.51,0,1.17-.03,1.5-.03.45,0,.69.03.69.51,0,.6-.21,1.92-.45,2.46-.21.45-.45.51-.96.51-5.1,0-9.48-1.62-9.48-7.47,0-3.06,1.26-6.36,3.3-8.61.33-.36.51-.57.51-.72,0-.27-.24-.36-.45-.36s-1.59.24-1.89.27c-2.01.3-4.71.72-6.63,1.23-.15.03-.3.06-.45.06-.42,0-.57-.66-.66-.99-.12-.51-.33-1.65-.33-2.16,0-.78.42-.69,1.74-.78ZM155.1,32.15c0,.45-1.2,1.26-1.53,1.26-.21,0-.3-.21-.42-.36-.6-.87-1.26-1.71-1.92-2.52-.09-.09-.27-.27-.27-.42,0-.36,1.2-1.11,1.53-1.11s2.61,2.79,2.61,3.15ZM158.73,30.5c0,.42-1.17,1.26-1.53,1.26-.21,0-.33-.24-.45-.39-.48-.72-1.35-1.83-1.95-2.49-.09-.09-.21-.27-.21-.39,0-.36,1.17-1.14,1.53-1.14.3,0,2.61,2.79,2.61,3.15Z"/>
</svg>