<?xml version="1.0" encoding="UTF-8"?>
<svg id="_レイヤー_1" data-name="レイヤー 1" xmlns="http://www.w3.org/2000/svg" version="1.1" viewBox="0 0 30 30">
  <defs>
    <style>
      .cls-1 {
        fill: #fff;
        stroke-width: 0px;
      }
    </style>
  </defs>
  <path class="cls-1" d="M9.1,7v3.3h-2.7v6h2.7v6.7h9.3l4-4V7h-13.3ZM7.1,15.7v-4.7h10v4.7H7.1ZM18.5,22.1v-3.1h3.1l-3.1,3.1ZM21.8,18.3h-4v4h-8v-6h8v-6h-8v-2.7h12v10.7Z"/>
  <path class="cls-1" d="M10.2,12.4c0,0,0-.2-.1-.3,0,0-.1-.2-.2-.2-.1,0-.2,0-.4,0h-1v2.9h.6v-1.1h.3c.1,0,.3,0,.4,0,.1,0,.2,0,.3-.1,0,0,.1-.2.2-.3,0-.1,0-.2,0-.4,0-.1,0-.2,0-.3ZM9.6,13.1c0,0-.2.1-.3.1h-.3v-.9h.2c.1,0,.2,0,.3.1,0,0,0,.2,0,.3,0,.1,0,.2-.1.3Z"/>
  <path class="cls-1" d="M12.8,12.7c0-.2,0-.3-.1-.4,0-.1-.2-.2-.3-.3-.1,0-.3-.1-.5-.1h-.9v2.9h.9c.2,0,.3,0,.5,0,.1,0,.2-.2.3-.3,0-.1.1-.3.2-.5,0-.2,0-.4,0-.6,0-.2,0-.4,0-.6ZM12.3,13.8c0,.1,0,.2,0,.3,0,0,0,.1-.1.2,0,0-.2,0-.2,0h-.2v-2h.2c0,0,.2,0,.3,0,0,0,.1.1.1.2,0,0,0,.2,0,.3v.4c0,.2,0,.3,0,.5Z"/>
  <polygon class="cls-1" points="15.3 12.4 15.3 11.9 13.7 11.9 13.7 14.8 14.2 14.8 14.2 13.5 15.2 13.5 15.2 13.1 14.2 13.1 14.2 12.4 15.3 12.4"/>
</svg>