<?xml version="1.0" encoding="UTF-8"?>
<svg id="_レイヤー_2" data-name="レイヤー 2" xmlns="http://www.w3.org/2000/svg" viewBox="0 0 40 40">
  <defs>
    <style>
      .cls-1 {
        fill: #182689;
        stroke-width: 0px;
      }
    </style>
  </defs>
  <path class="cls-1" d="M16.7,28.4c-6.45,0-11.7-5.25-11.7-11.7s5.25-11.7,11.7-11.7,11.7,5.25,11.7,11.7-5.25,11.7-11.7,11.7ZM16.7,8.02c-4.79,0-8.68,3.89-8.68,8.68s3.89,8.68,8.68,8.68,8.68-3.89,8.68-8.68-3.89-8.68-8.68-8.68Z"/>
  <rect class="cls-1" x="26.81" y="22.23" width="2.26" height="11.43" transform="translate(-11.57 27.94) rotate(-45)"/>
  <path class="cls-1" d="M32.74,35c-.58,0-1.16-.22-1.6-.66l-5.1-5.1c-.88-.88-.88-2.32,0-3.2s2.32-.88,3.2,0l5.1,5.1c.88.88.88,2.32,0,3.2-.44.44-1.02.66-1.6.66Z"/>
</svg>