<?xml version="1.0" encoding="UTF-8"?>
<svg id="_レイヤー_1" data-name="レイヤー_1" xmlns="http://www.w3.org/2000/svg" viewBox="0 0 80 80">
  <defs>
    <style>
      .cls-1 {
        fill: #182689;
      }
    </style>
  </defs>
  <path class="cls-1" d="M69.22,49.16c-.89-3.1-1.78-6.2-2.68-9.3-.29-1.01-.58-2.02-.87-3.03l-2.42,2.42c.78,3.09,1.57,6.17,2.35,9.26.39,1.52-.63,2.87-2.3,2.35-2.73-1.13-5.74-1.93-8.7-2.09-3.36-.17-6.81.52-9.91,1.81-.35.14-2.69,1.83-2.78.63-.05-2.79-.1-5.58-.16-8.37-.11-5.77-.21-11.53-.32-17.3,0-.33.79-.5.96-.56,1.3-.5,2.67-.84,4.05-1.06,3.35-.55,6.65-.27,9.93.57,1.04.27,2.14.59,2.91,1.26l1.55-1.56c-.51-.38-1.07-.71-1.67-.98-2.78-1.24-6.31-1.74-9.33-1.81-3.22-.08-6.52.43-9.57,1.48-.59.2-1.57-.34-2.17-.5-.72-.19-1.44-.36-2.17-.49-1.61-.3-3.24-.46-4.87-.49-3.12-.05-6.31.55-9.3,1.45-.66.25-.19.07-.04.02-1.86.7-3.9,1.85-4.49,3.9-.15.51-.29,1.02-.44,1.53-.74,2.58-1.49,5.16-2.23,7.75-1.02,3.53-2.03,7.06-3.05,10.59-.59,2.05-1.76,4.69-1.32,6.85.54,2.67,3.15,3.91,5.68,3.39.89-.18,1.7-.59,2.55-.9,1.42-.51,2.87-.94,4.34-1.24,3.56-.74,7.17-.35,10.66.55.78.2,3.7.71,3.79,1.58.08.81,1.01.59,1.6.59h1.75c.54,0,1.43.19,1.94-.04.51-.22.12-.78.6-.99.66-.28,1.33-.52,2.01-.73,1.59-.5,3.23-.87,4.88-1.11,3.53-.51,6.86-.14,10.25.93,1.98.63,3.91,1.78,6.06,1.39,2.93-.52,4.13-3.52,3.36-6.19-.14-.53-.3-1.05-.45-1.58ZM38.44,32.4c-.12,6.2-.23,12.4-.34,18.6,0,.41-.12.67-.58.66-2.51-1.49-5.49-2.35-8.37-2.72-3.39-.43-6.7.03-9.95,1.04-1.01.31-2.13,1-3.2,1-1.22,0-1.93-1.09-1.65-2.22.75-2.93,1.49-5.87,2.24-8.8.88-3.45,1.75-6.9,2.63-10.35.22-.86.44-1.72.65-2.58.53-2.1,3.51-2.5,5.29-2.87,3.32-.69,6.68-.68,9.99.1.57.13,3.44.58,3.43,1.39-.04,2.26-.08,4.51-.13,6.77Z"/>
  <path class="cls-1" d="M48.21,45.56l8.7-1.85,17.25-17.24-6.86-6.86-17.24,17.24-1.85,8.7ZM70.85,26.48l-14.79,14.78-1.52-1.53,14.79-14.79,1.53,1.53ZM67.3,22.93l1.53,1.53-14.79,14.78-1.53-1.53,14.79-14.78ZM52.17,38.36l3.25,3.25-3.03.67-.89-.89.67-3.03Z"/>
</svg>