<?xml version="1.0" encoding="UTF-8"?>
<svg id="_レイヤー_1" data-name="レイヤー_1" xmlns="http://www.w3.org/2000/svg" viewBox="0 0 80 80">
  <defs>
    <style>
      .cls-1 {
        fill: #182689;
      }
    </style>
  </defs>
  <path class="cls-1" d="M17.62,53.87c.25-.35.59-.63.97-.82.38-.2.8-.3,1.23-.3h.07l4.82,1.06,6.18,1.35,10.73,2.35c.52.12,1.05.17,1.58.17,1.8,0,3.55-.65,4.93-1.86l.37-.32,12.74-11.28,4.24-3.76c.64-.56.7-1.54.13-2.18-.56-.64-1.53-.7-2.17-.13l-4.53,4.01-12.81,11.34c-.81.71-1.83,1.09-2.89,1.09-.31,0-.62-.03-.93-.1l-7.32-1.62-8.84-1.95-6.2-1.37h0v-.02h-.04s-.89-.21-.89-.21c-.26-.09-.49-.21-.7-.35-.35-.26-.63-.59-.82-.97-.2-.38-.3-.81-.3-1.24,0-.26.04-.54.12-.81.1-.29.24-.56.4-.79.25-.35.59-.63.97-.82.37-.2.8-.3,1.23-.3h.07l4.82,1.06,6.18,1.35,10.73,2.35c.52.12,1.05.17,1.58.17.3,0,.59-.01.89-.05,1.48-.18,2.89-.79,4.04-1.8l.37-.32,12.74-11.28,4.24-3.76c.55-.48.67-1.27.33-1.89-.05-.1-.12-.2-.2-.29-.56-.64-1.53-.7-2.17-.13l-4.54,4.01-12.81,11.34c-.81.71-1.84,1.09-2.89,1.09-.31,0-.62-.03-.92-.1l-7.32-1.62-8.84-1.95-6.2-1.37h0v-.02h-.04s-.89-.2-.89-.2c-.04-.02-.08-.04-.12-.05-.11-.05-.22-.08-.32-.15-.09-.04-.18-.1-.26-.15-.35-.26-.63-.59-.82-.97-.2-.38-.3-.81-.3-1.24,0-.26.04-.54.12-.81.1-.29.24-.56.4-.79.25-.35.59-.63.97-.82.37-.2.8-.3,1.23-.3.07,0,.15,0,.22,0l3.39.73,3,.64,14.82,3.21c1.84.4,3.75-.1,5.16-1.34l9.12-8.03,5.45-4.8,3.85-3.4c.84-.74,1.19-1.89.9-2.96-.28-1.09-1.14-1.92-2.24-2.15l-1.16-.25-8.45-1.83-10.71-2.31c-1.84-.4-3.75.1-5.16,1.34l-14.3,12.56-4.3,3.78-3.74,3.29c-.15.18-.29.35-.4.54-.07.08-.12.15-.18.24-.37.5-.66,1.07-.86,1.7-.18.58-.27,1.17-.27,1.75,0,1.26.4,2.45,1.12,3.43.22.31.49.6.77.86h-.01s-.2.19-.2.19c-.15.18-.29.35-.4.54-.07.08-.13.15-.18.24-.37.5-.66,1.07-.86,1.7-.18.58-.27,1.17-.27,1.75,0,1.26.4,2.45,1.11,3.44.23.31.49.59.78.86l-.02.02-.21.18c-.15.18-.29.35-.4.54-.07.08-.12.15-.18.24-.37.5-.66,1.07-.86,1.69-.18.58-.27,1.17-.27,1.75,0,1.25.4,2.45,1.12,3.43.36.5.79.94,1.3,1.31.5.37,1.07.66,1.7.85l.07.02,6.52,1.43,6.18,1.35,10.73,2.35c.52.12,1.05.17,1.58.17,1.8,0,3.55-.65,4.93-1.86l.37-.32,12.74-11.28,4.24-3.76c.64-.57.7-1.54.13-2.18-.56-.64-1.53-.7-2.17-.13l-4.54,4.01-12.81,11.34c-.81.71-1.84,1.09-2.89,1.09-.31,0-.62-.03-.92-.1l-7.32-1.62-8.84-1.95-6.2-1.37-.89-.2c-.28-.1-.53-.22-.75-.38-.35-.26-.63-.59-.82-.97-.2-.38-.3-.81-.3-1.24,0-.26.04-.54.13-.81.1-.29.24-.56.4-.79Z"/>
</svg>