<?xml version="1.0" encoding="UTF-8"?>
<svg id="_レイヤー_1" data-name="レイヤー 1" xmlns="http://www.w3.org/2000/svg" width="80" height="80" viewBox="0 0 80 80">
  <defs>
    <style>
      .cls-1 {
        fill: #fff;
        stroke-width: 0px;
      }
    </style>
  </defs>
  <path class="cls-1" d="M69.55,32.24l-29.19-14.6c-.22-.11-.49-.11-.71,0l-29.2,14.6c-.59.29-.59,1.13,0,1.42l4.15,2.07v9.78c0,1.48-.28,2.96-.96,4.28-.21.41-.29.9-.17,1.42.17.75.78,1.36,1.53,1.54,1.36.31,2.56-.71,2.56-2.02,0-.3-.06-.57-.17-.83-.61-1.39-1.01-2.87-1.01-4.39v-8.88s3.94,1.97,3.94,1.97c.71.35,1.54.4,2.27.1,4.93-2.02,10.88-3.08,17.42-3.08s12.48,1.06,17.41,3.08c.73.3,1.56.26,2.27-.1l9.87-4.93c.59-.29.59-1.13,0-1.42Z"/>
  <path class="cls-1" d="M40,39.96c-5.04,0-9.62.69-13.51,1.93-1.96.62-3.74,1.39-5.3,2.27v10.47c0,1.58,1.28,2.85,2.85,2.85h0c.65,0,1.31-.19,1.79-.63.06-.05.12-.1.19-.15,1.92-1.33,6.75-3.18,13.98-3.18s12.05,1.85,13.98,3.18c.07.05.13.1.19.15.48.44,1.14.63,1.79.63,1.58,0,2.85-1.28,2.85-2.85v-10.47c-1.57-.88-3.35-1.65-5.3-2.27-3.88-1.24-8.46-1.93-13.5-1.93Z"/>
</svg>