<?xml version="1.0" encoding="UTF-8"?>
<svg id="_レイヤー_1" data-name="レイヤー_1" xmlns="http://www.w3.org/2000/svg" viewBox="0 0 80 80">
  <defs>
    <style>
      .cls-1 {
        fill: #182689;
      }
    </style>
  </defs>
  <path class="cls-1" d="M27.05,47.39c0-.1-.04-.18-.04-.28v-.82c0-.39.06-.77.19-1.13,0,0,2.03-2.72,2.99-5.92-1.05-2.22-2.01-4.98-2.01-7.72,0-.64.05-1.25.11-1.86-1.37-1.44-3.23-2.25-5.27-2.25-4.23,0-7.66,3.45-7.66,8.81,0,4.29,3.49,8.94,3.49,8.94.12.36.19.75.19,1.13v.82c0,1.02-.59,1.94-1.52,2.37l-5.54,2.26c-1.29.59-2.2,1.78-2.46,3.17l-.09,1.22c-.05.63.17,1.26.6,1.72.43.47,1.04.73,1.67.73h9.06l.37-4.77.02-.13c.45-2.5,2.11-4.63,4.42-5.69l1.47-.6Z"/>
  <path class="cls-1" d="M70.47,54.91c-.25-1.39-1.17-2.57-2.46-3.17l-5.54-2.26c-.93-.42-1.52-1.35-1.52-2.37v-.82c0-.39.06-.77.19-1.13,0,0,3.49-4.65,3.49-8.94,0-5.36-3.43-8.81-7.66-8.81-2.04,0-3.9.81-5.27,2.25.07.6.11,1.22.11,1.86,0,2.74-.95,5.5-2,7.72.96,3.2,2.99,5.92,2.99,5.92.12.36.19.75.19,1.13v.82c0,.1-.03.18-.04.28l1.37.56c2.41,1.1,4.06,3.23,4.52,5.73l.02.13.37,4.77h9.06c.64,0,1.24-.26,1.67-.73.43-.47.65-1.09.6-1.72l-.1-1.22Z"/>
  <path class="cls-1" d="M53.36,50.31l-6.71-2.74c-1.12-.51-1.83-1.63-1.83-2.86v-.99c0-.47.07-.93.23-1.38,0,0,4.22-5.63,4.22-10.82,0-6.49-4.15-10.66-9.27-10.66s-9.27,4.17-9.27,10.66c0,5.19,4.22,10.82,4.22,10.82.15.44.23.91.23,1.38v.99c0,1.23-.72,2.35-1.84,2.86l-6.71,2.74c-1.56.71-2.67,2.15-2.97,3.83l-.35,4.44h33.36l-.34-4.44c-.31-1.69-1.42-3.12-2.98-3.83Z"/>
</svg>