<?xml version="1.0" encoding="UTF-8"?>
<svg id="_レイヤー_1" data-name="レイヤー 1" xmlns="http://www.w3.org/2000/svg" version="1.1" viewBox="0 0 30 30">
  <defs>
    <style>
      .cls-1 {
        fill: #fff;
        stroke-width: 0px;
      }
    </style>
  </defs>
  <path class="cls-1" d="M9.2,7v7.1h-2.7v6h2.7v2.9h9.3l4-4V7h-13.3ZM7.2,19.5v-4.7h9.1v4.7H7.2ZM18.5,22.1v-3.1h3.1l-3.1,3.1ZM21.8,18.3h-4v4h-8v-2.2h7.1v-6h-7.1v-6.5h12v10.7Z"/>
  <g>
    <path class="cls-1" d="M8,16l.2,1.8h0l.3-1.8h.5l.3,1.8h0l.2-1.8h.4l-.4,2.4h-.5l-.3-1.7h0l-.3,1.8h-.5l-.5-2.5h.5Z"/>
    <path class="cls-1" d="M10.3,16.7c0-.1,0-.3.1-.4,0-.1.1-.2.2-.3.3-.1.6-.1.8,0,.1,0,.2.2.2.3,0,.1,0,.3.1.4v1c0,.1,0,.3-.1.4,0,.1-.1.2-.2.2-.3.1-.6.1-.8,0-.1,0-.2-.1-.2-.2,0-.1,0-.3-.1-.4v-.5c0-.2,0-.4,0-.5ZM10.7,17.7c0,0,0,.2,0,.3,0,0,0,.1,0,.2.1,0,.2,0,.3,0,0,0,0,0,0-.2,0,0,0-.2,0-.3v-.8c0,0,0-.2,0-.3,0,0,0-.1,0-.2-.1,0-.2,0-.3,0,0,0,0,0,0,.2,0,0,0,.2,0,.3v.8Z"/>
    <path class="cls-1" d="M13.1,16c.2,0,.3,0,.4.2.1.1.2.3.2.5,0,.1,0,.3,0,.4,0,.1-.2.2-.3.2h0c0,0,.2,0,.3.1,0,0,0,.2.1.3h0c0,.2,0,.3,0,.3v.3c0,0,0,.1,0,.1h-.5s0,0,0-.1h0v-.6c0,0,0-.2,0-.2,0,0-.1,0-.2,0h-.3v1h-.5v-2.4h.9ZM12.9,17.1c0,0,.2,0,.3,0,0,0,0-.2,0-.3,0-.2-.1-.3-.3-.3h-.2v.7h.2Z"/>
    <path class="cls-1" d="M15,16c.1,0,.3,0,.4,0,0,0,.2.1.2.2,0,.1,0,.2.1.4,0,.2,0,.3,0,.5,0,.2,0,.4,0,.5,0,.1,0,.3-.1.4,0,0-.1.2-.2.2-.1,0-.2,0-.4,0h-.7v-2.4h.8ZM14.9,18.1c0,0,.1,0,.2,0,0,0,0,0,.1-.1,0,0,0-.2,0-.3v-.4c0-.1,0-.2,0-.4,0,0,0-.2,0-.3,0,0,0-.1-.1-.2,0,0-.1,0-.2,0h-.2v1.7h.2Z"/>
  </g>
  <path class="cls-1" d="M17,8.3l.5,2.3v.6c.1,0,.2-.6.2-.6l.5-2.3h.9l.5,2.3v.6c.1,0,.2-.6.2-.6l.5-2.4h.9l-1.2,4.1h-.8l-.5-2.3v-.8c-.1,0-.3.8-.3.8l-.5,2.4h-.8l-1.2-4.1h.9Z"/>
</svg>