<?xml version="1.0" encoding="UTF-8"?>
<svg id="_レイヤー_1" data-name="レイヤー_1" xmlns="http://www.w3.org/2000/svg" viewBox="0 0 80 80">
  <defs>
    <style>
      .cls-1 {
        fill: #fff;
      }
    </style>
  </defs>
  <path class="cls-1" d="M69,13v32.5c0,.59-.31,1.77-.59,2.29l-8.04,14.46c-.09.09-.29.22-.42.24H5.1l6.55-11.79c.78-1.41,1.35-3.6,1.35-5.21V13h56M70,10H12c-1.1,0-2,.9-2,2v33.5c0,1.1-.44,2.79-.97,3.75L.97,63.75c-.53.96-.07,1.75,1.03,1.75h58c1.1,0,2.44-.79,2.97-1.75l8.06-14.5c.53-.96.97-2.65.97-3.75V12c0-1.1-.9-2-2-2h0Z"/>
  <rect class="cls-1" x="18" y="22.64" width="46" height="7" rx="3" ry="3"/>
  <g>
    <path class="cls-1" d="M47,39.5c0,1.65-1.35,3-3,3h-6c-1.65,0-3-1.35-3-3h0c0-1.65,1.35-3,3-3h6c1.65,0,3,1.35,3,3h0Z"/>
    <path class="cls-1" d="M30,39.5c0,1.65-1.35,3-3,3h-6c-1.65,0-3-1.35-3-3h0c0-1.65,1.35-3,3-3h6c1.65,0,3,1.35,3,3h0Z"/>
    <path class="cls-1" d="M64,39.5c0,1.65-1.35,3-3,3h-6c-1.65,0-3-1.35-3-3h0c0-1.65,1.35-3,3-3h6c1.65,0,3,1.35,3,3h0Z"/>
  </g>
  <path class="cls-1" d="M24,7c1.1,0,2,.9,2,2v6c0,1.1-.9,2-2,2h0c-1.1,0-2-.9-2-2v-6c0-1.1.9-2,2-2h0Z"/>
  <path class="cls-1" d="M58,7c1.1,0,2,.9,2,2v6c0,1.1-.9,2-2,2h0c-1.1,0-2-.9-2-2v-6c0-1.1.9-2,2-2h0Z"/>
  <g>
    <path class="cls-1" d="M43,52.94c0,1.65-1.35,3-3,3h-6c-1.65,0-3-1.35-3-3h0c0-1.65,1.35-3,3-3h6c1.65,0,3,1.35,3,3h0Z"/>
    <path class="cls-1" d="M26,52.94c0,1.65-1.35,3-3,3h-6c-1.65,0-3-1.35-3-3h0c0-1.65,1.35-3,3-3h6c1.65,0,3,1.35,3,3h0Z"/>
    <path class="cls-1" d="M60,52.94c0,1.65-1.35,3-3,3h-6c-1.65,0-3-1.35-3-3h0c0-1.65,1.35-3,3-3h6c1.65,0,3,1.35,3,3h0Z"/>
  </g>
  <path class="cls-1" d="M68,54.7v15.3H13v-4.5h-3v5.5c0,1.1.9,2,2,2h57c1.1,0,2-.9,2-2v-21.7l-3,5.4Z"/>
</svg>