<?xml version="1.0" encoding="UTF-8"?>
<svg id="_レイヤー_1" data-name="レイヤー_1" xmlns="http://www.w3.org/2000/svg" viewBox="0 0 430 750">
  <defs>
    <style>
      .cls-1 {
        fill: #fff;
      }
    </style>
  </defs>
  <path class="cls-1" d="M417.04,217.65h-21.66v-3.51h21.66v-4.9h2.63v13.28h-2.63v-4.86Z"/>
  <path class="cls-1" d="M395.39,242.68h11.05v-6.45h-11.05v-3.51h24.28v3.51h-10.61v6.45h10.61v3.51h-24.28v-3.51Z"/>
  <path class="cls-1" d="M395.39,258.15h24.28v11.23h-2.63v-7.72h-8.15v6.66h-2.63v-6.66h-8.25v7.72h-2.63v-11.23Z"/>
  <path class="cls-1" d="M396.72,306.11c-1.06-1.27-1.6-2.98-1.6-4.86s.55-3.55,1.6-4.82c.99-1.18,2.42-1.88,4.19-1.88h18.76v3.51h-18.93c-1.91,0-3,1.43-3,3.19s1.09,3.23,3,3.23h18.93v3.51h-18.76c-1.77,0-3.21-.69-4.19-1.88Z"/>
  <path class="cls-1" d="M395.39,330.75l16.61-7.52h-16.61v-3.51h24.28v3.27l-16.61,7.43h16.61v3.51h-24.28v-3.19Z"/>
  <path class="cls-1" d="M395.39,345.95h24.28v3.51h-24.28v-3.51Z"/>
  <path class="cls-1" d="M395.39,368.91v-3.59l24.28-6.29v3.88l-19.54,4.21,19.54,4.25v3.84l-24.28-6.29Z"/>
  <path class="cls-1" d="M395.39,384.71h24.28v11.23h-2.63v-7.72h-8.15v6.66h-2.63v-6.66h-8.25v7.72h-2.63v-11.23Z"/>
  <path class="cls-1" d="M395.39,417.64l10.44-4v-3.15h-10.44v-3.51h24.28v6.58c0,4.41-1.6,6.86-6.92,6.86-3.38,0-5.35-.98-6.34-3.51l-11.02,4.45v-3.72ZM417.04,413.59v-3.1h-8.63v3.1c0,2.7,1.74,3.31,4.33,3.31s4.3-.61,4.3-3.31Z"/>
  <path class="cls-1" d="M396.61,443.3c-.89-1.1-1.47-2.82-1.47-5.15s.51-3.96,1.47-5.11c1.12-1.35,2.52-1.8,5.12-1.8v3.51c-1.6,0-2.49.2-3.17.98-.44.49-.75,1.31-.75,2.41,0,1.18.31,1.96.78,2.49.72.78,1.64.94,3.24.94,2.8,0,3.65-.49,4.47-2.86l1.12-3.31c1.02-2.98,2.39-3.96,6.07-3.96,2.11,0,3.85.74,4.98,2.21.89,1.14,1.4,2.7,1.4,4.62,0,2.12-.51,3.72-1.4,4.82-1.19,1.47-2.76,1.92-4.98,1.92v-3.51c1.3,0,2.18-.16,2.93-.9.51-.49.82-1.27.82-2.37,0-1.02-.31-1.76-.75-2.25-.65-.7-1.64-1.02-2.9-1.02-2.39,0-3.1.45-3.92,2.78l-1.12,3.27c-1.13,3.31-2.83,4.08-6.65,4.08-2.52,0-4.13-.41-5.29-1.8Z"/>
  <path class="cls-1" d="M395.39,456.21h24.28v3.51h-24.28v-3.51Z"/>
  <path class="cls-1" d="M417.04,478.38h-21.66v-3.51h21.66v-4.9h2.63v13.28h-2.63v-4.86Z"/>
  <path class="cls-1" d="M405.21,499.79h-9.82v-3.51h9.82l14.46-5.35v3.84l-10.37,3.27,10.37,3.27v3.88l-14.46-5.39Z"/>
  <path class="cls-1" d="M396.89,540.4c-1.06-1.14-1.77-2.7-1.77-4.98s.72-3.84,1.77-4.98c1.74-1.88,3.92-2.12,10.64-2.12s8.9.25,10.64,2.12c1.06,1.14,1.77,2.7,1.77,4.98s-.72,3.84-1.77,4.98c-1.74,1.88-3.92,2.12-10.64,2.12s-8.9-.25-10.64-2.12ZM416.4,537.79c.54-.49.92-1.23.92-2.37s-.38-1.92-.92-2.41c-1.16-1.02-3.1-1.18-8.87-1.18s-7.71.16-8.87,1.18c-.54.49-.92,1.27-.92,2.41s.38,1.88.92,2.37c1.16,1.02,3.1,1.23,8.87,1.23s7.71-.2,8.87-1.23Z"/>
  <path class="cls-1" d="M416.33,558.75l-8.12-.74-.61,6.63-2.62-.24.61-6.63-10.83-.99.32-3.5,24.18,2.22-1.03,11.19-2.62-.24.71-7.69Z"/>
  <path class="cls-1" d="M389.43,588.04l23.28,6.91-3.19,10.77-2.52-.75,2.2-7.4-7.82-2.32-1.89,6.38-2.52-.75,1.89-6.38-7.91-2.35-2.19,7.4-2.52-.75,3.19-10.77Z"/>
  <path class="cls-1" d="M382.64,608.51l22.3,9.6-1.39,3.23-19.89-8.57-3.05,7.09-2.41-1.04,4.44-10.31Z"/>
  <path class="cls-1" d="M373.83,627.34l21.02,12.16-5.62,9.72-2.27-1.32,3.86-6.68-7.06-4.08-3.33,5.76-2.27-1.31,3.33-5.76-7.15-4.13-3.86,6.68-2.27-1.31,5.62-9.72Z"/>
  <path class="cls-1" d="M356.73,655c.01-1.43.49-2.85,1.65-4.38,1.38-1.82,2.92-2.66,4.42-2.9,2.63-.42,4.41.68,9.76,4.73,5.35,4.06,6.89,5.48,7.2,8.12.18,1.52-.21,3.22-1.6,5.04-1.23,1.63-2.5,2.46-3.93,2.81-1.68.42-3.49-.08-5.09-1.24l2.1-2.77c.84.58,1.78,1.04,2.77.92.65-.07,1.4-.43,2.06-1.31.69-.91.86-1.76.72-2.48-.31-1.51-1.76-2.82-6.35-6.3s-6.24-4.53-7.78-4.41c-.73.06-1.5.45-2.19,1.36-.67.88-.81,1.69-.7,2.34.18.95.87,1.79,1.66,2.44l-2.1,2.77c-1.61-1.27-2.6-2.95-2.61-4.74Z"/>
  <path class="cls-1" d="M358.7,683.64l-15.53-15.1,2.45-2.52,15.53,15.1,3.42-3.52,1.88,1.83-9.25,9.52-1.88-1.83,3.39-3.49Z"/>
  <path class="cls-1" d="M324.43,685.07l9.64,5.65,2.46-1.96-6.52-8.15,2.74-2.19,15.17,18.97-5.14,4.11c-3.45,2.75-6.36,3.03-9.68-1.12-2.11-2.64-2.58-4.79-1.22-7.15l-10.36-5.83,2.9-2.32ZM341.11,699.46l2.42-1.94-5.39-6.74-2.42,1.94c-2.11,1.68-1.5,3.42.12,5.45,1.62,2.02,3.16,2.97,5.27,1.29Z"/>
  <path class="cls-1" d="M304.1,700.28c.44-1.49,1.4-2.91,3.36-4.08s3.66-1.36,5.19-1.04c2.51.53,3.84,2.27,7.29,8.04s4.37,7.76,3.65,10.22c-.44,1.5-1.4,2.91-3.36,4.08s-3.66,1.36-5.19,1.04c-2.51-.53-3.84-2.27-7.29-8.03-3.45-5.76-4.37-7.76-3.65-10.22ZM316.37,715.66c.7.22,1.52.16,2.5-.43.98-.59,1.45-1.31,1.59-2.03.28-1.52-.58-3.27-3.54-8.21s-4.1-6.53-5.57-7c-.7-.22-1.56-.14-2.54.45-.98.59-1.42,1.29-1.56,2.01-.28,1.52.54,3.29,3.51,8.24s4.14,6.51,5.61,6.98Z"/>
  <path class="cls-1" d="M295.92,712.17l1.08,2.4-7.3,3.28-1.08-2.4,7.3-3.28Z"/>
  <path class="cls-1" d="M265.1,716.1c.83-1.16,2.05-2.04,3.88-2.62,2.18-.69,3.92-.49,5.29.19,2.39,1.18,3.21,3.1,5.23,9.5,2.03,6.41,2.46,8.45,1.18,10.79-.73,1.34-2.04,2.5-4.22,3.19-1.95.62-3.46.56-4.83.03-1.61-.63-2.8-2.08-3.44-3.96l3.31-1.05c.35.96.85,1.88,1.73,2.35.57.32,1.39.46,2.44.12,1.09-.35,1.72-.94,2.02-1.6.62-1.41.19-3.32-1.54-8.81s-2.48-7.3-3.8-8.1c-.63-.37-1.49-.5-2.58-.15-1.05.33-1.64.91-1.92,1.5-.41.88-.32,1.96-.05,2.95l-3.31,1.05c-.58-1.96-.42-3.91.61-5.38Z"/>
  <path class="cls-1" d="M241.87,721.58c.94-1.24,2.35-2.21,4.6-2.61,2.25-.4,3.91.04,5.21.88,2.15,1.39,2.77,3.49,3.94,10.11,1.17,6.62,1.3,8.81-.24,10.85-.94,1.24-2.35,2.21-4.6,2.61-2.25.4-3.91-.04-5.21-.88-2.15-1.39-2.77-3.49-3.94-10.11s-1.3-8.81.24-10.85ZM247.83,740.33c.58.45,1.37.69,2.49.5,1.13-.2,1.83-.7,2.21-1.32.8-1.32.63-3.26-.37-8.94-1-5.68-1.5-7.56-2.71-8.53-.58-.45-1.41-.69-2.53-.49-1.13.2-1.79.7-2.17,1.32-.8,1.32-.67,3.27.33,8.94,1,5.68,1.54,7.55,2.75,8.52Z"/>
  <path class="cls-1" d="M214.31,722.07l.49,17.29,4.29-11.49,2.16-.06,4.84,10.96-.48-17.02,3.51-.1.68,24.28-3.31.09-6.26-13.34-5.46,13.67-3.31.09-.68-24.28,3.51-.1Z"/>
  <path class="cls-1" d="M185.03,719.6l-2.31,17.14,6.09-10.64,2.15.29,3.01,11.59,2.28-16.87,3.48.47-3.25,24.06-3.28-.44-4.02-14.17-7.6,12.6-3.28-.44,3.25-24.06,3.48.47Z"/>
  <path class="cls-1" d="M159.43,714.72c1.51-.66,3.31-.71,5.12-.18,1.8.53,3.26,1.52,4.18,2.89.86,1.28,1.13,2.85.63,4.55l-5.25,18.01-3.37-.98,5.29-18.17c.53-1.83-.53-3.28-2.22-3.77-1.69-.49-3.4.14-3.94,1.98l-5.29,18.17-3.37-.98,5.25-18.01c.5-1.7,1.56-2.88,2.98-3.5Z"/>
  <path class="cls-1" d="M137.67,704.66l.06,18.24,6.8-15.16,3.2,1.44-9.94,22.16-2.98-1.34.02-18.2-6.8,15.16-3.2-1.44,9.94-22.16,2.91,1.3Z"/>
  <path class="cls-1" d="M124.81,697.86l-12.36,20.9-3.02-1.79,12.36-20.9,3.02,1.79Z"/>
  <path class="cls-1" d="M102.79,684.28c1.43,0,2.86.47,4.4,1.62,1.83,1.37,2.68,2.89,2.94,4.4.44,2.62-.64,4.42-4.65,9.8s-5.42,6.94-8.06,7.27c-1.52.19-3.22-.19-5.06-1.55-1.64-1.22-2.48-2.48-2.85-3.91-.43-1.68.05-3.49,1.2-5.1l2.78,2.07c-.58.85-1.03,1.79-.9,2.78.08.65.44,1.39,1.33,2.05.92.68,1.76.85,2.48.7,1.51-.32,2.8-1.78,6.25-6.41,3.44-4.62,4.47-6.28,4.35-7.82-.07-.73-.47-1.5-1.38-2.18-.88-.66-1.7-.8-2.34-.68-.95.18-1.78.89-2.42,1.68l-2.78-2.07c1.25-1.62,2.92-2.63,4.72-2.65Z"/>
  <path class="cls-1" d="M86.21,667.98l-2.99,5.08,4.84,4.69,4.98-3.15,2.64,2.56-21.76,12.75-2.44-2.36,12.04-22.14,2.67,2.58ZM76.03,685.33l9.75-6.14-3.91-3.78-5.84,9.92Z"/>
  <path class="cls-1" d="M56.69,667.15l16.84-13.61,2.21,2.73-16.84,13.61,3.08,3.81-2.04,1.65-8.35-10.32,2.04-1.65,3.06,3.78Z"/>
  <path class="cls-1" d="M64.98,641.82l-20.32,13.31-1.93-2.94,20.32-13.31,1.92,2.94Z"/>
  <path class="cls-1" d="M50.62,619.72c1.46.54,2.8,1.59,3.84,3.63s1.11,3.75.69,5.24c-.69,2.46-2.53,3.67-8.51,6.73-5.98,3.05-8.04,3.83-10.44,2.95-1.46-.54-2.81-1.59-3.84-3.63-1.04-2.04-1.11-3.75-.69-5.24.7-2.46,2.53-3.67,8.51-6.73,5.98-3.05,8.04-3.83,10.44-2.95ZM34.43,630.91c-.26.68-.26,1.51.26,2.53s1.21,1.54,1.92,1.73c1.5.38,3.3-.36,8.44-2.98,5.13-2.62,6.79-3.65,7.36-5.08.26-.69.24-1.55-.28-2.57-.52-1.02-1.19-1.5-1.9-1.69-1.5-.38-3.32.32-8.46,2.94s-6.77,3.69-7.34,5.12Z"/>
  <path class="cls-1" d="M43.26,597.07l-13.23,12.55,15.69-5.45,1.15,3.32-22.95,7.96-1.07-3.09,13.26-12.47-15.69,5.45-1.15-3.32,22.95-7.96,1.04,3.01Z"/>
  <path class="cls-1" d="M35.96,572.68c1.09.91,1.99,2.47,2.45,4.76.44,2.2.28,3.98-.43,5.29-.84,1.54-2.12,2.26-4.66,2.77l-.69-3.44c1.57-.32,2.4-.69,2.92-1.59.34-.57.48-1.43.26-2.51-.23-1.16-.69-1.86-1.26-2.29-.86-.62-1.79-.6-3.36-.28-2.74.55-3.48,1.2-3.82,3.68l-.45,3.46c-.42,3.12-1.56,4.36-5.17,5.08-2.07.42-3.92.04-5.32-1.18-1.09-.95-1.9-2.37-2.28-4.25-.42-2.08-.23-3.74.42-5,.88-1.68,2.33-2.43,4.5-2.86l.69,3.44c-1.27.26-2.11.59-2.7,1.46-.41.58-.55,1.4-.34,2.48.2,1,.65,1.66,1.18,2.05.77.55,1.81.68,3.04.43,2.34-.47,2.96-1.05,3.3-3.5l.46-3.42c.45-3.47,1.97-4.56,5.72-5.32,2.47-.5,4.13-.41,5.54.72Z"/>
  <path class="cls-1" d="M12.96,539.78h21.66v3.51H12.96v4.9h-2.63v-13.28h2.63v4.86Z"/>
  <path class="cls-1" d="M34.61,514.73h-11.05v6.45h11.05v3.51H10.33v-3.51h10.61v-6.45h-10.61v-3.51h24.28v3.51Z"/>
  <path class="cls-1" d="M34.61,499.26H10.33v-11.23h2.63v7.72h8.15v-6.66h2.63v6.66h8.25v-7.72h2.63v11.23Z"/>
  <path class="cls-1" d="M33.28,451.29c1.06,1.27,1.6,2.98,1.6,4.86s-.55,3.55-1.6,4.82c-.99,1.18-2.42,1.88-4.2,1.88H10.33v-3.51h18.93c1.91,0,3-1.43,3-3.19s-1.09-3.23-3-3.23H10.33v-3.51h18.76c1.77,0,3.21.69,4.2,1.88Z"/>
  <path class="cls-1" d="M34.61,426.67l-16.61,7.52h16.61v3.51H10.33v-3.27l16.61-7.43H10.33v-3.51h24.28v3.19Z"/>
  <path class="cls-1" d="M34.61,411.46H10.33v-3.51h24.28v3.51Z"/>
  <path class="cls-1" d="M34.61,388.51v3.59l-24.28,6.29v-3.88l19.54-4.21-19.54-4.25v-3.84l24.28,6.29Z"/>
  <path class="cls-1" d="M34.61,372.72H10.33v-11.23h2.63v7.72h8.15v-6.66h2.63v6.66h8.25v-7.72h2.63v11.23Z"/>
  <path class="cls-1" d="M34.61,339.77l-10.44,4v3.15h10.44v3.51H10.33v-6.58c0-4.41,1.6-6.86,6.92-6.86,3.38,0,5.35.98,6.34,3.51l11.02-4.45v3.72ZM12.96,343.81v3.1h8.63v-3.1c0-2.7-1.74-3.31-4.33-3.31s-4.3.61-4.3,3.31Z"/>
  <path class="cls-1" d="M33.39,314.13c.89,1.1,1.47,2.82,1.47,5.15s-.51,3.96-1.47,5.11c-1.13,1.35-2.52,1.8-5.12,1.8v-3.51c1.6,0,2.49-.2,3.17-.98.44-.49.75-1.31.75-2.41,0-1.18-.31-1.96-.78-2.49-.72-.78-1.64-.94-3.24-.94-2.8,0-3.65.49-4.47,2.86l-1.13,3.31c-1.02,2.98-2.39,3.96-6.07,3.96-2.11,0-3.85-.74-4.98-2.21-.89-1.14-1.4-2.7-1.4-4.62,0-2.12.51-3.72,1.4-4.82,1.19-1.47,2.76-1.92,4.98-1.92v3.51c-1.3,0-2.18.16-2.93.9-.51.49-.82,1.27-.82,2.37,0,1.02.31,1.76.75,2.25.65.7,1.64,1.02,2.9,1.02,2.39,0,3.1-.45,3.92-2.78l1.13-3.27c1.12-3.31,2.83-4.08,6.65-4.08,2.52,0,4.13.41,5.29,1.8Z"/>
  <path class="cls-1" d="M34.61,301.23H10.33v-3.51h24.28v3.51Z"/>
  <path class="cls-1" d="M12.96,279.05h21.66v3.51H12.96v4.9h-2.63v-13.28h2.63v4.86Z"/>
  <path class="cls-1" d="M24.79,257.63h9.82v3.51h-9.82l-14.46,5.35v-3.84l10.37-3.27-10.37-3.27v-3.88l14.46,5.39Z"/>
  <path class="cls-1" d="M33.11,217.02c1.06,1.14,1.77,2.7,1.77,4.98s-.72,3.84-1.77,4.98c-1.74,1.88-3.92,2.12-10.64,2.12s-8.9-.25-10.64-2.12c-1.06-1.14-1.77-2.7-1.77-4.98s.72-3.84,1.77-4.98c1.74-1.88,3.92-2.12,10.64-2.12s8.9.25,10.64,2.12ZM13.6,219.63c-.55.49-.92,1.23-.92,2.37s.38,1.92.92,2.41c1.16,1.02,3.1,1.18,8.87,1.18s7.71-.16,8.87-1.18c.55-.49.92-1.27.92-2.41s-.38-1.88-.92-2.37c-1.16-1.02-3.1-1.23-8.87-1.23s-7.71.2-8.87,1.23Z"/>
  <path class="cls-1" d="M13.15,199.32l8.14.42.34-6.65,2.62.13-.34,6.65,10.86.56-.18,3.51-24.25-1.25.58-11.22,2.62.13-.4,7.71Z"/>
  <path class="cls-1" d="M38.86,168.95l-23.54-5.96,2.76-10.89,2.55.65-1.89,7.48,7.9,2,1.63-6.45,2.55.64-1.63,6.46,8,2.03,1.9-7.48,2.55.65-2.76,10.89Z"/>
  <path class="cls-1" d="M44.82,148.21l-22.67-8.7,1.26-3.28,20.22,7.76,2.77-7.21,2.45.94-4.02,10.49Z"/>
  <path class="cls-1" d="M52.86,129.04l-21.49-11.31,5.23-9.94,2.32,1.22-3.59,6.83,7.21,3.8,3.1-5.89,2.32,1.22-3.1,5.89,7.3,3.84,3.59-6.83,2.32,1.22-5.23,9.94Z"/>
  <path class="cls-1" d="M68.84,100.72c.05,1.42-.38,2.87-1.48,4.45-1.31,1.88-2.81,2.77-4.3,3.07-2.61.52-4.43-.5-9.95-4.34-5.51-3.84-7.1-5.2-7.52-7.83-.24-1.51.09-3.23,1.39-5.1,1.17-1.67,2.41-2.56,3.82-2.97,1.67-.48,3.49-.06,5.14,1.04l-1.99,2.85c-.86-.55-1.82-.97-2.8-.81-.65.1-1.38.48-2.01,1.39-.65.94-.79,1.79-.62,2.5.37,1.5,1.87,2.75,6.6,6.04,4.73,3.29,6.42,4.27,7.95,4.1.73-.09,1.48-.51,2.13-1.45.63-.9.74-1.72.61-2.36-.21-.95-.94-1.75-1.76-2.37l1.99-2.85c1.66,1.2,2.72,2.84,2.8,4.64Z"/>
  <path class="cls-1" d="M65.72,72.2l16.12,14.46-2.34,2.62-16.12-14.46-3.27,3.65-1.96-1.75,8.86-9.88,1.96,1.75-3.25,3.62Z"/>
  <path class="cls-1" d="M99.91,69.41l-9.86-5.26-2.38,2.06,6.84,7.89-2.66,2.3-15.91-18.35,4.97-4.31c3.33-2.89,6.24-3.28,9.72.74,2.21,2.55,2.77,4.69,1.5,7.09l10.58,5.41-2.81,2.43ZM82.67,55.69l-2.35,2.03,5.65,6.52,2.35-2.03c2.04-1.76,1.36-3.48-.34-5.44-1.7-1.96-3.28-2.85-5.32-1.08Z"/>
  <path class="cls-1" d="M119.61,53.39c-.38,1.51-1.28,2.96-3.2,4.21s-3.6,1.5-5.14,1.25c-2.53-.43-3.93-2.12-7.61-7.74-3.68-5.62-4.67-7.58-4.05-10.07.38-1.51,1.28-2.96,3.2-4.21,1.91-1.25,3.6-1.5,5.14-1.25,2.52.42,3.93,2.12,7.61,7.74s4.67,7.58,4.06,10.07ZM106.73,38.5c-.71-.19-1.53-.1-2.49.53-.96.63-1.4,1.37-1.51,2.09-.22,1.53.71,3.25,3.87,8.07,3.16,4.82,4.36,6.36,5.85,6.77.71.19,1.56.08,2.52-.55.96-.63,1.37-1.34,1.48-2.07.22-1.53-.68-3.27-3.83-8.09-3.16-4.82-4.39-6.34-5.88-6.75Z"/>
  <path class="cls-1" d="M127.32,41.17l-1.17-2.35,7.17-3.57,1.17,2.35-7.17,3.57Z"/>
  <path class="cls-1" d="M157.95,36c-.79,1.19-1.97,2.12-3.77,2.78-2.15.78-3.89.64-5.29.02-2.43-1.08-3.33-2.97-5.61-9.29-2.28-6.32-2.8-8.35-1.62-10.73.68-1.37,1.93-2.58,4.08-3.36,1.92-.69,3.44-.7,4.83-.22,1.64.57,2.88,1.97,3.59,3.82l-3.27,1.18c-.39-.95-.93-1.84-1.82-2.28-.58-.3-1.4-.4-2.44-.03-1.08.39-1.68,1-1.95,1.68-.57,1.44-.06,3.32,1.9,8.75s2.77,7.2,4.12,7.94c.65.35,1.5.44,2.58.05,1.04-.38,1.6-.98,1.86-1.58.37-.9.24-1.97-.07-2.95l3.27-1.18c.66,1.94.58,3.89-.4,5.4Z"/>
  <path class="cls-1" d="M180.96,29.59c-.89,1.28-2.26,2.31-4.49,2.79-2.23.49-3.9.12-5.25-.67-2.21-1.3-2.91-3.38-4.34-9.95s-1.66-8.75-.19-10.85c.89-1.28,2.26-2.31,4.49-2.79,2.23-.49,3.9-.12,5.25.67,2.21,1.3,2.91,3.38,4.34,9.95,1.43,6.56,1.66,8.75.19,10.85ZM174.25,11.08c-.6-.43-1.39-.64-2.51-.4-1.12.24-1.8.78-2.16,1.41-.75,1.35-.5,3.29.73,8.92s1.8,7.5,3.04,8.41c.6.43,1.43.63,2.55.39s1.76-.77,2.12-1.4c.75-1.35.54-3.29-.69-8.93-1.23-5.63-1.84-7.49-3.08-8.4Z"/>
  <path class="cls-1" d="M208.47,28.01l-1.15-17.25-3.85,11.64-2.16.14-5.26-10.76,1.13,16.98-3.5.23-1.62-24.23,3.3-.22,6.77,13.08,4.93-13.86,3.3-.22,1.62,24.23-3.5.23Z"/>
  <path class="cls-1" d="M237.81,29.32l1.62-17.21-5.66,10.87-2.16-.2-3.47-11.46-1.6,16.94-3.5-.33,2.28-24.17,3.29.31,4.59,14,7.08-12.89,3.29.31-2.28,24.17-3.5-.33Z"/>
  <path class="cls-1" d="M263.58,33.15c-1.48.72-3.28.84-5.1.39-1.82-.45-3.32-1.38-4.29-2.72-.91-1.25-1.24-2.8-.81-4.52l4.51-18.21,3.41.85-4.56,18.38c-.46,1.85.67,3.26,2.37,3.68,1.7.42,3.39-.28,3.85-2.14l4.56-18.38,3.41.84-4.52,18.21c-.43,1.72-1.45,2.95-2.83,3.62Z"/>
  <path class="cls-1" d="M285.75,42.34l-.79-18.22-6.18,15.42-3.26-1.31,9.04-22.54,3.03,1.22.72,18.19,6.18-15.42,3.26,1.31-9.04,22.54-2.96-1.19Z"/>
  <path class="cls-1" d="M298.85,48.6l11.52-21.38,3.09,1.67-11.52,21.38-3.09-1.67Z"/>
  <path class="cls-1" d="M321.41,61.3c-1.43.06-2.88-.36-4.46-1.44-1.89-1.29-2.8-2.78-3.11-4.28-.54-2.6.46-4.44,4.26-9.98,3.8-5.55,5.14-7.15,7.77-7.58,1.51-.25,3.23.06,5.11,1.35,1.69,1.15,2.58,2.38,3,3.79.5,1.66.09,3.49-1,5.15l-2.87-1.96c.54-.87.95-1.83.79-2.81-.1-.65-.5-1.37-1.41-2-.94-.65-1.8-.78-2.51-.6-1.5.38-2.73,1.89-5.99,6.65s-4.22,6.46-4.03,7.99c.1.73.52,1.47,1.47,2.12.91.62,1.73.73,2.37.59.94-.22,1.74-.96,2.36-1.78l2.87,1.96c-1.19,1.67-2.82,2.74-4.61,2.84Z"/>
  <path class="cls-1" d="M338.62,76.91l2.78-5.2-5.03-4.49-4.85,3.35-2.74-2.45,21.24-13.61,2.53,2.26-11.15,22.61-2.77-2.48ZM348.1,59.17l-9.49,6.53,4.05,3.62,5.44-10.14Z"/>
  <path class="cls-1" d="M368.15,76.56l-16.29,14.28-2.32-2.64,16.29-14.28-3.23-3.69,1.97-1.73,8.75,9.98-1.98,1.73-3.2-3.66Z"/>
  <path class="cls-1" d="M360.87,102.21l19.76-14.11,2.04,2.86-19.76,14.11-2.04-2.86Z"/>
  <path class="cls-1" d="M376.11,123.72c-1.48-.48-2.87-1.48-3.99-3.47s-1.26-3.7-.89-5.21c.6-2.49,2.38-3.77,8.24-7.06,5.86-3.29,7.88-4.15,10.32-3.36,1.48.48,2.87,1.48,3.99,3.47,1.12,1.99,1.26,3.7.89,5.21-.6,2.49-2.38,3.77-8.24,7.06-5.86,3.29-7.88,4.15-10.32,3.36ZM391.84,111.89c.24-.69.2-1.52-.36-2.52-.56-1-1.27-1.49-1.98-1.65-1.51-.32-3.29.49-8.31,3.31-5.03,2.82-6.64,3.92-7.15,5.38-.24.69-.18,1.55.38,2.55.56,1,1.25,1.45,1.96,1.61,1.51.32,3.31-.45,8.33-3.28,5.03-2.82,6.62-3.95,7.13-5.41Z"/>
  <path class="cls-1" d="M384.38,146.06l12.71-13.07-15.46,6.07-1.28-3.27,22.61-8.88,1.2,3.04-12.75,12.99,15.46-6.07,1.28,3.27-22.61,8.88-1.17-2.96Z"/>
  <path class="cls-1" d="M392.66,170.15c-1.12-.86-2.09-2.39-2.64-4.65-.53-2.18-.44-3.97.22-5.31.77-1.58,2.03-2.34,4.55-2.96l.83,3.41c-1.56.38-2.37.79-2.85,1.7-.32.58-.42,1.45-.16,2.52.28,1.15.76,1.83,1.35,2.24.88.58,1.81.53,3.37.15,2.72-.66,3.43-1.34,3.67-3.83l.31-3.48c.29-3.14,1.38-4.42,4.96-5.29,2.05-.5,3.92-.2,5.36.96,1.13.9,2,2.29,2.45,4.15.5,2.06.38,3.73-.22,5.01-.81,1.71-2.23,2.52-4.38,3.04l-.83-3.41c1.26-.31,2.08-.67,2.64-1.57.38-.6.5-1.42.24-2.5-.24-.99-.71-1.63-1.26-2.01-.79-.52-1.83-.6-3.06-.31-2.32.56-2.91,1.17-3.15,3.63l-.32,3.44c-.31,3.48-1.78,4.64-5.5,5.54-2.45.6-4.11.58-5.56-.5Z"/>
</svg>