<?xml version="1.0" encoding="UTF-8"?>
<svg id="_レイヤー_1" data-name="レイヤー 1" xmlns="http://www.w3.org/2000/svg" width="160" height="60" viewBox="0 0 160 60">
  <defs>
    <style>
      .cls-1 {
        fill: #fff;
        stroke-width: 0px;
      }
    </style>
  </defs>
  <g>
    <path class="cls-1" d="M14.15,49.27c-2.3-.2-5.82-1.14-7.87-2.81-2.05-1.67-2.91-3.4-2.99-6.49-.08-3.24-.08-29.19-.08-29.19h10.44s.07,28.56.08,29.52c.02.96.43,2.3,1.45,3.13,1.02.84,2.84,1.25,4.3,1.25,2.16,0,4.07-.42,5.09-1.25,1.02-.84,1.25-1.59,1.45-3.13.17-1.37.08-29.52.08-29.52h8.48s0,25.9-.08,29.19c-.08,2.98-.94,4.79-2.99,6.47-2.02,1.65-4.82,2.64-7.2,2.83-3.77.29-7.01.28-10.16,0"/>
    <path class="cls-1" d="M46.49,45.83V10.79h26.13v4.26h-15.69v11.73h13.21v4.22h-13.21v13.77h15.69v4.27h-22.74c-2.64,0-3.39-1.23-3.39-3.22"/>
    <path class="cls-1" d="M105.65,44.92c-2.92.06-3.08.05-4.74,0-.32-.01-.64-.04-.96-.09,0,0,0,0,0,0-.02,0-.04,0-.07,0-.02,0-.03,0-.05,0h0c-.51-.04-1.42-.2-2.37-.79-.99-.61-1.53-1.4-1.78-1.81-.32-.69-.5-1.44-.52-2.09-.17-5.22-.15-14.21,0-19.83.05-2.01.25-2.9,1.54-3.98,1.02-.85,2.77-1.26,4.2-1.33,1.46-.07,1.77-.08,4.74,0,2.96.08,4.79.51,5.2,3.33h5.25c-.39-5.66-3.88-7.44-10.44-7.67-6.55-.23-7.71-.11-10.49.08-2.66.19-5.4.93-7.41,2.61-2.02,1.69-2.92,3.31-3.03,6.79-.26,8.71-.26,12.75,0,19.67.04.94.13,2.05.59,3.26.73,1.91,1.96,3.1,2.48,3.56,1.92,1.69,4.03,2.1,5.19,2.25,0,0,0,0,0,0,.87.18,1.65.28,2.17.31,2.11.1,4.47.23,10.49.08,5.9-.15,9.98-2.02,10.44-7.68h-5.25c-.39,2.82-2.25,3.26-5.2,3.33"/>
  </g>
  <path class="cls-1" d="M132.45,27.13c4.53-.28,9.05-.74,13.55-1.27,2.36-.28,4.71-.59,7.04-.96.12-.03.28-.03.4-.03.46,0,.53.4.59.77.12.53.28,1.74.28,2.26,0,.68-.65.62-1.4.65-1.8.03-3.38.03-5.15.65-2.39.87-4.06,2.39-5.27,4.62-.9,1.64-1.49,3.57-1.49,5.46,0,3.6,2.29,4.46,5.46,4.46.53,0,1.21-.03,1.55-.03.46,0,.71.03.71.53,0,.62-.22,1.98-.46,2.54-.22.46-.46.53-.99.53-5.27,0-9.8-1.67-9.8-7.72,0-3.16,1.3-6.57,3.41-8.9.34-.37.53-.59.53-.74,0-.28-.25-.37-.46-.37s-1.64.25-1.95.28c-2.08.31-4.87.74-6.85,1.27-.16.03-.31.06-.46.06-.43,0-.59-.68-.68-1.02-.12-.53-.34-1.71-.34-2.23,0-.81.43-.71,1.8-.81ZM153.04,34.7c0,.47-1.24,1.3-1.58,1.3-.22,0-.31-.22-.43-.37-.62-.9-1.3-1.77-1.98-2.6-.09-.09-.28-.28-.28-.43,0-.37,1.24-1.15,1.58-1.15s2.7,2.88,2.7,3.26ZM156.79,32.99c0,.43-1.21,1.3-1.58,1.3-.22,0-.34-.25-.46-.4-.5-.74-1.4-1.89-2.02-2.57-.09-.09-.22-.28-.22-.4,0-.37,1.21-1.18,1.58-1.18.31,0,2.7,2.88,2.7,3.26Z"/>
</svg>