<?xml version="1.0" encoding="UTF-8"?>
<svg id="_レイヤー_1" data-name="レイヤー 1" xmlns="http://www.w3.org/2000/svg" width="160" height="60" viewBox="0 0 160 60">
  <defs>
    <style>
      .cls-1 {
        fill: #fff;
        stroke-width: 0px;
      }
    </style>
  </defs>
  <path class="cls-1" d="M21.77,36.25c-1.67,0-3.33.13-5,.13-1.04,0-.99-.54-.99-2.11s-.04-2.12.99-2.12c1.67,0,3.33.14,5,.14h4.72c.85,0,1.21-.41,1.21-1.26v-1.39c0-.63,0-1.31-.09-1.94-.04-.14-.04-.27-.04-.45,0-.54.36-.67.85-.67.72,0,3.51.18,4.23.27.31.04.72.18.72.58,0,.36-.27.45-.5.63-.58.41-.54.99-.54,2.83v.13c0,.85.36,1.17,1.26,1.26h4.19c1.03,0,2.07-.09,3.15-.09,1.39,0,2.16.36,2.16,1.89,0,1.94-.63,8.01-.63,9.49,0,1.4.22,1.71,1.62,1.71h2.57c1.71,0,1.89-.5,2.38-3.51.18-.94.22-1.48,1.17-1.48s3.2.49,3.2,2.02c0,1.44-.9,4.63-1.71,5.85-.9,1.4-2.7,1.44-4.23,1.44h-4.54c-2.79,0-5.17.09-5.17-3.46,0-1.21.5-7.02.54-8.73.04-.85-.36-1.17-1.17-1.17h-3.78c-.86,0-1.26.31-1.49,1.17-1.44,5.71-5.89,9.45-11.29,11.43-1.08.41-3.83,1.22-4.91,1.22-1.53,0-2.29-2.83-2.29-3.65,0-.77.5-.85,1.17-.94,5.04-.63,10.62-2.93,12.46-8.05.04-.14.09-.23.09-.36,0-.58-.5-.76-.99-.81h-4.32ZM36.75,14.25h7.29c1.71,0,3.38-.09,5.08-.09,1.17,0,2.61.27,2.61,1.75,0,.45-.04,1.26-.04,2.02v.99c0,.36.09.99.09,1.31,0,1.04-.86.99-2.25.99-1.49,0-2.38.05-2.38-.85,0-.22,0-.72.04-.94,0-.9-.41-1.21-1.21-1.21h-5.67c-.86,0-1.21.4-1.21,1.26v3.51c0,1.44.67,1.44,1.89,1.44h3.1c1.4,0,1.67-.18,1.98-1.98.13-.68.31-.9.99-.9.72,0,3.28.31,3.28,1.66,0,1.17-.85,3.24-1.62,4.14-.94,1.17-2.34,1.12-3.73,1.12h-5.44c-3.15,0-5.04-.23-5.04-3.15,0-.54.04-1.12.04-1.67v-4.19c0-.85-.36-1.26-1.26-1.26h-4.05c-.23.04-.23.13-.23.18,0,.09,0,.18.13.22.95.31,1.85.54,1.85,1.08,0,.31-.45.45-.67.54-.45.09-.58.18-.77.58-2.34,4.72-6.25,7.83-11.25,9.27-.5.14-1.31.36-1.8.36-1.35,0-2.25-2.29-2.25-3.15,0-.72.67-.72,1.62-.95,3.92-.85,7.56-3.28,9.36-7.02.04-.14.09-.23.09-.41,0-.49-.45-.67-.9-.72h-4.32c-.9,0-1.26.4-1.26,1.26v.31c0,.54.09,1.04.09,1.58,0,.99-.9.94-2.34.94s-2.34.04-2.34-.99c0-.45.09-1.04.09-1.53v-1.53c0-.94-.04-1.75-.04-2.25,0-1.53,1.35-1.84,2.61-1.84,1.71,0,3.42.09,5.13.09h7.33c.81,0,1.21-.31,1.26-1.21,0-.58-.13-1.48-.18-2.07,0-.14-.04-.27-.04-.41,0-.58.5-.63.94-.63.95,0,2.83.18,3.87.27.5.04,1.35.04,1.35.58,0,.27-.18.36-.54.63-.54.31-.49.85-.54,1.67.04.85.45,1.17,1.26,1.17Z"/>
  <path class="cls-1" d="M88.05,13.62c.31.13.76.31.76.77,0,.31-.18.49-.31.76-.63.99-.63,1.8-.77,2.93,0,.09-.04.31-.04.4,0,.9.86.99,1.49,1.17,6.16,1.57,10.35,5.98,10.35,12.51,0,7.6-5.17,12.24-11.61,15.3-.58.27-1.58.76-2.25.76-1.04,0-2.83-2.74-2.83-3.64,0-.54.67-.68,1.39-.9,5.22-1.71,10.58-5.53,10.58-11.61s-5.9-8.23-7.16-8.23c-.63,0-.9.58-.99,1.08-.85,4.73-2.88,9.85-5.76,13.68-2.29,3.06-5.94,6.16-9.94,6.16s-5.58-4.36-5.58-7.83c0-4.27,1.4-7.92,4.19-11.11.31-.31.5-.58.5-1.03,0-.36-.14-.72-.27-1.08-.63-1.89-1.12-3.82-1.75-5.76-.04-.18-.13-.45-.13-.67,0-.41.36-.63.72-.72.67-.23,2.97-.9,3.55-.9.72,0,.77.72.86,1.31.18,1.08.54,2.79.81,3.82.13.4.32.72.81.72.31,0,.49-.09.76-.22,2.02-1.04,3.73-1.62,5.98-1.98,1.53-.23,1.62-.5,1.62-3.92,0-.67-.04-1.35-.04-1.98,0-.45.09-.81.63-.81.63,0,3.78.77,4.46,1.04ZM75.23,36.84c-.9-1.85-1.75-3.65-2.57-5.54-.09-.22-.31-.63-.63-.63-.72,0-2.12,3.33-2.12,6.21,0,1.17.18,3.28,1.71,3.28,1.31,0,3.78-1.62,3.78-2.65,0-.27-.09-.45-.18-.67ZM75.72,26.72c0,.58,1.53,4.18,1.85,4.9.4.9.58,1.44,1.03,1.44,1.17,0,3.46-7.42,3.46-8.69,0-.4-.22-.63-.63-.63-1.08,0-5.71,1.48-5.71,2.97Z"/>
  <path class="cls-1" d="M140.52,17.67c0,.31-.5.58-.99.94-2.52,1.75-4.41,3.83-6.52,6.03-.18.18-.45.5-.45.77,0,.36.36.58.76.58.18,0,.41-.04.58-.09.59-.14,1.26-.18,1.85-.18,1.8,0,3.91.54,5.53,1.35,3.51,1.8,5.36,4.81,5.36,8.73,0,7.96-7.07,12.1-14.31,12.1-3.74,0-9.04-1.53-9.04-6.12,0-3.1,2.75-5.44,5.76-5.44,2.34,0,4.72,1.26,5.98,3.19.68,1.04.81,1.71.81,2.88.04.31.18.58.54.58,1.17,0,5.44-2.38,5.44-6.93s-3.69-6.16-7.6-6.16-7.2,1.57-10.08,4.41c-1.76,1.71-3.38,3.55-5,5.4-.13.18-.27.31-.5.31-.95,0-3.24-2.52-3.24-3.24,0-.54.68-1.03,1.08-1.35,4.63-4,9.85-9.58,14-14.13.36-.36,1.17-1.17,1.17-1.62,0-.4-.41-.54-.77-.54-.22,0-.81.14-1.08.18-1.08.27-7.42,1.57-8.14,1.57-.99,0-1.12-3.37-1.12-4.14,0-1.04.04-1.12,1.4-1.12h1.08c2.88,0,8.77-.63,11.38-1.67.5-.18,1.21-.49,1.71-.49,1.8,0,4.41,3.42,4.41,4.18ZM129.14,39.99c-.99,0-1.93.72-1.93,1.8,0,1.62,2.16,2.38,3.51,2.38.85,0,1.21-.81,1.21-1.53,0-1.4-1.21-2.65-2.79-2.65Z"/>
</svg>