<?xml version="1.0" encoding="UTF-8"?>
<svg id="_レイヤー_1" data-name="レイヤー 1" xmlns="http://www.w3.org/2000/svg" width="160" height="60" viewBox="0 0 160 60">
  <defs>
    <style>
      .cls-1 {
        fill: #fff;
        stroke-width: 0px;
      }
    </style>
  </defs>
  <g>
    <path class="cls-1" d="M15.76,49.27c-2.3-.2-5.82-1.14-7.87-2.81-2.05-1.67-2.91-3.4-2.99-6.49-.08-3.24-.08-29.19-.08-29.19h10.44s.07,28.56.08,29.52c.02.96.43,2.3,1.45,3.13,1.02.84,2.84,1.25,4.3,1.25,2.16,0,4.07-.42,5.09-1.25,1.02-.84,1.25-1.59,1.45-3.13.17-1.37.08-29.52.08-29.52h8.48s0,25.9-.08,29.19c-.08,2.98-.94,4.79-2.99,6.47-2.02,1.65-4.82,2.64-7.2,2.83-3.77.29-7.01.28-10.16,0"/>
    <path class="cls-1" d="M48.1,45.83V10.79h26.13v4.26h-15.69v11.73h13.21v4.22h-13.21v13.77h15.69v4.27h-22.74c-2.64,0-3.39-1.23-3.39-3.22"/>
    <path class="cls-1" d="M107.26,44.92c-2.92.06-3.08.05-4.74,0-.32-.01-.64-.04-.96-.09,0,0,0,0,0,0-.02,0-.04,0-.07,0-.02,0-.03,0-.05,0h0c-.51-.04-1.42-.2-2.37-.79-.99-.61-1.53-1.4-1.78-1.81-.32-.69-.5-1.44-.52-2.09-.17-5.22-.15-14.21,0-19.83.05-2.01.25-2.9,1.54-3.98,1.02-.85,2.77-1.26,4.2-1.33,1.46-.07,1.77-.08,4.74,0,2.96.08,4.79.51,5.2,3.33h5.25c-.39-5.66-3.88-7.44-10.44-7.67-6.55-.23-7.71-.11-10.49.08-2.66.19-5.4.93-7.41,2.61-2.02,1.69-2.92,3.31-3.03,6.79-.26,8.71-.26,12.75,0,19.67.04.94.13,2.05.59,3.26.73,1.91,1.96,3.1,2.48,3.56,1.92,1.69,4.03,2.1,5.19,2.25,0,0,0,0,0,0,.87.18,1.65.28,2.17.31,2.11.1,4.47.23,10.49.08,5.9-.15,9.98-2.02,10.44-7.68h-5.25c-.39,2.82-2.25,3.26-5.2,3.33"/>
  </g>
  <path class="cls-1" d="M146.69,23.54c0,.19-.22.31-.37.37-.5.19-.62.34-1.02,1.05-.09.16-.31.53-.31.71,0,.22.16.31.34.31.62,0,2.95-.65,3.6-.87.22-.09.56-.19.77-.19.53,0,.68.5.78.93.09.4.25,1.24.25,1.67,0,.53-.99.65-1.64.78-1.95.4-3.91.74-5.86.96-.5.06-.62.12-.93.5-.19.25-1.05,1.58-1.05,1.8,0,.12.12.22.25.22.19,0,.4-.09.56-.19,1.05-.47,2.23-.81,3.38-.81,1.98,0,3.13.84,3.53,2.79.06.28.16.53.47.53.37,0,3.13-1.49,3.63-1.77.22-.09.56-.31.81-.31.59,0,1.33,2.39,1.33,2.91,0,.37-.34.5-.93.68-.12.06-.28.09-.43.16-1.24.46-2.45.99-3.66,1.52-.56.22-.81.4-.81,1.02v.4c0,.96.03,1.89.03,2.85,0,1.12-.16,1.24-1.33,1.24-1.33,0-1.89-.06-1.89-.87,0-.68.06-1.36.06-2.02,0-.28-.09-.53-.4-.53-.15,0-3.35,1.36-3.35,3.29,0,2.08,3.01,2.26,4.5,2.26,2.08,0,3.75-.28,5.77-.78.19-.03.4-.06.62-.06.4,0,.62.34.62,2.11,0,.93-.03,1.18-.71,1.33-1.18.28-4.62.4-5.95.4-1.77,0-3.25-.09-4.9-.81-1.89-.84-3.1-2.33-3.1-4.43,0-2.79,2.26-4.31,4.4-5.58.62-.37,1.27-.71,1.92-1.02.31-.16.56-.34.56-.71,0-.22-.09-.65-.16-.87-.16-.68-.65-1.05-1.36-1.05-1.74,0-4.59,1.49-5.8,2.73-.9.9-1.95,2.51-2.6,3.63-.09.16-.22.31-.43.31-.56,0-2.64-1.24-2.64-1.8,0-.25.25-.5.4-.68.71-.77,5.21-7.01,5.21-7.6,0-.28-.25-.37-.68-.37-.5,0-1.21.09-2.17.09-.68,0-.81-.16-.81-1.74,0-1.24.12-1.43.9-1.43.53,0,1.33.06,2.23.06h.9c.81,0,1.64-.03,1.92-.4.53-.68,1.46-3.1,1.67-4,.06-.34.12-.65.43-.65.28,0,3.47,1.43,3.47,1.89Z"/>
</svg>