<?xml version="1.0" encoding="UTF-8"?>
<svg id="_レイヤー_1" data-name="レイヤー 1" xmlns="http://www.w3.org/2000/svg" width="160" height="60" viewBox="0 0 160 60">
  <defs>
    <style>
      .cls-1 {
        fill: #fff;
        stroke-width: 0px;
      }
    </style>
  </defs>
  <path class="cls-1" d="M58.26,39.38c-.86,0-1.26.36-1.26,1.26v1.71c0,1.08.09,2.16.09,3.24,0,1.21-.4,2.52-1.35,3.24-1.58,1.21-4.81,1.21-6.71,1.21-1.17,0-2.07.04-2.52-.72-.36-.58-.54-1.8-.54-2.48,0-.81.32-1.21,1.17-1.21.63,0,1.49.09,2.34.09,3.02,0,2.97-.67,2.97-3.19v-1.89c0-.9-.36-1.26-1.26-1.26h-9.22c-1.8,0-3.6.09-5.45.09-1.04,0-1.04-.45-1.04-2.02s0-2.07,1.04-2.07c1.8,0,3.6.14,5.45.14h9.22c.81,0,1.21-.36,1.21-1.22-.04-.36-.13-1.3-.13-1.48,0-.54.36-.63.76-.63.32,0,.59.04.86.04h.22c.63,0,.95-.09,1.44-.45.4-.31,2.43-1.84,2.43-2.25,0-.36-.63-.31-1.12-.31h-7.88c-1.53,0-3.11.13-4.68.13-1.04,0-1.04-.54-1.04-2.03,0-1.57,0-2.02,1.08-2.02,1.57,0,3.11.13,4.63.13h9.72c1.26,0,2.48-.09,3.74-.09.94,0,1.26.27,1.84.95.36.4.95,1.12.95,1.66,0,1.49-6.62,6.17-8.01,7.11-.13.09-.13.13-.18.27.04.14.13.14.27.18h9.81c1.8,0,3.64-.14,5.44-.14,1.04,0,.99.54.99,2.07s.04,2.02-.99,2.02c-1.8,0-3.64-.09-5.44-.09h-8.87ZM70.37,18.5c1.3,0,2.43.18,2.43,1.75,0,.9-.09,1.84-.09,2.88v1.67c0,.67.13,1.39.13,2.12,0,1.12-.63,1.12-2.34,1.12s-2.38,0-2.38-1.12c0-.72.13-1.4.13-2.12v-1.26c0-.9-.41-1.26-1.26-1.26h-24.93c-.9,0-1.26.36-1.26,1.26v1.26c0,.72.09,1.44.09,2.12,0,1.12-.72,1.12-2.34,1.12-1.71,0-2.29,0-2.29-1.17,0-.63.09-1.4.09-2.07v-1.67c0-.99-.04-1.93-.04-2.83,0-1.62,1.08-1.8,2.38-1.8.9,0,1.76,0,2.61.04.36-.04.68-.18.68-.58,0-.13-.04-.27-.09-.41-.72-1.17-1.71-2.7-2.56-3.78-.18-.23-.36-.5-.36-.81,0-.85,2.25-1.98,3.11-1.98.72,0,1.26.72,2.56,2.61.41.58,1.62,2.34,1.62,2.97,0,.67-.86,1.17-1.35,1.48-.09.09-.13.14-.13.27,0,.18.13.22.27.22h13.81c.9,0,1.3-.09,1.93-.81,1.67-2.03,3.06-4.23,4.32-6.53.13-.27.27-.58.63-.58.58,0,3.15,1.12,3.82,1.44.31.13.72.31.72.72s-.49.5-.76.54c-.41.13-.72.22-.9.63-.77,1.26-1.53,2.47-2.43,3.65-.09.13-.13.22-.13.4,0,.36.27.5.54.54,1.26,0,2.52-.04,3.78-.04ZM53.67,18.01c-.49,0-.77-.36-.99-.76-.76-1.44-1.89-3.2-2.83-4.5-.18-.27-.36-.5-.36-.81,0-.95,2.25-1.98,3.06-1.98.86,0,1.53,1.21,2.74,3.06.04.09.14.22.27.4.45.77,1.21,1.98,1.21,2.48,0,.94-2.34,2.11-3.11,2.11Z"/>
  <path class="cls-1" d="M104.08,45.37c-1.08,0-5.71-.32-6.39-.95-.36-.36-.49-3.1-.49-3.69,0-.45.18-.81.67-.81.32,0,.81.13,1.12.23,1.31.4,2.57.72,3.96.72,1.17,0,2.03-.41,2.03-1.71,0-1.71-1.94-4.59-2.97-4.59-.72,0-3.46,1.75-4.19,2.21-2.74,1.71-5.49,3.38-8.14,5.22-1.08.72-1.04.72-1.35,1.35-.13.27-.4.63-.72.63-.77,0-3.02-4.27-3.02-4.86,0-.41.49-.63.86-.76,3.69-1.44,8.64-4.54,12.33-6.48.45-.22.99-.45.99-1.04,0-.31-.18-.45-.31-.72-.81-1.08-1.21-1.84-1.21-3.24,0-1.12.81-5.36,2.21-5.36.63,0,3.73,1.12,3.73,1.8,0,.18-.18.45-.36.81-.41.67-.95,1.62-.95,2.75,0,.94,1.48,2.61,2.38,2.61.18,0,.36-.04.54-.04.77-.13,1.53-.22,2.34-.22,10.76,0,16.47,10.44,16.47,11.25,0,.77-3.2,2.47-4.23,2.47-.54,0-.77-.63-1.08-1.3-1.35-2.88-3.96-6.03-6.97-7.33-.58-.27-2.03-.72-2.65-.72-.31,0-.86.23-.86.63,0,.23.18.41.27.58,1.21,1.71,1.98,3.56,1.98,5.67,0,3.74-2.61,4.91-5.98,4.91ZM105.47,15.08c.81.45,2.97,1.62,3.6,2.16.22.18.36.36.36.63,0,.67-1.8,3.78-2.52,3.78-.31,0-.54-.23-.76-.36-1.98-1.62-4.14-2.92-6.48-4-.49-.22-.99-.41-.99-.95,0-.63,1.3-3.38,2.21-3.38.63,0,3.87,1.71,4.59,2.12ZM115.68,17.51c.45,0,4.23,3.87,4.23,4.46,0,.63-1.58,2.03-2.16,2.03-.27,0-.45-.23-.59-.41-1.04-1.3-2.16-2.47-3.33-3.64-.13-.14-.36-.36-.36-.54,0-.58,1.71-1.89,2.21-1.89ZM124.5,18.64c0,.63-1.58,2.07-2.16,2.07-.27,0-.54-.27-.95-.86-.59-.81-2.21-2.47-2.97-3.19-.18-.18-.36-.36-.36-.58,0-.5,1.62-1.84,2.16-1.84.45,0,4.28,3.82,4.28,4.41Z"/>
</svg>