<?xml version="1.0" encoding="UTF-8"?>
<svg id="_レイヤー_1" data-name="レイヤー 1" xmlns="http://www.w3.org/2000/svg" viewBox="0 0 1280 800">
  <defs>
    <style>
      .cls-1 {
        fill: #fff;
        stroke-width: 0px;
      }
    </style>
  </defs>
  <path class="cls-1" d="M184.5,68.91l19.02,34.03-4.58,2.56-19.02-34.03-6.39,3.57-2.31-4.13,17.3-9.67,2.31,4.13-6.33,3.54Z"/>
  <path class="cls-1" d="M241.66,84.98l-7.62-18.37-8.9,3.69,7.62,18.37-4.84,2.01-16.75-40.37,4.84-2.01,7.32,17.63,8.9-3.69-7.32-17.63,4.84-2.01,16.75,40.37-4.84,2.01Z"/>
  <path class="cls-1" d="M268.05,75.49l-12.46-41.89,16.07-4.78,1.35,4.53-11.05,3.29,4.18,14.06,9.53-2.83,1.35,4.53-9.53,2.83,4.24,14.24,11.04-3.28,1.35,4.53-16.07,4.78Z"/>
  <path class="cls-1" d="M347.85,55.61c-1.6,2.16-3.99,3.5-6.76,3.91-2.78.41-5.39-.21-7.54-1.81-2.01-1.51-3.41-3.91-3.87-7.07l-4.88-33.41,5.19-.76,4.93,33.71c.5,3.4,2.89,5.04,5.49,4.66s4.48-2.64,3.98-6.04l-4.93-33.71,5.19-.76,4.88,33.41c.46,3.16-.19,5.86-1.68,7.88Z"/>
  <path class="cls-1" d="M390,54.04l-13.25-29.06,2.05,29.83-5.23.36-3-43.61,4.87-.34,13.12,29.06-2.05-29.83,5.23-.36,3,43.61-4.75.33Z"/>
  <path class="cls-1" d="M418.01,53V9.29h5.24v43.71h-5.24Z"/>
  <path class="cls-1" d="M458.27,53h-5.37l-9.39-43.71h5.79l6.28,35.17,6.34-35.17h5.73l-9.39,43.71Z"/>
  <path class="cls-1" d="M487.9,53V9.29h16.77v4.73h-11.52v14.67h9.94v4.73h-9.94v14.86h11.52v4.73h-16.77Z"/>
  <path class="cls-1" d="M543.08,53l-5.98-18.78h-4.69v18.78h-5.24V9.29h9.82c6.59,0,10.24,2.89,10.24,12.46,0,6.08-1.46,9.64-5.24,11.42l6.65,19.83h-5.55ZM537.04,14.02h-4.63v15.53h4.63c4.02,0,4.94-3.13,4.94-7.8s-.91-7.74-4.94-7.74Z"/>
  <path class="cls-1" d="M587.44,50.79c-1.65,1.6-4.21,2.64-7.68,2.64s-5.92-.92-7.62-2.64c-2.01-2.03-2.68-4.54-2.68-9.21h5.24c0,2.89.3,4.48,1.46,5.71.73.8,1.95,1.35,3.6,1.35,1.77,0,2.93-.55,3.72-1.41,1.16-1.29,1.4-2.95,1.4-5.83,0-5.03-.73-6.57-4.27-8.04l-4.94-2.03c-4.45-1.84-5.91-4.3-5.91-10.93,0-3.81,1.1-6.94,3.29-8.96,1.71-1.6,4.02-2.52,6.89-2.52,3.17,0,5.55.92,7.2,2.52,2.19,2.15,2.87,4.97,2.87,8.96h-5.24c0-2.33-.24-3.93-1.34-5.28-.73-.92-1.89-1.47-3.54-1.47-1.52,0-2.62.55-3.35,1.35-1.04,1.17-1.52,2.95-1.52,5.22,0,4.3.67,5.59,4.15,7.06l4.88,2.03c4.94,2.03,6.1,5.1,6.1,11.97,0,4.54-.61,7.43-2.68,9.51Z"/>
  <path class="cls-1" d="M612.71,53V9.29h5.24v43.71h-5.24Z"/>
  <path class="cls-1" d="M651.88,14.02v38.98h-5.24V14.02h-7.32v-4.73h19.82v4.73h-7.26Z"/>
  <path class="cls-1" d="M689.87,35.32v17.68h-5.24v-17.68l-7.99-26.03h5.73l4.88,18.66,4.88-18.66h5.79l-8.05,26.03Z"/>
  <path class="cls-1" d="M762.53,50.3c-1.71,1.9-4.02,3.19-7.44,3.19s-5.73-1.29-7.44-3.19c-2.8-3.13-3.17-7.06-3.17-19.15s.37-16.02,3.17-19.15c1.71-1.9,4.02-3.19,7.44-3.19s5.73,1.29,7.44,3.19c2.8,3.13,3.17,7.06,3.17,19.15s-.37,16.02-3.17,19.15ZM758.63,15.19c-.73-.98-1.83-1.66-3.54-1.66s-2.87.68-3.6,1.66c-1.52,2.09-1.77,5.59-1.77,15.96s.24,13.87,1.77,15.96c.73.98,1.89,1.66,3.6,1.66s2.8-.68,3.54-1.66c1.52-2.09,1.83-5.59,1.83-15.96s-.3-13.87-1.83-15.96Z"/>
  <path class="cls-1" d="M793.84,14.02v14.67h9.94v4.73h-9.94v19.58h-5.24V9.29h16.77v4.73h-11.52Z"/>
  <path class="cls-1" d="M854.77,52.81l1.17-43.7,16.76.45-.13,4.73-11.52-.31-.39,14.67,9.94.27-.13,4.73-9.94-.27-.4,14.85,11.52.31-.13,4.73-16.76-.45Z"/>
  <path class="cls-1" d="M893.48,54.24l3.35-43.58,5.23.4-2.98,38.86,11.49.88-.36,4.71-16.72-1.28Z"/>
  <path class="cls-1" d="M930.72,57.83l6.27-43.26,16.6,2.4-.68,4.68-11.41-1.65-2.1,14.52,9.84,1.43-.68,4.68-9.84-1.43-2.13,14.7,11.41,1.65-.68,4.68-16.6-2.4Z"/>
  <path class="cls-1" d="M984.87,65.94c-2.01,1.12-4.28,1.48-7.07.84-3.33-.76-5.36-2.55-6.54-4.77-2.06-3.87-1.52-7.59,1.17-19.38,2.69-11.79,3.83-15.37,7.36-17.96,2.03-1.49,4.63-2.22,7.96-1.46,2.97.68,4.85,2.05,6.14,4.05,1.52,2.36,1.84,5.65,1.1,9.13l-5.05-1.15c.35-1.81.46-3.67-.26-5.16-.46-.99-1.38-1.89-2.99-2.26-1.66-.38-2.94.02-3.88.82-1.95,1.69-2.97,5.05-5.28,15.17-2.31,10.11-2.85,13.58-1.83,15.95.49,1.12,1.47,2.04,3.14,2.42,1.61.37,2.83-.05,3.67-.74,1.24-1.04,2.02-2.81,2.49-4.6l5.05,1.15c-.88,3.58-2.67,6.5-5.19,7.94Z"/>
  <path class="cls-1" d="M1029.78,40.37l-12.12,37.05-4.98-1.63,12.12-37.05-6.96-2.27,1.47-4.49,18.83,6.16-1.47,4.49-6.9-2.25Z"/>
  <path class="cls-1" d="M1057.87,93.44l2.25-19.58-4.28-1.93-7.7,17.13-4.78-2.15,17.93-39.86,8.95,4.03c6,2.7,8.16,6.83,4.23,15.57-2.49,5.54-5.29,8.19-9.46,8.26l-2.07,20.81-5.06-2.28ZM1068.35,55.41l-4.23-1.9-6.37,14.16,4.23,1.9c3.67,1.65,5.79-.83,7.7-5.08,1.91-4.25,2.34-7.43-1.33-9.08Z"/>
  <path class="cls-1" d="M1097.46,112.2c-2.45.73-5.1.62-8.01-1.16s-4.22-4.09-4.68-6.61c-.76-4.13.98-7.68,7.29-17.99s8.68-13.47,12.7-14.68c2.45-.73,5.1-.62,8.01,1.16,2.91,1.78,4.22,4.09,4.68,6.61.76,4.13-.98,7.68-7.29,17.99s-8.68,13.47-12.7,14.68ZM1112.46,80.21c-.11-1.22-.69-2.37-2.15-3.26-1.46-.89-2.8-.92-3.93-.46-2.39.98-4.42,3.84-9.84,12.69-5.42,8.85-7.03,11.96-6.82,14.54.11,1.22.75,2.4,2.2,3.29,1.46.89,2.75.89,3.88.43,2.39-.98,4.48-3.81,9.89-12.66,5.42-8.85,6.98-11.99,6.77-14.57Z"/>
  <path class="cls-1" d="M1124.94,116.56l2.94-3.7,9.35,7.44-2.94,3.7-9.35-7.44Z"/>
  <path class="cls-1" d="M1153.92,160.52c-2.29-.16-4.39-1.09-6.39-3.14-2.38-2.45-3.11-5.05-2.89-7.56.38-4.36,2.85-7.19,11.53-15.62,8.67-8.43,11.57-10.82,15.95-11.07,2.51-.15,5.09.66,7.47,3.11,2.12,2.19,2.95,4.36,2.95,6.74,0,2.81-1.53,5.74-4.04,8.26l-3.61-3.72c1.28-1.33,2.39-2.83,2.59-4.47.15-1.08-.13-2.34-1.28-3.52-1.19-1.22-2.48-1.58-3.7-1.42-2.56.36-5.24,2.62-12.68,9.85-7.44,7.23-9.78,9.84-10.22,12.39-.2,1.21.13,2.51,1.32,3.74,1.15,1.18,2.4,1.5,3.48,1.38,1.6-.2,3.22-1.26,4.59-2.5l3.61,3.72c-2.68,2.52-5.78,4-8.68,3.84Z"/>
  <path class="cls-1" d="M1180.34,192.39c-2.54-.27-4.95-1.39-6.95-4.16-2-2.77-2.31-5.4-1.77-7.9.89-4.11,3.86-6.71,13.66-13.79,9.8-7.09,13.2-9.09,17.38-8.66,2.54.27,4.95,1.39,6.95,4.16,2,2.77,2.31,5.4,1.77,7.9-.89,4.11-3.86,6.71-13.66,13.79-9.8,7.09-13.2,9.09-17.38,8.66ZM1206.5,168.65c.37-1.17.27-2.45-.73-3.84-1-1.38-2.23-1.93-3.45-1.94-2.58-.01-5.56,1.84-13.97,7.92-8.41,6.08-11.1,8.33-11.9,10.79-.37,1.17-.24,2.5.77,3.89s2.19,1.88,3.42,1.89c2.58.01,5.6-1.79,14-7.87,8.41-6.08,11.06-8.38,11.86-10.84Z"/>
  <path class="cls-1" d="M1201.3,234.3l27.74-14.11-21.34,3.13-1.46-2.88,14.72-15.08-27.3,13.89-2.38-4.67,38.96-19.82,2.24,4.4-17.69,18.85,25.62-3.25,2.24,4.4-38.96,19.82-2.38-4.67Z"/>
  <path class="cls-1" d="M1219.01,280.7l29.6-9.63-21.57-.23-1-3.07,16.88-12.61-29.13,9.48-1.62-4.99,41.57-13.53,1.53,4.7-20.4,15.87,25.82.77,1.53,4.7-41.57,13.53-1.62-4.99Z"/>
  <path class="cls-1" d="M1231.43,323.81c-2.22-1.5-3.66-3.84-4.18-6.59s-.02-5.39,1.5-7.61c1.42-2.07,3.76-3.57,6.9-4.16l33.17-6.28.98,5.15-33.48,6.33c-3.38.64-4.91,3.1-4.42,5.68s2.83,4.37,6.2,3.73l33.48-6.33.97,5.15-33.17,6.28c-3.14.59-5.86.05-7.94-1.35Z"/>
  <path class="cls-1" d="M1233.94,365.68l28.88-13.63-29.8,2.45-.43-5.23,43.57-3.58.4,4.86-28.89,13.51,29.8-2.45.43,5.23-43.57,3.59-.39-4.74Z"/>
  <path class="cls-1" d="M1234.97,393.56l43.71-.3.04,5.24-43.71.3-.04-5.24Z"/>
  <path class="cls-1" d="M1235.58,438.41c-1.43-1.8-2.16-3.98-1.98-6.84.21-3.41,1.64-5.7,3.64-7.23,3.48-2.66,7.24-2.73,19.31-1.99s15.79,1.27,18.93,4.34c1.8,1.76,2.94,4.21,2.73,7.62-.19,3.04-1.24,5.12-2.99,6.72-2.08,1.89-5.27,2.73-8.83,2.57l.32-5.17c1.84.05,3.7-.14,5.05-1.1.9-.62,1.64-1.67,1.74-3.31.1-1.7-.5-2.9-1.44-3.69-1.99-1.65-5.47-2.11-15.82-2.74s-13.86-.6-16.04.79c-1.02.67-1.77,1.79-1.87,3.49-.1,1.64.51,2.78,1.32,3.5,1.23,1.05,3.11,1.53,4.94,1.71l-.32,5.17c-3.67-.29-6.85-1.58-8.68-3.83Z"/>
  <path class="cls-1" d="M1228.61,478.67l10.51-.43,1.57-9.94-9.86-3.66.86-5.42,41.59,16.83-.79,5-44.75,3.1.87-5.48ZM1264.46,477.19l-19.25-7.18-1.27,8.01,20.52-.83Z"/>
  <path class="cls-1" d="M1258.63,522.54l-37.66-10.05,1.35-5.07,37.66,10.05,1.89-7.07,4.57,1.22-5.11,19.15-4.57-1.22,1.87-7.01Z"/>
  <path class="cls-1" d="M1212.63,538.71l40.95,15.28-1.83,4.91-40.95-15.28,1.83-4.91Z"/>
  <path class="cls-1" d="M1196.76,581.05c-.93-2.38-1.03-5.03.51-8.08,1.54-3.05,3.74-4.53,6.21-5.19,4.06-1.09,7.73.36,18.52,5.83,10.79,5.46,14.13,7.57,15.65,11.48.93,2.38,1.03,5.03-.51,8.08-1.54,3.05-3.74,4.53-6.21,5.19-4.06,1.09-7.73-.36-18.52-5.83-10.79-5.46-14.13-7.57-15.65-11.48ZM1229.85,593.44c1.21-.21,2.31-.88,3.08-2.41.77-1.52.69-2.86.15-3.96-1.17-2.3-4.18-4.1-13.44-8.79s-12.49-6.05-15.04-5.63c-1.21.21-2.33.94-3.1,2.46-.77,1.52-.66,2.81-.12,3.9,1.17,2.3,4.16,4.16,13.41,8.84s12.51,6,15.06,5.58Z"/>
  <path class="cls-1" d="M1172.45,614.41l30.89,8.07-24.43-17.24,3.02-4.28,35.71,25.21-2.81,3.99-30.82-8.17,24.43,17.24-3.02,4.28-35.71-25.21,2.74-3.89Z"/>
  <path class="cls-1" d="M1145.63,648.91c-.02-2.29,1-4.86,3.4-7.38,2.32-2.42,4.75-3.64,7.18-3.68,2.86-.05,5.14,1.2,8.51,4.42l-3.62,3.79c-2.09-1.99-3.45-2.88-5.14-2.89-1.08-.02-2.33.48-3.46,1.67-1.22,1.28-1.62,2.5-1.55,3.66.13,1.73,1.16,3.05,3.25,5.04,3.64,3.48,5.25,4.01,8.76,2.47l4.88-2.17c4.41-1.94,7.19-1.31,11.99,3.28,2.75,2.63,4.25,5.59,4.2,8.57-.03,2.34-.96,4.65-2.94,6.72-2.19,2.29-4.5,3.37-6.79,3.46-3.07.1-5.58-1.36-8.46-4.12l3.62-3.79c1.69,1.61,3.01,2.54,4.74,2.68,1.17.11,2.37-.35,3.51-1.54,1.05-1.1,1.41-2.28,1.34-3.36-.13-1.55-1.08-3.14-2.72-4.71-3.11-2.97-4.5-3.38-7.97-1.88l-4.84,2.12c-4.88,2.17-7.9.89-12.87-3.86-3.28-3.14-4.95-5.57-5.02-8.51Z"/>
  <path class="cls-1" d="M1092.79,732.79l-18.69-34.21,4.6-2.51,18.69,34.21,6.42-3.51,2.27,4.15-17.39,9.5-2.27-4.15,6.37-3.48Z"/>
  <path class="cls-1" d="M1035.79,716.18l7.46,18.44,8.93-3.61-7.46-18.44,4.86-1.97,16.38,40.52-4.86,1.97-7.16-17.7-8.93,3.61,7.16,17.7-4.86,1.97-16.38-40.52,4.86-1.97Z"/>
  <path class="cls-1" d="M1009.29,725.45l12.12,41.99-16.11,4.65-1.31-4.54,11.07-3.2-4.07-14.09-9.55,2.75-1.31-4.54,9.55-2.76-4.12-14.27-11.07,3.2-1.31-4.54,16.11-4.65Z"/>
  <path class="cls-1" d="M929.33,744.77c1.61-2.15,4.01-3.47,6.79-3.86,2.78-.39,5.39.24,7.53,1.86,2,1.52,3.38,3.93,3.83,7.09l4.68,33.43-5.19.73-4.73-33.74c-.48-3.4-2.86-5.05-5.46-4.69-2.6.36-4.5,2.61-4.02,6.02l4.73,33.74-5.19.73-4.68-33.44c-.44-3.16.23-5.86,1.73-7.87Z"/>
  <path class="cls-1" d="M887.18,746.12l13.11,29.12-1.91-29.83,5.23-.33,2.79,43.62-4.87.31-12.98-29.13,1.91,29.84-5.23.33-2.79-43.62,4.75-.3Z"/>
  <path class="cls-1" d="M859.15,747v43.71h-5.24v-43.71h5.24Z"/>
  <path class="cls-1" d="M818.85,747h5.37l9.39,43.71h-5.79l-6.28-35.17-6.34,35.17h-5.73l9.39-43.71Z"/>
  <path class="cls-1" d="M789.2,747v43.71h-16.77v-4.73h11.52v-14.67h-9.94v-4.73h9.94v-14.86h-11.52v-4.73h16.77Z"/>
  <path class="cls-1" d="M734.03,747l5.98,18.78h4.69v-18.78h5.24v43.71h-9.82c-6.59,0-10.24-2.89-10.24-12.46,0-6.08,1.46-9.64,5.24-11.42l-6.65-19.83h5.55ZM740.07,785.98h4.63v-15.53h-4.63c-4.02,0-4.94,3.13-4.94,7.8s.91,7.74,4.94,7.74Z"/>
  <path class="cls-1" d="M689.69,749.21c1.65-1.6,4.21-2.64,7.68-2.64s5.92.92,7.62,2.64c2.01,2.03,2.68,4.54,2.68,9.21h-5.24c0-2.89-.3-4.48-1.46-5.71-.73-.8-1.95-1.35-3.6-1.35-1.77,0-2.93.55-3.72,1.41-1.16,1.29-1.4,2.95-1.4,5.83,0,5.03.73,6.57,4.27,8.04l4.94,2.03c4.45,1.84,5.91,4.3,5.91,10.93,0,3.81-1.1,6.94-3.29,8.96-1.71,1.6-4.02,2.52-6.89,2.52-3.17,0-5.55-.92-7.19-2.52-2.2-2.15-2.87-4.97-2.87-8.96h5.24c0,2.33.24,3.93,1.34,5.28.73.92,1.89,1.47,3.54,1.47,1.52,0,2.62-.55,3.35-1.35,1.04-1.17,1.52-2.95,1.52-5.22,0-4.3-.67-5.59-4.15-7.06l-4.88-2.03c-4.94-2.03-6.1-5.1-6.1-11.97,0-4.54.61-7.43,2.68-9.51Z"/>
  <path class="cls-1" d="M664.37,747v43.71h-5.24v-43.71h5.24Z"/>
  <path class="cls-1" d="M625.23,785.98v-38.98h5.24v38.98h7.32v4.73h-19.82v-4.73h7.26Z"/>
  <path class="cls-1" d="M587.25,764.68v-17.68h5.24v17.68l7.99,26.03h-5.73l-4.88-18.66-4.88,18.66h-5.79l8.05-26.03Z"/>
  <path class="cls-1" d="M514.56,749.7c1.71-1.9,4.02-3.19,7.44-3.19s5.73,1.29,7.44,3.19c2.8,3.13,3.17,7.06,3.17,19.15s-.37,16.02-3.17,19.15c-1.71,1.9-4.02,3.19-7.44,3.19s-5.73-1.29-7.44-3.19c-2.8-3.13-3.17-7.06-3.17-19.15s.37-16.02,3.17-19.15ZM518.47,784.81c.73.98,1.83,1.66,3.54,1.66s2.87-.68,3.6-1.66c1.52-2.09,1.77-5.59,1.77-15.96s-.24-13.87-1.77-15.96c-.73-.98-1.89-1.66-3.6-1.66s-2.8.68-3.54,1.66c-1.52,2.09-1.83,5.59-1.83,15.96s.3,13.87,1.83,15.96Z"/>
  <path class="cls-1" d="M483.29,785.98v-14.67h-9.94v-4.73h9.94v-19.58h5.24v43.71h-16.77v-4.73h11.52Z"/>
  <path class="cls-1" d="M422.33,747.13l-1.17,43.7-16.76-.45.13-4.73,11.52.31.39-14.67-9.94-.27.13-4.73,9.94.27.4-14.85-11.52-.31.13-4.73,16.76.45Z"/>
  <path class="cls-1" d="M383.68,745.57l-3.55,43.57-5.23-.43,3.17-38.85-11.49-.94.38-4.71,16.71,1.36Z"/>
  <path class="cls-1" d="M346.49,741.8l-6.5,43.23-16.58-2.49.7-4.67,11.4,1.71,2.18-14.51-9.83-1.48.7-4.67,9.83,1.48,2.21-14.69-11.4-1.71.7-4.67,16.58,2.49Z"/>
  <path class="cls-1" d="M292.37,733.38c2.01-1.1,4.29-1.45,7.08-.8,3.32.78,5.34,2.58,6.51,4.81,2.03,3.88,1.47,7.6-1.29,19.37s-3.92,15.35-7.47,17.92c-2.04,1.48-4.65,2.19-7.97,1.41-2.97-.7-4.83-2.08-6.12-4.09-1.51-2.37-1.8-5.66-1.05-9.14l5.04,1.19c-.36,1.81-.49,3.67.23,5.16.46.99,1.37,1.9,2.97,2.27,1.66.39,2.94,0,3.88-.79,1.96-1.68,3-5.04,5.37-15.14,2.37-10.1,2.93-13.56,1.93-15.94-.49-1.12-1.46-2.05-3.12-2.44-1.6-.38-2.83.03-3.67.71-1.24,1.03-2.04,2.8-2.52,4.58l-5.05-1.19c.9-3.57,2.71-6.49,5.24-7.91Z"/>
  <path class="cls-1" d="M247.31,758.64l12.37-36.96,4.97,1.67-12.37,36.96,6.94,2.32-1.5,4.48-18.79-6.29,1.5-4.48,6.88,2.3Z"/>
  <path class="cls-1" d="M219.58,705.36l-2.41,19.56,4.27,1.96,7.84-17.07,4.76,2.19-18.24,39.72-8.92-4.1c-5.98-2.75-8.1-6.9-4.11-15.6,2.54-5.52,5.35-8.15,9.53-8.19l2.24-20.79,5.04,2.32ZM208.8,743.3l4.21,1.93,6.48-14.11-4.21-1.93c-3.66-1.68-5.79.78-7.74,5.02-1.95,4.24-2.4,7.41,1.26,9.09Z"/>
  <path class="cls-1" d="M180.18,686.27c2.46-.71,5.1-.58,8,1.23,2.9,1.81,4.18,4.13,4.62,6.65.72,4.14-1.05,7.67-7.46,17.93-6.41,10.26-8.8,13.4-12.83,14.57-2.46.71-5.11.58-8-1.23-2.9-1.81-4.18-4.13-4.62-6.65-.72-4.14,1.05-7.67,7.46-17.93,6.41-10.26,8.8-13.4,12.83-14.57ZM164.89,718.13c.1,1.22.67,2.37,2.12,3.28s2.79.94,3.93.5c2.4-.96,4.46-3.8,9.95-12.6,5.5-8.8,7.14-11.9,6.96-14.48-.1-1.22-.73-2.41-2.17-3.31-1.45-.9-2.74-.91-3.88-.47-2.4.96-4.51,3.77-10.01,12.57-5.5,8.8-7.09,11.93-6.9,14.51Z"/>
  <path class="cls-1" d="M152.73,681.65l-2.98,3.67-9.28-7.53,2.98-3.67,9.28,7.53Z"/>
  <path class="cls-1" d="M124.17,637.41c2.29.18,4.38,1.13,6.36,3.21,2.36,2.47,3.06,5.08,2.82,7.59-.42,4.36-2.92,7.17-11.68,15.51-8.76,8.34-11.68,10.7-16.06,10.91-2.51.12-5.09-.71-7.44-3.19-2.1-2.21-2.91-4.39-2.88-6.77.03-2.81,1.59-5.72,4.12-8.22l3.57,3.75c-1.29,1.31-2.41,2.81-2.63,4.45-.16,1.08.11,2.34,1.24,3.53,1.18,1.24,2.46,1.61,3.68,1.46,2.56-.34,5.26-2.57,12.78-9.73s9.88-9.75,10.34-12.29c.21-1.21-.1-2.51-1.28-3.75-1.14-1.19-2.38-1.52-3.47-1.41-1.61.18-3.24,1.23-4.61,2.46l-3.58-3.75c2.71-2.5,5.82-3.95,8.72-3.75Z"/>
  <path class="cls-1" d="M98.07,605.28c2.54.29,4.93,1.44,6.91,4.22,1.97,2.79,2.26,5.42,1.7,7.91-.93,4.1-3.93,6.67-13.79,13.66-9.87,6.99-13.28,8.96-17.46,8.49-2.54-.29-4.93-1.44-6.91-4.22-1.97-2.79-2.26-5.42-1.7-7.91.93-4.1,3.92-6.67,13.79-13.66,9.87-6.99,13.28-8.96,17.46-8.49ZM71.68,628.77c-.38,1.17-.29,2.45.69,3.84s2.21,1.95,3.43,1.98c2.58.04,5.58-1.79,14.04-7.79,8.46-6,11.18-8.22,12-10.67.38-1.17.26-2.5-.73-3.89-.99-1.39-2.17-1.9-3.4-1.93-2.58-.04-5.61,1.74-14.08,7.74-8.46,6-11.14,8.27-11.96,10.72Z"/>
  <path class="cls-1" d="M77.51,563.18l-27.87,13.86,21.38-2.93,1.44,2.89-14.85,14.94,27.43-13.64,2.33,4.7-39.14,19.46-2.2-4.42,17.86-18.68-25.65,3.01-2.2-4.42,39.14-19.46,2.33,4.7Z"/>
  <path class="cls-1" d="M60.19,516.63l-29.68,9.38,21.57.41.97,3.08-16.98,12.47,29.21-9.24,1.58,5-41.68,13.18-1.49-4.71,20.53-15.7-25.81-.98-1.49-4.71,41.67-13.18,1.58,5Z"/>
  <path class="cls-1" d="M48.1,473.4c2.21,1.52,3.63,3.86,4.13,6.62s-.02,5.4-1.55,7.6c-1.44,2.06-3.79,3.54-6.93,4.11l-33.22,6.03-.94-5.16,33.52-6.09c3.38-.61,4.93-3.07,4.46-5.65s-2.79-4.39-6.18-3.77l-33.52,6.09-.94-5.16,33.22-6.03c3.14-.57,5.86-.01,7.93,1.41Z"/>
  <path class="cls-1" d="M45.87,431.54l-28.96,13.46,29.81-2.27.4,5.23-43.59,3.31-.37-4.86,28.97-13.33-29.81,2.27-.4-5.23,43.59-3.31.36,4.74Z"/>
  <path class="cls-1" d="M45,403.62l-43.71.08v-5.24s43.7-.08,43.7-.08v5.24Z"/>
  <path class="cls-1" d="M44.65,358.78c1.42,1.81,2.13,4,1.93,6.86-.23,3.41-1.68,5.69-3.69,7.21-3.5,2.63-7.26,2.68-19.33,1.86-12.07-.82-15.78-1.38-18.89-4.46-1.79-1.77-2.91-4.23-2.68-7.64.21-3.04,1.27-5.11,3.04-6.7,2.1-1.88,5.29-2.7,8.85-2.52l-.35,5.17c-1.84-.06-3.7.12-5.06,1.06-.9.61-1.65,1.66-1.76,3.3-.12,1.7.48,2.9,1.41,3.7,1.98,1.66,5.45,2.14,15.8,2.85,10.35.7,13.86.7,16.04-.68,1.03-.66,1.78-1.77,1.9-3.48.11-1.64-.49-2.78-1.3-3.51-1.22-1.06-3.09-1.56-4.93-1.74l.35-5.17c3.67.31,6.84,1.63,8.66,3.89Z"/>
  <path class="cls-1" d="M51.93,318.61l-10.52.35-1.65,9.92,9.83,3.74-.9,5.41-41.46-17.17.83-4.99,44.77-2.74-.91,5.47ZM16.06,319.8l19.19,7.34,1.33-8-20.53.66Z"/>
  <path class="cls-1" d="M22.31,274.44l37.57,10.4-1.4,5.05-37.57-10.4-1.95,7.05-4.56-1.26,5.29-19.1,4.56,1.26-1.94,6.99Z"/>
  <path class="cls-1" d="M68.46,258.73l-40.79-15.69,1.88-4.89,40.79,15.69-1.88,4.89Z"/>
  <path class="cls-1" d="M84.77,216.57c.9,2.39.98,5.04-.6,8.07-1.57,3.03-3.79,4.49-6.26,5.13-4.07,1.04-7.73-.44-18.46-6.02s-14.05-7.72-15.53-11.65c-.9-2.39-.98-5.04.6-8.07,1.57-3.03,3.79-4.49,6.26-5.13,4.07-1.04,7.73.44,18.46,6.02s14.05,7.72,15.53,11.65ZM51.81,203.83c-1.21.2-2.31.86-3.1,2.37-.79,1.52-.72,2.85-.19,3.96,1.15,2.32,4.14,4.15,13.35,8.93s12.42,6.18,14.98,5.79c1.21-.2,2.34-.91,3.13-2.43.79-1.51.69-2.8.16-3.9-1.15-2.32-4.11-4.2-13.32-8.99s-12.45-6.13-15.01-5.74Z"/>
  <path class="cls-1" d="M109.44,183.45l-30.81-8.4,24.24,17.5-3.07,4.25-35.44-25.58,2.86-3.96,30.74,8.5-24.24-17.5,3.07-4.25,35.44,25.59-2.78,3.86Z"/>
  <path class="cls-1" d="M136.6,149.26c0,2.29-1.05,4.86-3.48,7.34-2.34,2.4-4.79,3.59-7.21,3.61-2.86.03-5.13-1.25-8.47-4.51l3.66-3.75c2.07,2.02,3.42,2.91,5.11,2.94,1.08.03,2.33-.45,3.48-1.63,1.24-1.27,1.65-2.48,1.59-3.65-.11-1.73-1.13-3.06-3.2-5.08-3.6-3.52-5.21-4.06-8.74-2.56l-4.9,2.12c-4.43,1.9-7.21,1.23-11.95-3.4-2.72-2.66-4.2-5.63-4.12-8.62.05-2.34,1.01-4.64,3.01-6.69,2.21-2.27,4.53-3.33,6.83-3.39,3.07-.07,5.56,1.42,8.42,4.21l-3.66,3.75c-1.67-1.63-2.98-2.57-4.72-2.73-1.17-.12-2.38.32-3.53,1.5-1.06,1.09-1.44,2.26-1.38,3.34.11,1.56,1.04,3.15,2.67,4.74,3.08,3,4.47,3.42,7.95,1.96l4.86-2.08c4.9-2.12,7.91-.81,12.83,4,3.25,3.17,4.89,5.62,4.94,8.57Z"/>
</svg>